<?xml version="1.0" encoding="utf-8"?>
<!-- Generator: Adobe Illustrator 16.0.0, SVG Export Plug-In . SVG Version: 6.00 Build 0)  -->
<!DOCTYPE svg PUBLIC "-//W3C//DTD SVG 1.1//EN" "http://www.w3.org/Graphics/SVG/1.1/DTD/svg11.dtd">
<svg version="1.1" id="Layer_1" xmlns="http://www.w3.org/2000/svg" xmlns:xlink="http://www.w3.org/1999/xlink" x="0px" y="0px"
	 width="500px" height="500px" viewBox="0 0 500 500" enable-background="new 0 0 500 500" xml:space="preserve">
<g>
	<g>
		<path fill-rule="evenodd" clip-rule="evenodd" fill="#FFFFFF" d="M1.577,500.456c0-166.293,0-332.586,0-498.879
			c166.293,0,332.586,0,498.879,0c0,166.293,0,332.586,0,498.879C334.163,500.456,167.87,500.456,1.577,500.456z"/>
		<path fill-rule="evenodd" clip-rule="evenodd" fill="#DCDBDB" d="M249.89,483.818c-63.212-1.096-118.902-23.667-164.225-69.801
			c-44.704-45.503-66.308-100.843-66.756-164.536c1.36-63.022,24.075-117.11,67.921-162.359
			c46.644-45.283,102.448-68.077,167.479-68.215c64.377,1.792,119.726,24.997,164.385,71.477
			c43.97,45.762,65.71,100.984,64.801,164.557c-0.894,62.469-24.28,115.769-67.524,160.574
			C370.127,460.137,315.272,482.947,249.89,483.818z"/>
		<path fill-rule="evenodd" clip-rule="evenodd" fill="#273445" d="M251.955,284.953c-1.42-2.443-2.759-4.725-4.078-7.019
			c-13.125-22.837-26.222-45.691-39.394-68.501c-2.582-4.472-5.303-8.844-7.087-13.731c-11.253-30.809,7.992-64.83,40.205-71.027
			c29.607-5.696,57.821,13.266,63.463,42.826c2.484,13.02,0.287,25.366-6.351,36.88c-12.55,21.768-25.101,43.534-37.65,65.301
			c-2.616,4.538-5.222,9.081-7.846,13.614C252.917,283.816,252.709,284.41,251.955,284.953z"/>
		<path fill-rule="evenodd" clip-rule="evenodd" fill="#273445" d="M198.103,293.739c-1.878-2.188-4.291-3.771-6.635-5.406
			c-11.616-8.103-24.082-14.532-37.634-18.774c-3.602-1.127-7.228-2.152-10.916-2.957c-1.939-0.424-2.824-1.345-2.833-2.973
			c-0.012-1.791,0.904-2.792,2.895-3.169c9.953-1.886,19.901-3.797,29.849-5.707c8.978-1.724,17.965-3.404,26.944-5.128
			c1.599-0.307,3.037-0.087,4.489,0.958c7.357,5.293,14.127,11.188,20.08,18.06c4.681,5.404,8.976,11.063,12.73,17.136
			c5.854,9.468,10.287,19.559,13.208,30.307c0.33,1.213,0.663,2.425,1.365,3.663c0.244-0.799,0.519-1.591,0.727-2.399
			c3.844-14.951,10.611-28.464,19.824-40.823c5.105-6.849,10.956-12.983,17.247-18.709c2.967-2.7,6.214-5.079,9.475-7.43
			c1.312-0.945,2.7-1.028,4.117-0.768c5.649,1.038,11.28,2.176,16.923,3.247c5.05,0.96,10.111,1.856,15.159,2.827
			c4.975,0.955,9.935,1.988,14.907,2.949c3.19,0.616,6.389,1.192,9.594,1.727c1.27,0.212,2.365,0.687,2.999,1.808
			c1.026,1.813-0.163,3.886-2.454,4.386c-5.618,1.225-11.148,2.79-16.519,4.824c-10.66,4.035-20.783,9.129-30.18,15.642
			c-2.802,1.941-5.542,3.961-8.313,5.939c-0.254,0.181-0.463,0.391-0.526,0.825c1.479,0.187,2.72-0.619,4.007-1.038
			c5.839-1.904,11.829-3.049,17.888-3.957c3.452-0.517,6.908-0.981,10.381-1.249c5.98-0.46,11.964-0.938,17.977-0.678
			c1.78,0.077,3.159,0.694,4.39,2.017c6.828,7.34,13.706,14.635,20.583,21.93c6.355,6.74,12.73,13.462,19.097,20.191
			c1.209,1.278,1.47,2.672,0.729,3.896c-0.849,1.403-2.108,1.788-3.915,1.124c-7.388-2.715-14.934-4.861-22.694-6.183
			c-5.231-0.89-10.494-1.513-15.813-1.739c-5.626-0.24-11.248-0.195-16.859,0.068c-4.996,0.234-9.979,0.812-14.919,1.632
			c-5.661,0.941-11.294,2.032-16.863,3.452c-18.641,4.753-36.352,11.812-53.104,21.272c-0.79,0.446-1.531,0.98-2.308,1.452
			c-1.437,0.873-2.574,0.922-3.752-0.19c-1.862-1.756-4.139-2.807-6.336-3.975c-8.896-4.725-18.101-8.779-27.556-12.243
			c-7.234-2.65-14.62-4.839-22.096-6.702c-6.312-1.573-12.711-2.761-19.15-3.618c-8.814-1.173-17.679-1.509-26.582-1.191
			c-13.805,0.491-27.136,3.188-40.049,8.048c-1.894,0.713-3.286,0.072-4.099-1.664c-0.499-1.065-0.175-1.915,0.399-2.761
			c0.988-1.453,2.211-2.71,3.472-3.917c2.362-2.261,4.525-4.706,6.756-7.092c4.614-4.936,9.343-9.763,13.988-14.67
			c4.437-4.687,8.82-9.424,13.241-14.126c1.092-1.161,2.291-2.225,3.351-3.413c0.988-1.107,2.171-1.521,3.618-1.589
			c3.957-0.187,7.898,0.06,11.847,0.216c4.78,0.19,9.548,0.617,14.27,1.278c7.109,0.996,14.194,2.232,21.019,4.594
			C196.385,293.26,197.249,293.484,198.103,293.739z"/>
		<path fill-rule="evenodd" clip-rule="evenodd" fill="#273445" d="M152.266,343.662c12.34,0.292,20.868,1.143,29.31,2.627
			c14.841,2.61,29.215,6.896,43.162,12.598c8.622,3.524,17.05,7.466,25.125,12.123c1.053,0.606,1.793,0.624,2.875,0.012
			c10.226-5.789,20.88-10.672,31.897-14.75c8.776-3.249,17.722-5.949,26.851-8.033c6.641-1.515,13.342-2.753,20.107-3.436
			c8.375-0.845,16.765-1.504,25.223-0.894c5.68,0.41,11.338,0.892,16.947,1.834c8.134,1.365,16.067,3.503,23.778,6.439
			c0.845,0.321,1.721,0.609,2.175,1.529c0.551,1.117,0.454,2.517-0.316,3.433c-0.964,1.146-2.202,1.23-3.51,0.799
			c-2.436-0.803-4.851-1.668-7.284-2.479c-6.318-2.104-12.813-3.499-19.386-4.45c-7.291-1.055-14.646-1.319-22.016-1.221
			c-4.33,0.058-8.661,0.182-12.953,0.686c-5.33,0.626-10.643,1.393-15.924,2.435c-8.159,1.609-16.176,3.716-24.06,6.311
			c-11.22,3.692-22.093,8.241-32.548,13.755c-2.813,1.484-5.597,3.031-8.34,4.642c-1.395,0.818-2.641,0.855-4.034,0.035
			c-15.127-8.9-31.177-15.624-48.013-20.568c-8.14-2.392-16.383-4.269-24.743-5.575c-9.306-1.454-18.691-1.88-28.124-1.675
			c-7.913,0.171-15.725,1.071-23.439,2.681c-5.676,1.185-11.283,2.737-16.71,4.848c-0.769,0.299-1.552,0.624-2.358,0.749
			c-1.645,0.256-2.752-0.453-3.187-1.884c-0.456-1.503,0.081-3.029,1.457-3.664c1.362-0.629,2.785-1.141,4.21-1.617
			c7.971-2.666,16.093-4.639,24.438-5.794C140.571,344.092,148.284,343.714,152.266,343.662z"/>
		<path fill-rule="evenodd" clip-rule="evenodd" fill="#FDBD68" d="M218.045,177.278c0.014-18.93,15.102-33.978,34.052-33.961
			c18.879,0.017,34.03,15.196,33.998,34.061c-0.032,18.859-15.228,34.002-34.099,33.981
			C233.105,211.339,218.031,196.207,218.045,177.278z"/>
		<path fill-rule="evenodd" clip-rule="evenodd" fill="#FDBD69" d="M260.134,344.771c0.057-0.824,0.679-1.425,1.088-2.085
			c5.007-8.077,10.363-15.921,16.733-22.987c10.459-11.602,23.375-19.267,38.549-22.901c7.88-1.889,15.914-2.987,24.034-3.477
			c4.099-0.247,8.189-0.315,12.286-0.405c1.331-0.029,2.234,0.414,3.142,1.381c8.418,8.975,16.884,17.902,25.339,26.841
			c1.306,1.38,2.639,2.732,3.938,4.118c0.28,0.299,0.8,0.501,0.58,1.198c-3.149-0.723-6.287-1.522-9.468-2.137
			c-6.04-1.167-12.127-1.929-18.259-2.214c-7.895-0.368-15.796-0.291-23.667,0.484c-8.299,0.817-16.507,2.216-24.624,4.15
			c-16.963,4.041-33.185,10.096-48.761,17.909C260.796,344.771,260.565,345.037,260.134,344.771z"/>
		<path fill-rule="evenodd" clip-rule="evenodd" fill="#FDBD69" d="M242.689,344.758c-17.421-8.688-35.384-15.205-54.269-19.184
			c-14.193-2.99-28.514-4.155-42.977-3.47c-9.254,0.438-18.396,1.779-27.333,4.318c-0.132,0.037-0.284,0.005-0.435,0.005
			c-0.31-0.604,0.271-0.789,0.534-1.067c9.702-10.274,19.434-20.522,29.106-30.825c1.079-1.149,2.17-1.622,3.744-1.627
			c13.186-0.043,26.228,1.247,38.954,4.727c12.383,3.387,23.253,9.608,32.271,18.816c3.665,3.742,6.805,7.962,9.933,12.165
			c3.583,4.813,6.94,9.783,10.06,14.912C242.459,343.828,242.785,344.085,242.689,344.758z"/>
		<path fill-rule="evenodd" clip-rule="evenodd" fill="#FDBD69" d="M345.542,263.908c-3.219,1.571-6.483,2.713-9.674,4.053
			c-13.388,5.624-25.638,13.118-36.914,22.247c-16.751,13.561-30.535,29.726-42.123,47.828c-0.53,0.828-1.043,1.668-1.569,2.499
			c-0.035,0.055-0.119,0.08-0.477,0.309c0.143-2.072,0.192-3.956,0.414-5.819c0.778-6.552,2.015-13.004,3.879-19.354
			c3.279-11.166,8.259-21.499,14.804-31.086c7.251-10.62,15.943-19.882,26.268-27.592c1.295-0.967,2.468-1.321,4.158-0.987
			c11.356,2.249,22.743,4.345,34.118,6.499C340.802,262.954,343.17,263.439,345.542,263.908z"/>
		<path fill-rule="evenodd" clip-rule="evenodd" fill="#FDBD69" d="M157.416,263.902c7.181-1.372,14.309-2.739,21.437-4.097
			c6.688-1.274,13.388-2.494,20.059-3.85c1.318-0.268,2.3-0.12,3.374,0.664c7.708,5.634,14.479,12.245,20.527,19.608
			c9.953,12.116,17.228,25.654,21.467,40.777c1.802,6.428,3.099,12.956,3.587,19.631c0.076,1.031,0.235,2.057,0.356,3.092
			c-0.74,0.064-0.813-0.485-1.039-0.841c-5.178-8.144-10.635-16.091-17.068-23.307c-12.782-14.337-26.639-27.45-43.174-37.472
			c-9.043-5.48-18.525-10.027-28.542-13.441C158.064,264.554,157.612,264.646,157.416,263.902z"/>
	</g>
</g>
</svg>
