<?xml version="1.0" encoding="utf-8"?>
<!-- Generator: Adobe Illustrator 16.0.0, SVG Export Plug-In . SVG Version: 6.00 Build 0)  -->
<!DOCTYPE svg PUBLIC "-//W3C//DTD SVG 1.1//EN" "http://www.w3.org/Graphics/SVG/1.1/DTD/svg11.dtd">
<svg version="1.1" id="Layer_1" xmlns="http://www.w3.org/2000/svg" xmlns:xlink="http://www.w3.org/1999/xlink" x="0px" y="0px"
	 width="500px" height="500px" viewBox="0 0 500 500" enable-background="new 0 0 500 500" xml:space="preserve">
<g>
	<g>
		<path fill-rule="evenodd" clip-rule="evenodd" fill="#FFFFFF" d="M1.577,500.456c0-166.293,0-332.586,0-498.879
			c166.293,0,332.586,0,498.879,0c0,166.293,0,332.586,0,498.879C334.163,500.456,167.87,500.456,1.577,500.456z"/>
		<path fill-rule="evenodd" clip-rule="evenodd" fill="#DCDBDB" d="M249.714,483.818c-63.052-1.122-118.678-23.662-163.963-69.713
			c-44.727-45.482-66.362-100.809-66.842-164.501C20.234,186.582,42.92,132.48,86.743,87.209
			c46.621-45.306,102.411-68.134,167.445-68.301c64.378,1.757,119.737,24.932,164.421,71.391
			c43.991,45.739,65.765,100.94,64.889,164.517c-0.862,62.561-24.284,115.919-67.599,160.772
			C370.039,460.194,315.17,482.973,249.714,483.818z"/>
		<path fill-rule="evenodd" clip-rule="evenodd" fill="#273445" d="M132.347,256.937c0-48.559,0-97.117,0-145.675
			c0-0.912,0.052-1.827-0.005-2.735c-0.387-6.122,4.46-12.108,12.013-12.059c8.587,0.056,17.174,0.012,25.761,0.011
			c2.97,0,2.967,0,2.972-3.019c0.002-1.592,0.056-3.16,0.383-4.748c1.003-4.857,4.236-7.598,8.632-9.11
			c2.943-1.012,6.023-1.397,9.185-1.394c40.047,0.044,80.095,0.042,120.142,0.001c3.083-0.003,6.07,0.399,8.968,1.329
			c5.6,1.796,9.073,5.799,9.156,11.884c0.018,1.292,0.049,2.585-0.006,3.875c-0.04,0.917,0.367,1.224,1.211,1.183
			c0.531-0.026,1.063-0.002,1.596-0.002c8.739,0,17.479-0.039,26.217,0.018c4.914,0.032,8.582,2.237,10.778,6.699
			c0.713,1.448,1.018,3.016,1.081,4.625c0.027,0.683,0.011,1.368,0.011,2.052c0.001,98.029,0.001,196.058-0.004,294.086
			c0,1.364,0.034,2.722-0.248,4.083c-1.111,5.356-5.403,9.085-10.873,9.355c-0.758,0.038-1.52,0.015-2.279,0.015
			c-70.444,0.001-140.888,0.001-211.333-0.001c-1.441,0-2.874,0.018-4.306-0.299c-5.245-1.159-8.867-5.468-9.035-10.852
			c-0.033-1.063-0.017-2.128-0.017-3.191C132.347,354.357,132.347,305.646,132.347,256.937z"/>
		<path fill-rule="evenodd" clip-rule="evenodd" fill="#DCDBDB" d="M146.601,256.714c0-47.643-0.003-95.286,0.008-142.929
			c0-3.282-0.496-2.929,2.86-2.938c7.294-0.019,14.589-0.013,21.884,0c1.699,0.003,1.7,0.033,1.734,1.765
			c0.038,1.892-0.006,3.766,0.38,5.66c0.972,4.775,4.132,7.514,8.41,9.05c2.92,1.048,6.007,1.466,9.172,1.463
			c40.197-0.043,80.394-0.042,120.59-0.001c3.086,0.003,6.084-0.413,8.957-1.386c5.494-1.86,8.848-5.726,8.959-11.804
			c0.021-1.215,0.022-2.432,0.005-3.647c-0.012-0.764,0.338-1.102,1.09-1.101c8.131,0.004,16.261,0.007,24.392-0.002
			c0.793-0.001,1.074,0.381,1.051,1.118c-0.017,0.531,0.007,1.063,0.007,1.596c0,95.59,0.001,191.181-0.004,286.771
			c-0.001,3.067,0.342,2.741-2.854,2.741c-67.932,0.006-135.864,0.006-203.795-0.001c-3.332,0-2.836,0.323-2.837-2.969
			C146.597,352.305,146.601,304.51,146.601,256.714z"/>
		<path fill-rule="evenodd" clip-rule="evenodd" fill="#FDBD69" d="M251.473,121.863c-20.444,0-40.887-0.004-61.331,0.004
			c-2.302,0-4.542-0.257-6.654-1.253c-2.348-1.108-3.571-2.805-3.538-5.544c0.093-7.751,0.086-15.504,0.003-23.255
			c-0.029-2.646,1.188-4.283,3.424-5.388c1.737-0.858,3.597-1.175,5.504-1.285c0.606-0.035,1.215-0.014,1.823-0.014
			c40.432,0,80.864,0.002,121.295-0.007c2.062,0,4.094,0.11,6.068,0.774c1.019,0.343,1.97,0.805,2.799,1.489
			c1.17,0.965,1.814,2.14,1.807,3.74c-0.042,8.208-0.055,16.416,0.006,24.624c0.016,2.104-1.006,3.436-2.647,4.44
			c-2.001,1.223-4.238,1.628-6.544,1.661c-2.508,0.037-5.017,0.013-7.524,0.013C287.801,121.864,269.637,121.863,251.473,121.863z"
			/>
		<path fill-rule="evenodd" clip-rule="evenodd" fill="#2B3748" d="M286.971,158.343c3.72,1.271,4.847,3.683,3.456,7.211
			c-2.813,7.135-5.084,14.464-7.688,21.675c-0.361,1-0.683,2.015-1.074,3.002c-0.777,1.959-2.16,3.048-4.354,3.013
			c-2.051-0.034-4.103,0.012-6.153,0.012c-10.711,0.001-21.422-0.001-32.133-0.002c-0.456,0-0.912,0.004-1.367,0.007
			c-1.074,0.008-1.474,0.563-1.378,1.606c0.21,2.302,0.367,3.289,3.475,3.275c13.218-0.058,26.436-0.025,39.654-0.026
			c0.456,0,0.912-0.02,1.367-0.001c1.619,0.064,1.793,0.211,1.813,1.882c0.031,2.583,0.024,5.166,0.002,7.749
			c-0.016,1.899-0.154,2.045-2.113,2.049c-7.141,0.012-14.281-0.001-21.422-0.002c-7.368-0.001-14.737,0.001-22.106,0
			c-5.842-0.001-9.927-2.905-11.569-8.657c-1.103-3.86-1.764-7.847-2.616-11.778c-1.72-7.938-3.437-15.875-5.155-23.813
			c-0.112-0.519-0.243-1.035-0.337-1.558c-0.466-2.589-0.481-2.612-3.014-2.627c-1.443-0.008-2.887-0.019-4.33,0.02
			c-0.92,0.025-1.419-0.273-1.412-1.281c0.021-3.039,0.018-6.077-0.006-9.116c-0.007-0.917,0.451-1.14,1.272-1.137
			c5.317,0.019,10.635,0.026,15.953-0.005c1.164-0.007,1.54,0.519,1.717,1.609c0.34,2.088,0.526,4.218,1.293,6.221
			c3.991,0.502,7.986,0.606,11.964-0.069c0.543-0.092,1.008-0.054,1.532-0.015c3.93,0.294,7.871,0.569,11.779-0.171
			c1.043-0.198,1.946,0.307,2.899,0.306c3.704-0.004,7.425,0.521,11.109-0.315c1.444-0.327,2.681,0.662,4.16,0.653
			C277.115,158.027,282.058,157.654,286.971,158.343z"/>
		<path fill-rule="evenodd" clip-rule="evenodd" fill="#273445" d="M214.286,247.874c16.935,0,33.871,0,50.806,0
			c0.38,0,0.76-0.002,1.14,0c2.23,0.014,2.228-0.307,2.221,2.21c-0.005,1.519-0.033,3.039,0.009,4.556
			c0.025,0.929-0.241,1.453-1.276,1.349c-0.451-0.046-0.91-0.006-1.366-0.006c-34.327,0-68.653,0-102.979,0
			c-0.152,0-0.304,0.001-0.456,0c-2.23-0.015-2.228,0.306-2.221-2.211c0.004-1.519,0.033-3.039-0.009-4.556
			c-0.026-0.929,0.241-1.449,1.276-1.35c0.527,0.05,1.063,0.007,1.594,0.007C180.111,247.874,197.199,247.874,214.286,247.874z"/>
		<path fill-rule="evenodd" clip-rule="evenodd" fill="#273445" d="M214.295,342.725c16.936,0,33.871,0,50.806,0
			c0.455,0,0.911-0.004,1.367,0.001c1.957,0.021,1.965,0.021,1.979,1.991c0.013,1.595-0.03,3.19,0.013,4.784
			c0.025,0.938-0.261,1.442-1.286,1.34c-0.45-0.046-0.91-0.007-1.366-0.007c-34.326,0-68.652,0-102.979,0
			c-0.228,0-0.456,0.002-0.683,0c-1.957-0.021-1.965-0.021-1.98-1.992c-0.012-1.595,0.03-3.19-0.013-4.784
			c-0.025-0.938,0.261-1.438,1.286-1.34c0.527,0.05,1.062,0.007,1.594,0.007C180.121,342.725,197.208,342.725,214.295,342.725z"/>
		<path fill-rule="evenodd" clip-rule="evenodd" fill="#273445" d="M214.557,303.052c17.011,0,34.022,0,51.034,0
			c0.531,0,1.064,0.028,1.594-0.005c0.816-0.052,1.287,0.187,1.271,1.119c-0.033,1.974-0.022,3.948-0.006,5.923
			c0.006,0.758-0.301,1.118-1.08,1.074c-0.53-0.029-1.063-0.002-1.595-0.002c-34.326,0-68.652,0-102.979,0
			c-0.456,0-0.914-0.027-1.367,0.004c-0.816,0.056-1.287-0.186-1.271-1.118c0.033-1.975,0.022-3.949,0.005-5.924
			c-0.006-0.757,0.301-1.114,1.08-1.074c0.606,0.031,1.215,0.003,1.822,0.003C180.23,303.052,197.394,303.052,214.557,303.052z"/>
		<path fill-rule="evenodd" clip-rule="evenodd" fill="#273445" d="M214.279,360.966c17.011,0,34.022,0,51.034,0
			c0.304,0,0.607-0.002,0.911,0c2.236,0.015,2.235-0.311,2.229,2.203c-0.004,1.442-0.047,2.888,0.013,4.328
			c0.047,1.109-0.219,1.777-1.501,1.585c-0.372-0.055-0.759-0.008-1.139-0.008c-34.326,0-68.652,0-102.979,0
			c-0.152,0-0.304,0.001-0.456,0c-2.234-0.016-2.235,0.313-2.228-2.203c0.004-1.442,0.047-2.888-0.014-4.328
			c-0.046-1.108,0.218-1.767,1.502-1.589c0.521,0.072,1.062,0.012,1.593,0.012C180.256,360.965,197.268,360.966,214.279,360.966z"/>
		<path fill-rule="evenodd" clip-rule="evenodd" fill="#273445" d="M214.214,387.468c-17.163,0-34.325,0.005-51.488-0.005
			c-2.871-0.002-2.534,0.338-2.56-2.53c-0.013-1.442,0.021-2.886-0.005-4.328c-0.014-0.75,0.242-1.143,1.044-1.096
			c0.53,0.03,1.063,0.001,1.594,0.001c34.325-0.001,68.65-0.001,102.976-0.001c0.075,0,0.151,0,0.228,0.001
			c2.735,0.033,2.422-0.31,2.445,2.421c0.013,1.442-0.028,2.887,0.011,4.328c0.022,0.849-0.256,1.278-1.163,1.214
			c-0.604-0.043-1.215-0.005-1.822-0.005C248.387,387.468,231.3,387.468,214.214,387.468z"/>
		<path fill-rule="evenodd" clip-rule="evenodd" fill="#273445" d="M214.167,332.29c-17.163,0-34.325,0.005-51.488-0.005
			c-2.838-0.001-2.486,0.328-2.513-2.576c-0.014-1.443,0.025-2.887-0.006-4.329c-0.017-0.795,0.331-1.091,1.091-1.05
			c0.53,0.029,1.063,0.002,1.594,0.002c34.325-0.001,68.651-0.001,102.976-0.001c0.38,0,0.766,0.045,1.138-0.007
			c1.243-0.172,1.557,0.428,1.51,1.564c-0.072,1.744-0.051,3.493-0.009,5.239c0.021,0.896-0.352,1.227-1.211,1.166
			c-0.528-0.036-1.063-0.004-1.594-0.004C248.493,332.29,231.33,332.29,214.167,332.29z"/>
		<path fill-rule="evenodd" clip-rule="evenodd" fill="#273445" d="M214.068,274.377c-16.935,0-33.869,0-50.804,0
			c-0.456,0-0.911,0.007-1.367-0.002c-1.699-0.033-1.712-0.034-1.729-1.768c-0.017-1.671,0.028-3.342-0.012-5.012
			c-0.022-0.881,0.32-1.245,1.195-1.182c0.529,0.038,1.063,0.004,1.594,0.004c34.249,0,68.499-0.004,102.748,0.007
			c3.162,0.001,2.716-0.422,2.755,2.787c0.018,1.367-0.024,2.734,0.007,4.101c0.019,0.783-0.3,1.106-1.075,1.065
			c-0.606-0.032-1.215-0.002-1.822-0.002C248.394,274.377,231.231,274.377,214.068,274.377z"/>
		<path fill-rule="evenodd" clip-rule="evenodd" fill="#273445" d="M214.079,292.617c-16.858,0-33.717,0-50.576,0
			c-0.456,0-0.911-0.001-1.367,0c-2.103,0.006-1.971,0.099-1.971-1.987c0-1.595,0.031-3.189-0.009-4.783
			c-0.022-0.87,0.299-1.258,1.185-1.192c0.528,0.039,1.063,0.004,1.594,0.004c34.25,0,68.499-0.004,102.748,0.007
			c3.171,0.001,2.727-0.422,2.766,2.777c0.018,1.367-0.023,2.734,0.007,4.101c0.017,0.771-0.277,1.119-1.065,1.076
			c-0.605-0.034-1.215-0.002-1.822-0.002C248.404,292.617,231.241,292.617,214.079,292.617z"/>
		<path fill-rule="evenodd" clip-rule="evenodd" fill="#FDBD69" d="M312.75,389.589c-2.976-3.576-6.064-6.813-9.43-9.761
			c-3.315-2.903-6.913-5.423-11.091-7.256c0.305-0.284,0.492-0.527,0.736-0.676c3.562-2.173,7.122-4.346,10.7-6.489
			c1.663-0.995,1.714-1.23,2.679,0.672c1.781,3.512,3.637,6.984,5.452,10.456c0.767-0.122,0.716-0.762,0.928-1.201
			c4.671-9.689,10.14-18.835,17.968-26.371c1.974-1.899,4.11-3.595,6.438-5.041c0.633-0.394,1.222-0.903,2.187-0.96
			c0.153,1.884-0.192,3.735-0.443,5.538c-0.502,3.603-0.359,7.104,0.819,10.537c0.354,1.03,0.312,1.584-0.847,2.087
			c-2.813,1.225-5.141,3.211-7.344,5.305c-7.021,6.67-13.109,14.101-18.116,22.404C313.272,389.022,313.1,389.178,312.75,389.589z"
			/>
		<path fill-rule="evenodd" clip-rule="evenodd" fill="#FDBD69" d="M292.336,337.04c0.401-0.84,1.205-1.011,1.831-1.397
			c3.226-1.994,6.458-3.977,9.712-5.926c1.498-0.897,1.563-0.88,2.353,0.615c1.735,3.285,3.423,6.597,5.136,9.895
			c0.137,0.265,0.313,0.509,0.461,0.747c0.729-0.147,0.69-0.778,0.905-1.224c4.668-9.689,10.14-18.832,17.971-26.366
			c1.974-1.898,4.114-3.588,6.437-5.043c0.635-0.397,1.254-0.833,2.266-1.05c-0.169,1.984-0.207,3.843-0.508,5.657
			c-0.581,3.513-0.346,6.938,0.699,10.327c0.497,1.611,0.483,1.618-0.986,2.353c-2.675,1.338-4.975,3.202-7.121,5.243
			c-7.019,6.671-13.105,14.104-18.112,22.406c-0.114,0.189-0.29,0.342-0.592,0.69C306.839,347.239,300.674,340.809,292.336,337.04z"
			/>
		<path fill-rule="evenodd" clip-rule="evenodd" fill="#FDBD69" d="M312.829,282.684c-5.961-6.944-12.181-13.114-20.731-17.165
			c4.611-2.809,8.85-5.391,13.322-8.116c2.135,4.091,4.223,8.094,6.356,12.183c0.937-0.497,1.068-1.373,1.403-2.071
			c3.363-7.009,7.28-13.673,12.191-19.721c2.932-3.61,6.171-6.909,9.96-9.63c1.159-0.832,2.317-1.692,3.925-2.204
			c0.231,2.006-0.121,3.867-0.384,5.646c-0.523,3.54-0.211,6.949,0.713,10.353c0.432,1.59,0.419,1.563-1.031,2.338
			c-4.216,2.25-7.622,5.493-10.853,8.938C322.183,269.115,317.25,275.455,312.829,282.684z"/>
		<path fill-rule="evenodd" clip-rule="evenodd" fill="#FDBD69" d="M312.663,318.042c-5.787-6.628-11.902-12.935-20.491-16.859
			c4.446-3.084,8.896-5.421,13.205-8.204c2.383,4.063,4.092,8.28,6.499,12.151c0.866-0.569,1.017-1.445,1.368-2.175
			c3.337-6.936,7.216-13.533,12.078-19.523c3.271-4.03,6.901-7.678,11.257-10.549c0.633-0.416,1.308-0.771,1.981-1.119
			c0.182-0.094,0.432-0.055,0.807-0.092c-0.144,1.852-0.139,3.664-0.449,5.422c-0.648,3.68-0.318,7.255,0.819,10.772
			c0.279,0.863,0.231,1.404-0.67,1.828c-4.634,2.178-8.153,5.732-11.602,9.393c-5.385,5.714-10.134,11.907-14.28,18.569
			C313.112,317.773,312.948,317.836,312.663,318.042z"/>
		<path fill-rule="evenodd" clip-rule="evenodd" fill="#2F3B4B" d="M294.188,225.366c0.568,3.076-0.957,5.227-2.87,7.143
			c-1.927,1.93-4.221,2.977-7.067,3.053c-4.753,0.126-10.168-4.472-10.046-10.22c0.123-5.756,4.221-9.704,10.195-9.808
			c2.754-0.048,5.094,0.669,6.97,2.674C293.274,220.242,294.849,222.444,294.188,225.366z"/>
		<path fill-rule="evenodd" clip-rule="evenodd" fill="#303C4C" d="M222.254,215.564c6.066-0.671,10.013,5.25,10.06,9.708
			c0.061,5.707-5.362,10.487-10.241,10.294c-5.585-0.221-9.741-4.464-9.724-10.354C212.367,219.28,216.185,215.562,222.254,215.564z
			"/>
		<path fill-rule="evenodd" clip-rule="evenodd" fill="#786A51" d="M286.971,158.343c-5.302,0.02-10.606,0.141-15.904-0.005
			c-1.493-0.041-2.926-0.159-4.452-0.015c-3.08,0.289-6.207,0.079-9.314,0.09c-0.625,0.002-1.198-0.146-1.749-0.418
			c-0.347-0.171-0.68-0.23-1.083-0.118c-3.869,1.083-7.825,0.449-11.73,0.398c-1.064-0.014-2.098,0.039-3.159,0.078
			c-3.179,0.118-6.365,0.048-9.548,0.039c-0.548-0.001-1.06-0.128-1.287-0.726c3.34,0.006,6.68,0.028,10.019,0.01
			c1.988-0.01,2.078-0.089,2.093-2.039c0.028-3.568,0.001-7.136,0.008-10.704c0.003-1.98,0.041-1.916,1.945-2.754
			c1.243-0.547,2.644-0.706,3.76-1.548c0.341-0.297,0.813-0.11,1.178-0.317c0.089,0.006,0.162-0.025,0.219-0.095
			c0.73-0.513,1.617-0.59,2.433-0.866c1.221-0.4,2.51-0.628,3.575-1.419c0.618-0.459,1.319-0.483,1.939-0.155
			c3.642,1.93,7.685,2.798,11.461,4.371c1.954,0.814,1.984,0.758,1.987,2.951c0.005,3.495-0.02,6.99,0.008,10.485
			c0.016,1.972,0.123,2.077,2.058,2.088c4.026,0.023,8.055-0.018,12.081,0.024C284.683,157.712,285.933,157.511,286.971,158.343z"/>
		<path fill-rule="evenodd" clip-rule="evenodd" fill="#CAC09F" d="M250.399,139.355c-0.746,0.476-1.476,0.995-2.435,0.866
			C248.568,139.346,249.432,139.207,250.399,139.355z"/>
		<path fill-rule="evenodd" clip-rule="evenodd" fill="#CAC09F" d="M247.748,140.315c-0.322,0.374-0.728,0.434-1.18,0.317
			C246.853,140.119,247.297,140.205,247.748,140.315z"/>
		<path fill-rule="evenodd" clip-rule="evenodd" fill="#DAD9D9" d="M232.249,192.022c0.071,2.288,0.635,4.506,0.987,6.751
			c0.317,2.019,1.186,2.709,3.252,2.718c5.846,0.024,11.691,0.01,17.536,0.01c7.439,0,14.879-0.002,22.318-0.001
			c2.72,0,3.564,1.161,2.845,3.864c-0.159,0.597-0.521,0.908-1.111,0.955c-0.453,0.036-0.909,0.038-1.364,0.038
			c-13.285,0-26.57-0.058-39.854,0.038c-3.478,0.025-6.021-1.175-7.679-4.226c-1.332-2.839-1.693-5.946-2.294-8.96
			c-1.283-6.441-2.655-12.865-3.96-19.302c-0.945-4.661-1.896-9.322-2.875-13.977c-0.33-1.57-1.076-2.069-2.461-1.854
			c-1.14,0.177-2.273,0.137-3.408,0.126c-2.204-0.021-2.603-0.462-2.602-2.723c0-2.224,0.43-2.695,2.615-2.719
			c2.507-0.027,5.017,0.056,7.521-0.028c1.693-0.056,2.565,0.727,2.828,2.297c0.237,1.417,0.592,2.813,0.829,4.221
			c0.258,1.537,1,1.979,2.466,1.957c4.102-0.062,8.207-0.069,12.309,0.017c0.784,0.017,2.071-0.467,2.136,1.116
			c-0.525,0.79-1.418,0.789-2.202,1.023c-0.52,0.113-1.053,0.178-1.561,0.353c-0.194,0.078-0.393,0.142-0.592,0.204
			c-0.934,0.244-1.802,0.616-2.533,1.274c-0.275,0.135,0.098,0.073-0.193,0.12c-4.484,0.73-5.541,3.542-5.064,7.684
			c0.328,2.849,0.147,5.769,0.032,8.65c-0.07,1.738,0.639,2.597,2.215,3.185c2.557,0.952,5.129,1.896,7.573,3.121
			c0.604,0.303,1.673,0.531,1.403,1.506c-0.257,0.927-1.244,0.661-1.975,0.667c-1.899,0.017-3.8,0.069-5.695-0.014
			C232.161,190.044,231.778,190.667,232.249,192.022z"/>
		<path fill-rule="evenodd" clip-rule="evenodd" fill="#7A6849" d="M232.249,192.022c-0.536-1.943-0.417-2.17,1.383-2.213
			c1.818-0.044,3.637,0.003,5.455-0.014c0.66-0.007,1.354,0.117,2.141-0.373c-2.222-1.55-4.72-2.144-6.99-3.21
			c-1.163-0.546-2.365-1.007-3.553-1.498c-0.866-0.357-1.226-0.94-1.217-1.926c0.042-4.849,0.035-9.698-0.008-14.547
			c-0.009-1.072,0.384-1.633,1.387-2.024c1.611-0.628,3.394-0.823,4.836-1.881c0.621-0.264,1.271-0.296,1.932-0.249
			c0.208,0.08,0.394,0.197,0.56,0.344c1.866,1.807,4.531,1.83,6.688,2.99c1.031,0.555,2.329,0.627,3.072,1.702
			c-0.547,0.815,0.882,1.612,0.026,2.437c-2.165,0.746-2.932,2.194-2.77,4.513c0.21,3.011,0.035,6.047,0.057,9.072
			c0.018,2.385,0.061,2.145,2.258,1.606c4.015-0.985,5.641-3.205,4.733-7.252c-0.063-0.288,0.015-0.604-0.007-0.905
			c-0.076-1.055,0.564-2.244,0.021-3.115c-0.619-0.991-1.813,0.181-2.735-0.183c-0.289-0.113-0.553-0.228-0.752-0.469
			c0.154-1.212,1.444-0.924,2.041-1.553c0.204-0.107,0.418-0.186,0.639-0.248c1.36-0.076,1.689-0.886,1.745-2.13
			c0.04-0.878-0.46-2.207,1.164-2.382c0.688,3.944,1.158,7.92,0.799,11.911c-0.166,1.844,0.381,2.844,2.065,3.465
			c2.273,0.837,4.474,1.861,6.694,2.829c1.338,0.583,1.99,0.267,1.982-1.274c-0.018-3.483-0.022-6.966,0.002-10.449
			c0.01-1.506-0.661-2.376-2.06-2.873c-2.069-0.735-4.145-1.45-6.228-2.146c-1.086-0.363-2.135-0.785-2.892-1.705
			c-0.187-1.522,0.647-2.138,2.021-2.272c0.965,1.476,2.657,1.623,4.106,2.127c2.37,0.824,4.673,2.006,7.32,1.788
			c-3.403-1.107-6.463-3.214-10.177-3.373c-0.315-0.013-0.561-0.192-0.716-0.481c0.988-1.904,2.602-1.099,4.064-0.949
			c3.817,0.418,7.133,2.458,10.835,3.284c-2.169-0.9-4.394-1.66-6.551-2.583c-0.734-0.314-1.686-0.344-1.953-1.348
			c0.504-0.884,0.993-1.787,2.245-1.652c3.25,2.432,7.134,3.216,10.948,4.3c-0.204-0.816-1.216-0.826-1.333-1.615
			c0.129-0.539,0.566-0.553,0.993-0.585c0.205,0.012,0.408,0.051,0.606,0.106c0.477,0.154,0.974,0.239,1.457,0.375
			c0.19,0.068,0.364,0.167,0.522,0.293c0.429,0.872,1.466,1.34,1.612,2.406c-0.137,0.171-0.297,0.314-0.478,0.438
			c-1.452,0.654-2.124,1.736-2.277,3.363c-0.175,1.856-1.634,3.176-3.427,3.427c-1.411,0.198-2.578-0.095-3.026-1.683
			c-0.152-0.54-0.1-1.364-1.004-1.21c-0.709,0.121-1.199,0.62-1.416,1.337c-0.066,0.22-0.108,0.445-0.112,0.672
			c-0.071,3.947-0.037,7.893-0.02,11.839c0.005,1.162,0.68,1.237,1.521,0.845c3.225-1.501,6.696-2.477,9.657-4.543
			c0.238-0.098,0.449-0.055,0.633,0.125c0.066,1.028-0.916,1.606-1.085,2.534c-2.451,1.844-5.46,2.482-8.631,4.018
			c1.548,0.099,2.67,0.025,3.783,0.083c0.874,0.046,1.849-0.208,2.511,0.665c-3.092,0.32-6.224,1.119-9.125-0.791
			c-1.19-0.784-1.88,0.617-2.879,0.679c-2.607-1.206-5.331-2.14-7.924-3.384c-1.165-0.559-2.361-0.469-3.53,0.021
			c-2.019,0.844-4.03,1.705-6.054,2.608c4.741,0.219,9.465,0.121,14.188,0.177c1.028,0.012,2.15-0.255,3,0.647
			c-0.472,0.565-1.122,0.352-1.699,0.354c-5.149,0.016-10.3,0-15.45,0.016c-1.084,0.003-2.109-0.096-2.989-0.823
			c-0.82-0.677-1.629-0.656-2.444,0.065c-0.791,0.7-1.773,0.766-2.777,0.756c-1.893-0.018-3.791,0.07-5.679-0.031
			C232.647,190.223,232.269,190.884,232.249,192.022z"/>
		<path fill-rule="evenodd" clip-rule="evenodd" fill="#615A58" d="M277.039,165.268c-0.476,0.014-0.952,0.028-1.428,0.042
			c-0.791,0.659-1.561,0.188-2.327-0.054c-2.407-0.76-4.732-1.786-7.231-2.252c-0.571-0.014-0.999,0.244-1.258,0.736
			c-0.23,0.438-0.587,0.633-1.05,0.691c-0.474,0.617-1.491,0.358-1.855,1.151c-0.573,0.127-1.142,0.19-1.708-0.05
			c-1.068-0.455-1.975-0.143-2.778,0.614c-0.119,0.168-0.266,0.197-0.438,0.084c-1.327-0.049-1.471,1.311-2.262,1.9
			c-0.04,0.229-0.171,0.359-0.407,0.375c-0.878,0.572-0.512,1.467-0.527,2.226c-0.058,2.779,0.318,2.778-2.778,2.753
			c-0.242-0.583,0.196-0.976,0.399-1.436c0.183-0.413,0.409-0.878-0.032-1.218c-0.577-0.443-0.942,0.03-1.28,0.436
			c-0.244,0.446-0.372,0.894-0.071,1.36c0.29,0.332,0.723,0.496,1.002,0.84c-0.435,1.127-1.454,0.9-2.33,1.006
			c-0.067-0.076-0.135-0.152-0.204-0.228c-0.362-0.868-0.242-1.786-0.276-2.688c0.011-0.1,0.024-0.2,0.037-0.299
			c-0.143-0.151-0.261-0.339-0.431-0.447c-1.152-0.731-1.147-0.833,0.111-1.529c0.742-0.488,1.61-0.788,2.208-1.492
			c0.462-0.249,0.971-0.287,1.478-0.327c0.466-0.046,0.927-0.118,1.324-0.384c0.613-0.857-0.281-0.675-0.613-0.875
			c-2.643-0.594-5.083-1.744-7.6-2.679c-0.858-0.613-2.098-0.105-2.869-0.97c0.077-0.331,0.421-0.775-0.182-0.895
			c-0.588-0.117-1.207-0.112-1.812-0.114c-3.873-0.01-7.746-0.006-11.618-0.006c-2.719,0-2.774-0.048-3.27-2.632
			c-0.271-1.416-0.566-2.828-0.842-4.243c-0.204-1.044-0.786-1.563-1.892-1.551c-2.809,0.029-5.62-0.019-8.429,0.025
			c-1.444,0.022-1.725,0.34-1.832,1.721c-0.029,0.378-0.026,0.76-0.005,1.139c0.083,1.466,0.318,1.755,1.733,1.808
			c1.211,0.045,2.428-0.015,3.642-0.055c2.373-0.078,2.618,0.109,3.076,2.329c2.588,12.557,5.179,25.113,7.777,37.668
			c0.306,1.479,0.658,2.949,0.988,4.422c-1.407-1.275-1.387-3.141-1.781-4.76c-0.945-3.883-1.604-7.834-2.391-11.756
			c-1.219-6.073-2.43-12.147-3.679-18.213c-0.548-2.663-1.223-5.3-1.754-7.966c-0.184-0.923-0.721-1.032-1.458-1.028
			c-1.595,0.007-3.19,0.035-4.784-0.007c-1.618-0.043-1.953-0.317-1.983-1.807c-0.093-4.485-0.118-4.126,3.789-4.11
			c2.278,0.009,4.556-0.018,6.834,0.008c1.877,0.021,2.854,0.797,2.992,2.663c0.103,1.384,0.546,2.663,0.783,3.992
			c0.252,1.418,0.983,1.608,2.196,1.585c3.264-0.062,6.531,0.006,9.795-0.033c1.83-0.022,3.634,0.045,5.393,0.616
			c0.35,0.114,0.772,0.253,1.096,0.158c2.24-0.658,4.534-0.428,6.787-0.33c2.971,0.129,5.885-0.473,8.837-0.426
			c1.737,0.027,3.471-0.1,5.199,0.362c0.852,0.227,1.831,0.169,2.719,0.029c5.362-0.849,10.755-0.21,16.13-0.368
			c0.887-0.026,1.814,0.208,2.668,0.49c1.227,0.404,1.453,1.221,0.872,2.593c-1.1-1.364-2.558-1.628-4.237-1.619
			c-4.19,0.023-8.385,0.158-12.334-0.077c1.448,0.396,3.052,1.061,4.679,1.652C276.223,164.06,277.04,164.277,277.039,165.268z"/>
		<path fill-rule="evenodd" clip-rule="evenodd" fill="#D5D4D5" d="M277.039,165.268c-1.205-1.157-2.895-1.172-4.318-1.819
			c-1.147-0.522-2.367-0.887-3.726-1.384c0.513-0.655,1.066-0.509,1.52-0.51c4.677-0.021,9.354-0.042,14.03-0.007
			c2.167,0.016,2.409,0.266,2.896,2.311c-1.989,4.658-3.545,9.468-5.017,14.308c-1.218-0.459-1.027-1.556-1.051-2.488
			c-0.053-2.188-0.039-4.377-0.006-6.56c0.499-2.14-1.285-2.49-2.554-3.244l-0.119-0.066c-0.401-0.677-1.252,0.019-1.688-0.551
			L277.039,165.268z"/>
		<path fill-rule="evenodd" clip-rule="evenodd" fill="#C3C3C6" d="M277.35,190.002c-1.729-0.282-3.471-0.058-5.204-0.142
			c-0.727-0.035-1.513,0.167-2.349-0.593c3.325-1.557,6.495-3.055,9.891-4.03c-0.152,0.705-0.305,1.412-0.457,2.118
			c-0.288,0.288-0.098,0.715-0.3,1.027C278.509,189.024,277.987,189.57,277.35,190.002z"/>
		<path fill-rule="evenodd" clip-rule="evenodd" fill="#7A6849" d="M281.87,168.48c0.033,2.348,0.055,4.695,0.104,7.042
			c0.02,0.898-0.12,1.833,0.449,2.642c-0.846,1.406-1.36,2.931-1.653,4.537c-0.071-0.054-0.145-0.109-0.217-0.163
			c-0.485-0.544-0.567-1.221-0.578-1.9c-0.062-3.533-0.06-7.066-0.001-10.6c0.012-0.678,0.086-1.356,0.57-1.902l0.146-0.151
			C281.249,167.756,281.569,168.094,281.87,168.48z"/>
		<path fill-rule="evenodd" clip-rule="evenodd" fill="#7A6849" d="M278.931,188.382c-0.085-0.398-0.097-0.775,0.301-1.03
			C279.291,187.744,279.36,188.136,278.931,188.382z"/>
		<path fill-rule="evenodd" clip-rule="evenodd" fill="#DCDBDA" d="M290.238,225.428c-0.026,3.379-2.76,6.036-6.136,5.965
			c-3.178-0.066-5.824-2.841-5.809-6.092c0.016-3.379,2.733-5.989,6.159-5.917C287.716,219.453,290.266,222.117,290.238,225.428z"/>
		<path fill-rule="evenodd" clip-rule="evenodd" fill="#D1D1D1" d="M216.242,225.358c0.001-3.432,2.601-6.014,6.034-5.992
			c3.298,0.021,5.907,2.605,5.95,5.894c0.045,3.34-2.665,6.061-5.965,6.18C219.386,231.543,215.901,228.615,216.242,225.358z"/>
		<path fill-rule="evenodd" clip-rule="evenodd" fill="#D2A544" d="M241.897,150.76c0-1.742-0.041-3.486,0.014-5.227
			c0.037-1.155,0.394-1.357,1.417-0.853c2.447,1.208,5.092,1.867,7.635,2.804c0.566,0.209,1.125,0.445,1.704,0.608
			c1.124,0.316,1.562,1.022,1.525,2.185c-0.061,1.968-0.04,3.939-0.019,5.909c0.01,0.948-0.378,1.376-1.349,1.369
			c-3.183-0.024-6.365-0.023-9.547-0.002c-0.945,0.006-1.391-0.363-1.376-1.338c0.028-1.818,0.008-3.636,0.008-5.455
			C241.905,150.76,241.901,150.76,241.897,150.76z"/>
		<path fill-rule="evenodd" clip-rule="evenodd" fill="#E4BC53" d="M268.262,150.792c0,1.667,0.037,3.335-0.011,5
			c-0.044,1.553-0.226,1.754-1.686,1.772c-3.03,0.036-6.062,0.034-9.092,0c-1.529-0.017-1.75-0.219-1.796-1.684
			c-0.06-1.893-0.051-3.789-0.015-5.682c0.025-1.324,1.992-2.889,3.286-2.688c0.588,0.091,0.649,0.516,0.703,0.992
			c0.098,0.861-0.354,1.918,0.639,2.489c1.023,0.588,1.848-0.286,2.768-0.527c1.665-0.436,1.711-1.639,1.687-3.008
			c-0.031-1.785,0.337-2.268,1.91-2.9c1.089-0.438,1.58-0.166,1.612,1.008c0.047,1.741,0.012,3.485,0.012,5.228
			C268.273,150.792,268.268,150.792,268.262,150.792z"/>
		<path fill-rule="evenodd" clip-rule="evenodd" fill="#ECC75D" d="M254.835,147.1c-1.085,0.044-2.239-0.833-3.557-1.171
			c-1.973-0.506-3.87-1.307-5.801-1.979c-0.49-0.171-1.166-0.246-1.121-0.907c0.046-0.676,0.815-0.529,1.255-0.759
			c0.832-0.435,1.626-0.115,2.413,0.179c2.625,0.982,5.252,1.961,7.874,2.956c0.397,0.151,0.992,0.194,0.932,0.801
			c-0.067,0.669-0.693,0.704-1.2,0.823C255.484,147.077,255.328,147.066,254.835,147.1z"/>
		<path fill-rule="evenodd" clip-rule="evenodd" fill="#EBC65C" d="M266.13,142.859c-0.96,1.244-2.091,1.31-3.153,0.915
			c-3.255-1.208-6.483-2.485-10.017-3.594c0.735-1.047,1.528-1.475,2.568-1.113C259.002,140.278,262.457,141.541,266.13,142.859z"/>
		<path fill-rule="evenodd" clip-rule="evenodd" fill="#CAC09F" d="M261.298,144.815c-0.006,0.435-0.319,0.651-0.705,0.715
			c-0.704,0.118-1.35-0.195-1.981-0.424c-2.637-0.956-5.257-1.956-7.881-2.945c-0.353-0.133-0.711-0.268-1.034-0.458
			c-0.268-0.157-0.47-0.44-0.3-0.754c0.088-0.163,0.342-0.313,0.531-0.327c0.371-0.026,0.776-0.03,1.118,0.093
			c3.209,1.16,6.408,2.347,9.608,3.531C260.927,144.348,261.253,144.401,261.298,144.815z"/>
		<path fill-rule="evenodd" clip-rule="evenodd" fill="#D8CFA6" d="M260.979,148.313c-0.031-1.48,0.412-2.177,1.388-2.207
			c0.981-0.029,1.021,0.665,1.019,1.375c-0.003,1.125-0.668,2.009-1.629,2.056C260.78,149.585,261.092,148.771,260.979,148.313z"/>
		<path fill-rule="evenodd" clip-rule="evenodd" fill="#7A6849" d="M252.039,167.968c-0.696,0.035-1.394,0.069-2.09,0.104
			c-0.54,0.46-1.156,0.35-1.728,0.151c-3.504-1.218-6.989-2.487-10.437-3.856l0.015,0.018c-0.334-0.44,0.079-0.623,0.301-0.871
			c0.105,0.005,0.196-0.03,0.271-0.103c0.313-0.264,0.769-0.061,1.078-0.333c0.791-0.21,1.519-0.706,2.395-0.525
			c1.08,0.152,2.287-0.502,3.234,0.505c-0.383,0.534-1.116,0.306-1.636,0.755c2.236,1.06,4.58,1.693,6.787,2.666
			C250.958,166.801,251.899,166.911,252.039,167.968z"/>
		<path fill-rule="evenodd" clip-rule="evenodd" fill="#CBC29F" d="M238.1,163.513c-0.101,0.291-0.201,0.581-0.301,0.871
			c-0.707-0.016-1.414-0.031-2.118-0.047C236.398,163.798,237.16,163.392,238.1,163.513z"/>
		<path fill-rule="evenodd" clip-rule="evenodd" fill="#CBC29F" d="M239.449,163.078c-0.274,0.391-0.657,0.429-1.08,0.333
			C238.611,162.911,239.025,162.979,239.449,163.078z"/>
		<path fill-rule="evenodd" clip-rule="evenodd" fill="#D3A644" d="M242.791,180.521c0,1.972,0.021,3.945-0.006,5.918
			c-0.024,1.715-0.354,1.967-1.835,1.363c-2.804-1.144-5.572-2.378-8.39-3.486c-1.461-0.574-2.113-1.431-2.065-3.077
			c0.109-3.715,0.015-7.435,0.041-11.152c0.012-1.728,0.284-1.878,1.841-1.31c2.909,1.062,5.8,2.188,8.754,3.107
			c1.387,0.431,1.728,1.187,1.681,2.492C242.736,176.422,242.791,178.473,242.791,180.521z"/>
		<path fill-rule="evenodd" clip-rule="evenodd" fill="#D3A644" d="M254.296,168.505c0.136-0.125,0.271-0.25,0.407-0.375
			c3.316,1.459,6.797,2.464,10.203,3.676c1.159,0.412,1.694,1.027,1.675,2.319c-0.063,4.174-0.004,8.351-0.031,12.526
			c-0.009,1.46-0.263,1.661-1.595,1.135c-3.17-1.253-6.313-2.578-9.454-3.901c-0.749-0.315-1.327-0.91-1.172-1.762
			c0.772-4.244-0.305-8.472-0.059-12.707C254.288,169.112,254.288,168.809,254.296,168.505z"/>
		<path fill-rule="evenodd" clip-rule="evenodd" fill="#E6BE53" d="M280.545,168.137c0.23,4.801,0.116,9.601,0.009,14.402
			c-0.401,0.64-0.768,1.288-1.534,1.609c-3.404,1.427-6.799,2.879-10.095,4.279c-0.736-0.477-0.572-1.049-0.574-1.547
			c-0.012-4.168-0.013-8.337-0.001-12.506c0.005-1.681,1.146-2.884,2.857-3.071c0.45-0.049,0.729,0.155,0.788,0.595
			c0.05,0.374,0.031,0.755,0.062,1.132c0.146,1.796,0.788,2.257,2.492,1.795c1.943-0.526,2.754-1.473,2.815-3.29
			C277.447,169.108,277.876,168.65,280.545,168.137z"/>
		<path fill-rule="evenodd" clip-rule="evenodd" fill="#E7BE53" d="M248.679,174.472c0.987,1.039,1.924,0.302,2.874-0.079
			c1.256-0.504,1.699-0.25,1.596,1.087c-0.222,2.864-0.455,5.72,0.116,8.569c0.131,0.651-0.238,0.995-0.759,1.22
			c-2.288,0.989-4.578,1.97-6.871,2.945c-0.65,0.276-1.043,0.029-1.068-0.665c-0.034-0.906-0.004-1.815-0.004-2.723
			c0-3.253-0.006-6.505-0.001-9.758c0.006-3.313-0.215-2.302,2.562-3.698c0.312-0.157,0.739-0.083,1.113-0.116
			c0,0,0.011-0.027,0.011-0.027c0.642,1.002-0.094,2.196,0.449,3.212L248.679,174.472z"/>
		<path fill-rule="evenodd" clip-rule="evenodd" fill="#CACACC" d="M265.025,189.958c-5.465-0.037-10.929-0.062-16.393-0.127
			c-0.788-0.009-1.682,0.304-2.471-0.588c2.925-1.569,5.983-2.663,8.997-3.849c0.482-0.189,1.05-0.086,1.56,0.133
			c2.714,1.169,5.423,2.351,8.154,3.479c0.489,0.202,0.403,0.544,0.472,0.884c0.002,0-0.169-0.019-0.169-0.019L265.025,189.958z"/>
		<path fill-rule="evenodd" clip-rule="evenodd" fill="#EEC85D" d="M232.958,166.767c0.919-0.606,1.875-1.157,3.073-0.723
			c3.123,1.132,6.238,2.285,9.354,3.437c0.209,0.077,0.448,0.208,0.362,0.483c-0.061,0.197-0.184,0.437-0.35,0.527
			c-0.916,0.5-1.924,0.513-2.865,0.2c-2.938-0.975-5.851-2.026-8.772-3.052C233.393,167.51,233.087,167.301,232.958,166.767z"/>
		<path fill-rule="evenodd" clip-rule="evenodd" fill="#EBC65D" d="M256.965,166.23c0.154,0.019,0.301-0.009,0.438-0.084
			c1.7-0.39,3.207,0.097,4.772,0.784c2.142,0.941,4.4,1.616,6.608,2.405c0.344,0.123,0.799,0.166,0.747,0.675
			c-0.044,0.428-0.413,0.615-0.784,0.707c-0.901,0.223-1.785,0.174-2.678-0.139c-2.712-0.949-5.439-1.854-8.154-2.794
			C257.2,167.536,256.356,167.312,256.965,166.23z"/>
		<path fill-rule="evenodd" clip-rule="evenodd" fill="#E8C45B" d="M266.053,163.003c1.016-0.303,1.933-0.341,3.012,0.103
			c2.124,0.874,4.266,1.769,6.547,2.204c0.54,0.6,1.268,0.784,2.02,0.924c0.305,0.057,0.613,0.187,0.612,0.549
			c0,0.319-0.243,0.525-0.509,0.691c-0.694,0.436-1.396,0.463-2.167,0.173c-2.978-1.117-5.961-2.22-8.956-3.287
			C265.844,164.086,265.688,163.683,266.053,163.003z"/>
		<path fill-rule="evenodd" clip-rule="evenodd" fill="#CBC29F" d="M237.784,164.366c1.337-0.269,2.495,0.337,3.69,0.759
			c2.821,0.995,5.54,2.284,8.476,2.946c0.107,1.722-1.102,1.233-2.033,1.21c-2.656-1.199-5.406-2.154-8.15-3.124
			C238.864,165.837,237.817,165.657,237.784,164.366z"/>
		<path fill-rule="evenodd" clip-rule="evenodd" fill="#D3C8A1" d="M261.89,165.582c-0.425-0.821-0.228-1.29,0.748-1.273
			c0.369,0.006,0.737,0.079,1.106,0.122c2.252,1.071,4.62,1.843,6.957,2.695c0.851,0.311,1.696,0.638,2.545,0.956
			c0.311,0.116,0.528,0.326,0.438,0.666c-0.081,0.309-0.353,0.522-0.66,0.55c-0.938,0.088-1.756-0.355-2.604-0.66
			C267.577,167.617,264.733,166.6,261.89,165.582z"/>
		<path fill-rule="evenodd" clip-rule="evenodd" fill="#CCC29D" d="M276.028,171.27c-0.005,1.263-0.89,2.248-1.893,2.142
			c-0.863-0.091-0.762-0.791-0.767-1.375c-0.012-1.33,0.728-2.286,1.707-2.192C276.008,169.934,275.998,170.669,276.028,171.27z"/>
		<path fill-rule="evenodd" clip-rule="evenodd" fill="#615A58" d="M281.87,168.48c-0.394-0.165-0.787-0.329-1.18-0.494
			c-0.998-0.374-1.486-1.201-1.877-2.113c0.548-0.141,1.031,0.142,1.528,0.268C281.929,166.544,281.924,166.563,281.87,168.48z"/>
		<path fill-rule="evenodd" clip-rule="evenodd" fill="#615A58" d="M277.006,165.257c0.646-0.073,1.285-0.12,1.688,0.551
			C278.119,165.663,277.41,165.927,277.006,165.257z"/>
		<path fill-rule="evenodd" clip-rule="evenodd" fill="#EAC65C" d="M252.039,167.968c-2.652-1.488-5.606-2.22-8.395-3.366
			c-0.555-0.229-1.627-0.122-1.451-1.037c0.149-0.774,1.084-0.643,1.758-0.629c0.376,0.008,0.751,0.079,1.126,0.122
			c2.527,0.986,5.038,2.016,7.659,2.738c0.815,0.413,1.251,0.917,0.413,1.727C252.79,167.696,252.487,168.014,252.039,167.968z"/>
		<path fill-rule="evenodd" clip-rule="evenodd" fill="#E2BB53" d="M262.398,161.583c-1.648,1.585-3.722,2.068-5.582,2.978
			c-0.596,0.291-1.087-0.057-1.159-0.681c-0.094-0.803-0.297-1.744,0.723-2.158c0.4-0.163,0.892-0.129,1.342-0.133
			C259.28,161.575,260.84,161.583,262.398,161.583z"/>
		<path fill-rule="evenodd" clip-rule="evenodd" fill="#CBA041" d="M247.792,161.61c1.771,0,3.543-0.049,5.312,0.02
			c0.976,0.038,1.352,0.823,1.107,1.989c-0.208,0.995-0.878,0.885-1.551,0.613c-1.655-0.669-3.296-1.375-4.942-2.066
			C247.743,161.98,247.768,161.795,247.792,161.61z"/>
		<path fill-rule="evenodd" clip-rule="evenodd" fill="#D4C9A1" d="M251.009,173.466c-0.576,0.018-1.151,0.035-1.529-0.523
			c-0.08-0.548-0.062-1.096-0.016-1.645c0.089-0.206,0.16-0.422,0.271-0.615c0.49-0.846,1.291-1.198,2.06-0.64
			c0.753,0.545,0.583,1.491,0.192,2.25c-0.23,0.449-0.658,0.797-0.997,1.191L251.009,173.466z"/>
		<path fill-rule="evenodd" clip-rule="evenodd" fill="#7A6849" d="M253.15,167.522c0.395-0.703,0.023-1.223-0.413-1.728
			c0.584-0.075,1.12,0.098,1.279,0.669C254.192,167.097,253.741,167.413,253.15,167.522z"/>
		<path fill-rule="evenodd" clip-rule="evenodd" fill="#7A6849" d="M248.695,174.441c-0.829-0.976-0.24-2.149-0.449-3.212
			C249.194,172.188,248.604,173.362,248.695,174.441z"/>
		<path fill-rule="evenodd" clip-rule="evenodd" fill="#7A6849" d="M249.463,171.298c0.157,0.547,0.157,1.097,0.017,1.646
			C249.06,172.398,249.082,171.85,249.463,171.298z"/>
	</g>
</g>
</svg>
