<?xml version="1.0" encoding="utf-8"?>
<!-- Generator: Adobe Illustrator 16.0.0, SVG Export Plug-In . SVG Version: 6.00 Build 0)  -->
<!DOCTYPE svg PUBLIC "-//W3C//DTD SVG 1.1//EN" "http://www.w3.org/Graphics/SVG/1.1/DTD/svg11.dtd">
<svg version="1.1" id="Layer_1" xmlns="http://www.w3.org/2000/svg" xmlns:xlink="http://www.w3.org/1999/xlink" x="0px" y="0px"
	 width="500px" height="500px" viewBox="0 0 500 500" enable-background="new 0 0 500 500" xml:space="preserve">
<g>
	<g>
		<path fill-rule="evenodd" clip-rule="evenodd" fill="#FFFFFF" d="M1.577,500.456c0-166.293,0-332.586,0-498.879
			c166.293,0,332.586,0,498.879,0c0,166.293,0,332.586,0,498.879C334.163,500.456,167.87,500.456,1.577,500.456z"/>
		<path fill-rule="evenodd" clip-rule="evenodd" fill="#DCDBDB" d="M256.59,19.358c2.432,0,4.869,0.102,7.295-0.021
			c5.015-0.254,10.005,0.292,14.985,0.583c4.872,0.285,9.747,0.936,14.607,1.583c6.294,0.837,12.504,2.05,18.71,3.325
			c4.666,0.958,9.262,2.202,13.839,3.518c7.502,2.158,14.907,4.627,22.146,7.535c8.73,3.507,17.172,7.636,25.454,12.123
			c7.078,3.834,13.861,8.119,20.487,12.653c5.617,3.843,10.955,8.064,16.229,12.379c7.653,6.261,14.688,13.163,21.482,20.301
			c4.216,4.429,8.16,9.125,11.925,13.973c4.273,5.504,8.444,11.071,12.245,16.907c3.721,5.713,7.141,11.604,10.423,17.587
			c4.533,8.262,8.371,16.83,11.79,25.588c2.946,7.549,5.43,15.262,7.619,23.07c1.838,6.553,3.213,13.212,4.445,19.889
			c0.874,4.737,1.488,9.532,2.063,14.329c0.504,4.198,0.666,8.419,1.198,12.614c0.342,2.694,0.175,5.468,0.058,8.198
			c-0.072,1.697,0.565,3.306,0.455,4.959c-0.332,4.994-0.316,9.997-0.503,14.991c-0.177,4.742-0.714,9.484-1.341,14.193
			c-0.935,7.025-2.046,14.025-3.568,20.958c-1.948,8.876-4.324,17.627-7.304,26.211c-2.284,6.585-4.839,13.06-7.691,19.428
			c-2.175,4.855-4.6,9.58-6.999,14.317c-2.363,4.663-5.104,9.12-7.838,13.577c-3.844,6.267-8.063,12.272-12.551,18.087
			c-3.326,4.309-6.698,8.578-10.386,12.602c-3.841,4.189-7.472,8.588-11.652,12.441c-5.616,5.178-11.206,10.383-17.217,15.134
			c-6.063,4.791-12.271,9.358-18.718,13.606c-9.392,6.189-19.28,11.497-29.46,16.243c-8.518,3.971-17.291,7.333-26.247,10.198
			c-9.008,2.881-18.166,5.21-27.455,6.946c-5.552,1.038-11.139,1.941-16.785,2.447c-3.23,0.289-6.47,0.562-9.687,0.925
			c-4.021,0.455-8.058-0.009-12.027,0.452c-5.161,0.6-10.32,0.482-15.452,0.282c-4.542-0.177-9.091-0.158-13.625-0.413
			c-4.893-0.275-9.788-0.716-14.645-1.366c-6.649-0.892-13.263-2.028-19.845-3.367c-10.257-2.086-20.244-5.094-30.102-8.546
			c-6.435-2.253-12.718-4.898-18.919-7.751c-4.553-2.095-9.013-4.348-13.409-6.744c-4.258-2.32-8.428-4.789-12.563-7.323
			c-6.656-4.079-12.997-8.619-19.144-13.409c-4.53-3.531-8.928-7.234-13.2-11.099c-4.681-4.235-9.077-8.742-13.499-13.223
			c-3.238-3.281-6.167-6.861-9.152-10.384c-4.31-5.085-8.349-10.368-12.125-15.85c-4.598-6.678-8.98-13.49-12.811-20.654
			c-4.08-7.63-7.91-15.359-11.235-23.357c-5.043-12.129-8.975-24.607-11.904-37.384c-1.464-6.385-2.727-12.835-3.429-19.382
			c-0.442-4.123-0.933-8.24-1.36-12.367c-0.978-9.453-1.053-18.929-0.744-28.39c0.162-4.955,0.519-9.938,1.118-14.895
			c0.379-3.138,0.756-6.294,1.116-9.44c0.437-3.817,1.107-7.617,1.876-11.384c2.179-10.678,4.908-21.214,8.525-31.504
			c2.513-7.149,5.361-14.158,8.492-21.065c2.353-5.191,4.949-10.248,7.702-15.222c4.108-7.425,8.642-14.588,13.565-21.514
			c3.42-4.812,7.031-9.471,10.67-14.109c2.006-2.557,4.124-5.051,6.406-7.361c3.627-3.671,6.795-7.796,10.707-11.17
			c3.898-3.363,7.583-6.954,11.497-10.305c8.301-7.108,17.133-13.46,26.3-19.369c4.266-2.75,8.66-5.291,13.128-7.707
			c3.138-1.697,6.262-3.418,9.491-4.932c7.065-3.313,14.227-6.386,21.556-9.094c7.897-2.918,15.945-5.295,24.091-7.353
			c6.657-1.682,13.393-3.003,20.195-4.005c5.378-0.792,10.778-1.296,16.181-1.857C240.239,19.346,248.409,19.361,256.59,19.358z"/>
		<path fill-rule="evenodd" clip-rule="evenodd" fill="#273445" d="M355.91,168.418c3.557,0.973,5.688,3.232,6.517,6.863
			c0.35,1.533-0.034,2.841-0.525,4.196c-3.854,10.628-7.709,21.255-11.571,31.88c-6.507,17.899-13.02,35.795-19.529,53.692
			c-0.182,0.499-0.349,1.005-0.556,1.492c-0.085,0.2-0.325,0.537-0.384,0.515c-1.494-0.558-2.493,0.873-3.975,0.856
			c-11.396-0.134-22.796-0.074-34.194-0.074c-27.203,0-54.407-0.001-81.611,0.008c-0.902,0-1.82-0.145-2.887,0.196
			c0.688,2.474,1.37,4.94,2.062,7.404c0.534,1.899,1.072,3.797,1.626,5.689c0.491,1.679,0.501,1.677,2.327,1.696
			c0.608,0.006,1.216,0.001,1.824,0.001c39.742,0,79.484-0.003,119.226,0.006c3.401,0.001,2.878-0.362,2.887,2.897
			c0.024,8.891,0.01,17.781,0.007,26.672c0,2.106,0.259,2.102-2.109,2.074c-16.185-0.186-32.368-0.364-48.553-0.559
			c-22.946-0.275-45.893-0.551-68.838-0.858c-2.742-0.037-5.464,0.314-8.188,0.324c-11.861,0.043-21.269-4.811-28.162-14.482
			c-3.301-4.633-4.792-9.886-5.564-15.467c-0.561-4.05-1.549-8.043-2.404-12.05c-5.571-26.12-11.159-52.236-16.74-78.354
			c-0.792-3.71-1.576-7.422-2.374-11.131c-0.511-2.376-0.519-2.378-2.879-2.379c-6.307-0.003-12.614,0.002-18.921-0.003
			c-2.35-0.002-2.635-0.222-2.642-2.56c-0.028-9.574-0.019-19.149-0.005-28.724c0.002-1.559,0.044-1.595,1.688-1.596
			c17.097-0.009,34.195,0.006,51.292-0.031c1.249-0.003,1.666,0.404,1.833,1.625c0.802,5.864,1.706,11.714,2.571,17.569
			c0.11,0.749,0.092,1.523,0.478,2.212c0.626,0.412,1.329,0.228,1.997,0.228c10.017,0.008,20.035,0.017,30.051,0.002
			c0.575-0.079,1.096-0.395,1.689-0.391c1.292-0.173,2.593,0.093,3.886-0.092c10.375-0.02,20.748-0.042,31.123-0.004
			c2.641,0.041,5.282,0.042,7.924,0.013c10.524-0.043,21.049-0.041,31.573-0.014c1.292,0.176,2.595-0.034,3.89,0.084
			c0.591,0.005,1.177,0.041,1.733,0.262c0.817,0.27,1.66,0.143,2.489,0.143c16.479,0.008,32.959,0.004,49.438,0.014
			C354.255,168.265,355.099,168.116,355.91,168.418z"/>
		<path fill-rule="evenodd" clip-rule="evenodd" fill="#273445" d="M342.351,386.092c-15.457-0.036-27.967-12.624-27.89-28.065
			c0.076-15.428,12.685-27.839,28.197-27.758c15.348,0.082,27.789,12.604,27.771,27.951
			C370.411,373.653,357.845,386.127,342.351,386.092z"/>
		<path fill-rule="evenodd" clip-rule="evenodd" fill="#273445" d="M167.907,330.269c15.456,0.044,28.034,12.632,27.846,28.082
			c-0.203,16.645-13.907,27.956-28.187,27.768c-15.341-0.203-27.787-12.649-27.759-27.994
			C139.835,342.69,152.411,330.225,167.907,330.269z"/>
		<path fill-rule="evenodd" clip-rule="evenodd" fill="#7D7771" d="M221.347,168.379c-0.457,0.01-0.914,0.02-1.37,0.03
			c-0.124-0.093-0.164-0.184-0.12-0.274c0.043-0.088,0.086-0.132,0.128-0.132l0.002-0.001c0.67-0.69,0.469-1.565,0.47-2.377
			c0.012-10.765-0.006-21.531,0.025-32.296c0.004-1.411-0.383-2.76-0.101-4.246c0.401-2.118,1.674-3.136,3.447-3.809
			c4.017-1.525,8.096-2.882,12.14-4.328c5.619-2.008,11.158-4.247,16.848-6.052c1.527-0.485,3.074-0.887,4.129-2.219
			c0.492-0.622,1.273-0.381,1.87-0.679c1.031,0.002,2.063,0.004,3.094,0.006c0.894,0.162,1.75,0.346,2.363,1.149
			c0.421,0.55,1.097,0.802,1.746,1.022c5.646,1.918,11.262,3.921,16.887,5.899c3.849,1.354,7.659,2.814,11.507,4.174
			c0.853,0.301,1.666,0.695,2.552,0.934c3.314,0.893,4.348,2.108,4.174,5.731c-0.42,8.79-0.152,17.58-0.199,26.369
			c-0.021,3.703-0.292,7.419,0.253,11.112c-0.467-0.013-0.934-0.025-1.4-0.038c-1.031-0.451-1.096-1.403-1.09-2.305
			c0.078-11.351-0.388-22.708,0.251-34.052c0.184-3.245-0.569-4.394-3.783-5.002c-0.596-0.112-1.196-0.192-1.787-0.315
			c-9.813-3.282-19.639-6.538-29.258-10.379c-2.761-1.103-5.498-0.596-8.21,0.246c-2.02,0.235-3.905,1.002-5.858,1.501
			c-1.32,0.338-1.522,1.09-1.392,2.199c-0.934,0.728-2.051,0.359-3.079,0.519c-0.541,0.084-1.095,0.176-1.207,0.823
			c-0.104,0.597,0.239,0.988,0.737,1.286c1.045,0.625,2.111,1.241,3.261,1.607c5.632,1.792,11.063,4.139,16.663,6.016
			c3.084,1.034,5.896,2.83,9.187,3.284c0.521,0.072,1.021,0.36,1.56,0.246c0.839-0.178,1.743-0.497,1.937-1.373
			c0.221-0.993-0.81-1.143-1.461-1.405c-4.568-1.84-9.236-3.416-13.855-5.119c-3.981-1.468-7.976-2.908-11.902-4.514
			c-0.683-0.279-1.93-0.254-1.656-1.623c0.888-0.582,1.778-0.262,2.616,0.068c7.685,3.03,15.535,5.614,23.199,8.696
			c1.06,0.426,2.175,0.671,3.235,1.08c1.283,0.495,2.344,1.307,2.286,2.793c-0.052,1.326,0.619,1.432,1.649,1.516
			c2.868,0.235,3.458,0.924,3.537,3.872c0.017,0.606,0.009,1.213,0.007,1.82c-0.007,3.876-1.482,6.036-5.075,7.432
			c-2.347,0.911-4.522-0.372-4.754-2.924c-0.254-2.795-0.15-5.582,0.996-8.17c-0.768-0.538-1.477-0.307-2.137-0.389
			c-0.737-0.031-1.43-0.232-2.093-0.544c-6.478-2.461-12.988-4.84-19.441-7.368c-1.411-0.553-2.885-0.905-4.31-1.4
			c-2.135-0.742-4.291-1.446-5.917-3.195c-1.801-1.938-2.718-2.001-4.864-0.566c-0.44,0.294-0.819,0.67-1.268,0.957
			c-2.925,1.574-6.2,2.201-9.255,3.435c-0.601,0.109-1.21,0.096-1.81,0.183c-2.247,0.326-3.192,1.284-3.321,3.579
			c-0.14,2.494-0.046,4.994-0.049,7.492c-0.007,8.856,0.008,17.712-0.015,26.568C222.064,166.112,222.296,167.378,221.347,168.379z"
			/>
		<path fill-rule="evenodd" clip-rule="evenodd" fill="#A6A5AB" d="M301.192,168.392c-0.694-0.466-0.892-1.111-0.89-1.942
			c0.022-10.706,0-21.413,0.03-32.119c0.005-1.723,0.517-3.394,0.175-5.184c-0.389-2.035-1.564-2.94-3.396-3.471
			c-4.132-1.198-8.213-2.573-12.139-4.331c-2.093-0.938-4.42-1.068-6.448-2.139c-1.757-0.928-3.651-1.429-5.589-1.796
			c-0.149-0.028-0.326-0.006-0.446-0.08c-2.416-1.485-5.155-2.1-7.817-2.928c-0.575-0.179-1.201-0.465-1.289-1.157
			c-0.116-0.918-1.04-0.768-1.474-1.244c0.756-0.023,1.513-0.055,2.27-0.067c1.091-0.019,2.146-0.035,2.448,1.412
			c0.144,0.688,0.809,0.783,1.444,0.872c1.889,0.266,3.705,0.757,5.259,1.949c0.175,0.134,0.398,0.256,0.611,0.282
			c3.651,0.443,6.813,2.402,10.314,3.322c1.375,0.362,2.799,0.691,3.969,1.614c0.232,0.183,0.53,0.354,0.815,0.39
			c3.515,0.438,6.481,2.473,9.837,3.36c1.313,0.347,2.044,1.123,2.356,2.446c0.263,1.117,0.392,2.224,0.391,3.369
			c-0.015,11.23-0.01,22.459-0.011,33.689c0,0.379-0.003,0.759,0,1.138c0.022,2.21,0.023,2.23,2.291,2.231
			c16.465,0.006,32.931-0.002,49.396,0.019c0.872,0.001,1.829-0.321,2.609,0.391c-11.201,0.016-22.402,0.044-33.604,0.043
			C315.269,168.461,308.23,168.417,301.192,168.392z"/>
		<path fill-rule="evenodd" clip-rule="evenodd" fill="#A8A7AA" d="M258.816,111.995c-0.345,0.428-1.176,0.271-1.293,0.827
			c-0.318,1.507-1.608,1.833-2.707,2.125c-3.375,0.898-6.719,2.017-9.878,3.364c-3.405,1.452-7.164,1.97-10.326,4.018
			c-0.545,0.353-1.313,0.342-1.953,0.571c-1.84,0.656-3.858,0.783-5.517,2.014c-0.571,0.424-1.408,0.565-2.147,0.676
			c-3.121,0.469-4.482,2.271-4.31,5.126c0.394,6.531,0.096,13.057,0.183,19.584c0.07,5.243,0.03,10.487-0.004,15.73
			c-0.004,0.73,0.44,1.774-0.875,1.971c-0.004-11.236-0.028-22.471,0.006-33.706c0.006-1.946-0.484-3.846-0.078-5.85
			c0.348-1.716,1.187-2.769,2.693-3.291c1.569-0.544,3.158-0.958,4.563-1.931c0.728-0.505,1.673-0.659,2.58-0.813
			c1.567-0.268,3.101-0.659,4.451-1.575c1.098-0.746,2.412-0.854,3.661-1.123c0.517-0.112,1.093-0.07,1.522-0.398
			c3.156-2.42,7.346-2.292,10.659-4.34c0.554-0.342,1.293-0.391,1.951-0.557c1.013-0.254,2.123-0.293,2.36-1.705
			c0.095-0.564,0.71-0.748,1.278-0.747C256.695,111.966,257.756,111.984,258.816,111.995z"/>
		<path fill-rule="evenodd" clip-rule="evenodd" fill="#A8A7AA" d="M219.986,168.003c0.024,0.136,0.021,0.271-0.009,0.406
			c-10.394,0.019-20.789,0.039-31.183,0.049c-0.425,0-0.935,0.13-1.16-0.438C198.418,168.015,209.202,168.008,219.986,168.003z"/>
		<path fill-rule="evenodd" clip-rule="evenodd" fill="#DCDBDB" d="M195.299,259.691c2.777,9.779,5.522,19.567,8.348,29.332
			c0.994,3.433,0.199,2.978,3.89,2.979c39.211,0.01,78.422,0.003,117.634,0.012c3.244,0,2.773-0.372,2.8,2.76
			c0.025,3.04-0.033,6.08,0.024,9.119c0.021,1.076-0.303,1.558-1.417,1.448c-0.602-0.06-1.215-0.009-1.822-0.009
			c-38.604,0-77.207-0.073-115.81,0.07c-6.639,0.024-11.866-2.589-16.665-6.689c-0.633-0.542-1.206-1.159-1.775-1.77
			c-1.997-2.141-3.362-4.506-3.99-7.493c-5.646-26.881-11.428-53.733-17.167-80.594c-2.6-12.169-5.193-24.34-7.792-36.51
			c-0.423-1.981-0.43-1.99-2.517-1.992c-6.079-0.006-12.158,0.005-18.238-0.007c-1.833-0.003-1.851-0.027-1.857-1.882
			c-0.013-3.496-0.01-6.991-0.001-10.487c0.005-2.142,0.015-2.155,2.072-2.163c3.192-0.011,6.383-0.003,9.575-0.003
			c7.599,0,15.198-0.001,22.797,0c2.458,0.001,2.435,0.008,2.841,2.359c1.008,5.832,2.086,11.652,3.037,17.493
			c0.307,1.887,0.099,2.044,2.412,2.04c11.17-0.022,22.341-0.031,33.512-0.042c2.507-0.002,5.015,0.007,7.522,0.011
			c0.353,0.175,0.734,0.158,1.112,0.161c0.743,0.006,1.362,0.284,1.654,0.982c0.336,0.803-0.064,1.47-0.574,2.067
			c-0.404,0.472-0.92,0.808-1.506,0.985c-5.505,1.666-10.883,3.708-16.273,5.692c-5.458,2.01-10.979,3.853-16.393,5.99
			c-1.583,0.625-1.574,1.793-1.573,3.125c0.018,15.165-0.008,30.33,0.022,45.493c-0.156,1.215,0.667,1.701,1.555,2.226
			c2.365,1.399,4.986,2.257,7.518,3.188c5.466,2.008,10.552,4.914,16.152,6.591c2.006,0.602,3.649,2.129,5.77,2.582
			c0.492,0.105,0.992,0.541,0.864,1.173c-0.177,0.872-0.942,0.592-1.49,0.593c-7.504,0.017-15.009-0.005-22.513,0.038
			C196.337,258.564,194.994,257.974,195.299,259.691z"/>
		<path fill-rule="evenodd" clip-rule="evenodd" fill="#E6BE53" d="M331.79,235.116c-0.771,2.475-1.39,5.011-2.889,7.193
			c-2.074,1.27-4.349,2.149-6.58,3.048c-6.736,2.717-13.479,5.414-20.044,8.531c-1.172,0.557-2.371,1.273-3.624,0.326
			c-1.244-0.939-1.373-2.303-1.044-3.718c0.175-0.754,0.171-1.509,0.172-2.265c0.016-10.641,0.011-21.281,0.013-31.921
			c0-1.507-0.47-3.002-0.025-4.527c0.215-0.736,0.374-1.469,0.889-2.066c0.225-0.261,7.407-3.419,7.761-3.401
			c1.529,0.078,2.099,1.047,2.18,2.415c0.098,1.669-0.021,3.345,0.065,5.015c0.128,2.445,1.196,3.472,3.608,3.326
			c3.475-0.21,6.237-2.229,9.103-3.885c1.027-0.593,1.035-1.926,1.083-3.101c0.114-2.875-0.344-5.771,0.291-8.63
			c2.108-1.757,4.759-2.494,7.165-3.666c1.372-0.669,2.745,0.775,2.849,2.638c0.088,1.59-0.396,3.132-0.383,4.738
			c0.06,7.73,0.004,15.462,0.041,23.192C332.431,230.64,332.282,232.89,331.79,235.116z"/>
		<path fill-rule="evenodd" clip-rule="evenodd" fill="#D3A644" d="M256.43,168.409c-10.449,0-20.898,0-31.348,0
			c-2.139-0.009-2.088-1.555-2.093-3.023c-0.024-7.441,0.006-14.883-0.017-22.324c-0.009-2.881,0.145-5.767-0.318-8.639
			c-0.212-1.318-0.048-2.63,1.228-3.433c1.225-0.772,2.55-0.635,3.661,0.141c3.837,2.68,8.503,3.136,12.721,4.79
			c5.142,2.015,10.432,3.679,15.636,5.558c1.678,0.605,2.574,1.842,2.594,3.635c0.078,6.985,0.049,13.971,0.018,20.957
			C258.505,167.478,258.012,168.419,256.43,168.409z"/>
		<path fill-rule="evenodd" clip-rule="evenodd" fill="#E4BD53" d="M296.093,168.403c-10.597,0.002-21.193,0.004-31.79,0.006
			c-1.939,0.063-2.588-0.938-2.575-2.796c0.042-6.611-0.021-13.224,0.035-19.835c0.023-2.71,0.724-3.652,3.292-4.524
			c1.454-0.494,2.747-1.292,4.126-1.922c2.82-1.289,4.625-0.21,4.824,2.856c0.099,1.517-0.06,3.044,0.1,4.557
			c0.228,2.159,1.188,3.042,3.343,2.716c3.06-0.463,5.7-2.016,8.171-3.789c1.054-0.756,1.164-2.077,1.189-3.323
			c0.038-1.899-0.005-3.799,0.038-5.699c0.038-1.665,0.751-2.914,2.188-3.746c1.513-0.877,3.024-1.766,4.681-2.346
			c2.788-0.977,4.296-0.001,4.456,2.915c0.109,1.973,0.035,3.951,0.035,5.927c0,8.664,0.015,17.328-0.01,25.992
			C298.191,166.861,298.236,168.408,296.093,168.403z"/>
		<path fill-rule="evenodd" clip-rule="evenodd" fill="#6E614C" d="M296.093,168.403c1.088-0.328,1.441-1.021,1.438-2.183
			c-0.027-10.933,0.016-21.866,0.021-32.799c0.001-2.53-0.884-3.135-3.258-2.392c-1.974,0.617-3.662,1.8-5.482,2.717
			c-0.986,0.497-1.403,1.478-1.347,2.683c0.098,2.046,0.005,4.101,0.096,6.148c0.109,2.468-1.068,4.039-3.258,4.926
			c-1.337,0.542-2.624,1.145-3.869,1.886c-1.112,0.662-2.391,0.909-3.717,0.892c-2.163-0.029-3.193-0.923-3.303-3.125
			c-0.08-1.59-0.14-3.2,0.017-4.779c0.311-3.162-2.004-3.66-3.852-2.565c-1.699,1.007-3.411,1.875-5.36,2.382
			c-1.332,0.347-1.878,1.583-1.852,3.06c0.063,3.567,0.028,7.136,0.03,10.705c0.002,3.265-0.004,6.529,0.003,9.794
			c0.004,1.974,0.012,1.974,1.902,2.658c-2.624,0.153-5.248,0.091-7.873,0c1.04-0.35,1.481-0.976,1.472-2.165
			c-0.056-6.977-0.008-13.954-0.023-20.931c-0.005-2.169-0.609-2.572-2.571-3.385c-3.63-1.505-7.413-2.56-11.099-3.885
			c-3.811-1.372-7.554-3.041-11.576-3.823c-1.494-0.291-2.899-0.862-4.16-1.749c-0.558-0.392-1.092-0.854-1.708-1.116
			c-2.075-0.883-3.721,0.246-3.559,2.202c0.902,10.894,0.208,21.812,0.377,32.717c0.019,1.201,0.473,1.793,1.5,2.136
			c-1.246,0.196-2.49,0.074-3.734-0.029c0.015-12.148,0.142-24.297-0.021-36.443c-0.05-3.745,1.28-5.758,5.544-5.433
			c0.302,0.023,0.607,0.007,0.911,0.009c1.679,2.683,4.39,3.35,7.249,4.079c3.72,0.949,7.245,2.582,10.924,3.737
			c4.322,1.356,8.513,3.115,12.823,4.511c2.721,0.881,5.178-0.492,7.605-1.498c0.638-0.264,0.927-0.983,0.778-1.749
			c-0.157-0.813-0.753-1.03-1.479-1.161c-4.646-0.839-8.822-3.046-13.246-4.518c-4.816-1.602-9.352-3.894-14.191-5.401
			c-0.71-0.221-1.518-0.313-1.828-1.17c0.579-1.214,1.755-1.65,2.874-2.083c1.443-0.559,2.283-0.268,3.259,1.065
			c1.646,2.246,4.154,2.969,6.602,3.716c3.985,1.216,7.78,2.934,11.714,4.282c0.781,0.268,1.524,0.619,2.333,0.85
			c1.736,0.495,3.498,0.94,5,2.083c1.215,0.925,2.875,0.764,4.21,1.46c-0.049,0.058-0.094,0.121-0.148,0.171
			c-0.669,0.615-2.289,0.323-2.06,1.692c0.199,1.189,1.508,0.773,2.327,0.827c0.939,0.062,1.751,1.529,2.64,0.526
			c0.989-1.117-0.955-1.664-0.862-2.709c0.907,0.016,1.821-0.031,2.719,0.071c0.488,0.055,0.851,0.468,0.43,0.976
			c-1.365,1.648-1.358,3.612-1.359,5.582c0,0.834-0.035,1.672,0.016,2.503c0.134,2.166,2.146,3.397,4.033,2.394
			c1.129-0.6,2.156-1.4,3.19-2.163c1.036-0.765,1.568-1.764,1.462-3.128c-0.101-1.282,0.001-2.578-0.019-3.867
			c-0.036-2.354-0.491-2.817-2.77-2.875c-0.304-0.007-0.607,0.015-0.91-0.002c-1.542-0.085-1.565-0.116-1.438-1.719
			c0.105-1.347-0.436-2.172-1.929-2.652c-4.245-1.368-8.329-3.204-12.556-4.569c-3.528-1.139-6.831-2.86-10.438-3.751
			c-0.797-0.197-1.539-0.622-2.304-0.95c-1.186-0.507-2.363-1.042-3.703-0.926l0.001,0.004c-0.166-0.144-0.322-0.303-0.5-0.428
			c-1.036-0.725-1.059-1.153,0.06-1.594c1.53-0.602,3.094-1.146,4.685-1.55c0.856-0.218,1.693-0.644,2.624-0.539
			c0.078,0.22,0.111,0.452,0.01,0.661c-1.337,2.75-1.292,2.62,1.727,3.703c3.494,1.253,7.012,2.471,10.511,3.69
			c3.496,1.22,6.837,2.851,10.405,3.856c1.755,0.495,3.261,1.575,5.068,1.998c4.218,0.987,7.377-0.216,9.66-3.867
			c1.465-0.208,2.83,0.423,4.269,0.515c1.061,0.067,1.688,0.935,2.085,1.884c0.447,1.072,0.693,2.232,0.379,3.338
			c-0.428,1.502-0.339,3.004-0.341,4.514c-0.009,9.792-0.006,19.585-0.001,29.377c0,0.902-0.145,1.833,0.423,2.646
			C298.561,168.478,297.329,168.616,296.093,168.403z"/>
		<path fill-rule="evenodd" clip-rule="evenodd" fill="#DCDBDB" d="M299.82,177.647c4.709-0.027,9.419-0.072,14.129-0.078
			c12.156-0.016,24.313-0.014,36.469-0.019c0.68,0,1.359,0,2.135,0c0.146,0.958-0.332,1.665-0.599,2.401
			c-5.046,13.907-10.105,27.809-15.156,41.713c-0.232,0.641-0.412,1.3-0.616,1.951c-1.419-0.691-1.04-2.038-1.045-3.154
			c-0.036-8.066-0.05-16.132-0.013-24.196c0.071-0.79,0.108-1.583,0.043-2.375c0.119-1.051-0.481-1.339-1.399-1.647
			c-4.208-1.414-8.388-2.917-12.561-4.429c-3.243-1.176-6.428-2.628-9.818-3.39c-3.701-0.831-6.951-2.945-10.702-3.647
			c-0.963-0.18-1.739-0.956-1.98-2.007C298.504,177.89,299.328,177.906,299.82,177.647z"/>
		<path fill-rule="evenodd" clip-rule="evenodd" fill="#6F614B" d="M335.77,195.869c0.004,8.456,0.001,16.911,0.026,25.366
			c0.002,0.798-0.28,1.675,0.387,2.379c-1.277,2.499-1.755,5.313-3.089,7.789c-0.839-0.871-0.664-1.979-0.652-3.02
			c0.105-9.1-0.264-18.203,0.188-27.3c0.056-1.112,0.276-2.379-0.919-3.09c-1.203-0.715-2.315-0.198-3.404,0.448
			c-1.235,0.731-2.434,1.58-3.853,1.915c-1.478,0.35-1.862,1.31-1.857,2.687c0.012,2.806,0.076,5.614-0.039,8.418
			c-0.416,1.514-1.413,2.454-2.893,2.915c-2.028,0.631-3.719,1.996-5.777,2.588c-3.578,1.029-5.374-0.259-5.408-3.995
			c-0.012-1.362,0-2.724-0.004-4.086c-0.003-0.906,0.132-1.932-0.921-2.352c-1.022-0.407-2.1-0.368-2.994,0.395
			c-1.321,1.127-2.839,1.68-4.562,1.711c-1.5,0.17-2.077,1.28-2.696,2.468c-0.885,1.699-2.33,2.012-3.112,0.476
			c-1.777-3.489-5.289-3.915-8.288-4.956c-4.71-1.635-9.428-3.25-14.096-5.004c-0.782-0.294-1.549-0.6-2.387-0.712
			c-0.676-0.09-1.338-0.285-1.983-0.496c-1.027-0.336-2.185-0.764-2.076-2.06c0.127-1.513,1.494-1.168,2.498-1.287
			c3.237-0.041,5.891,1.837,8.837,2.75c5.196,1.61,10.379,3.323,15.39,5.438c3.306,1.395,6.228,0.176,9.273-0.567
			c0.77-0.188,0.958-0.862,0.967-1.615c0.012-1.142-0.743-1.773-1.643-1.875c-2.765-0.315-5.223-1.484-7.761-2.46
			c-4.637-1.782-9.479-3.001-13.883-5.432c-1.966-1.084-4.316-1.34-6.422-2.204c-0.771-0.316-1.599,0.108-2.389,0.448
			c-1.155,0.498-2.366,1.17-3.639,0.226c1.304-1.928,5.161-3.12,7.794-2.23c1.326,0.448,2.611,0.664,3.981,0.502
			c7.048,3.038,14.459,5.109,21.543,8.03c2.737,1.129,5.619,1.951,8.206,3.444c-0.329,0.954-1.228,0.649-1.896,0.851
			c-0.361,0.109-0.776,0.188-0.805,0.646c-0.026,0.416,0.295,0.66,0.633,0.846c0.463,0.255,0.957,0.47,1.465,0.563
			c0.895,0.165,1.753,1.431,2.639,0.492c1.005-1.067-0.525-1.62-0.828-2.441c-0.077-0.21,0.102-0.412,0.304-0.54
			c2.12-0.178,2.678,0.262,2.581,2.224c-0.071,1.435-0.581,2.819-0.727,4.24c-0.159,1.564-0.35,3.291,1.161,4.362
			c1.188,0.844,3.659,0.066,5.159-1.301c1.021-0.929,1.56-1.96,1.479-3.377c-0.121-2.162,0.348-4.396-0.91-6.392
			c0.145-0.953,0.898-0.544,1.419-0.608c0.6-0.074,1.015-0.353,1.073-0.95c0.063-0.646-0.43-0.897-0.956-1.067
			c-0.5-0.162-1.009-0.3-1.529-0.362c-0.717-0.084-1.593-0.525-2.07,0.283c-0.59,0.999,0.479,1.203,1.017,1.633
			c0.328,0.264,0.496,0.551,0.127,0.916c-2.553,0.537-2.947,0.337-3.239-2.126c-0.137-1.151-0.819-1.508-1.716-1.809
			c-7.87-2.646-15.612-5.645-23.419-8.467c-1.109-0.401-2.371-0.598-3.081-1.737c0.301-1.142,0.413-2.374,1.484-3.154
			c0.66-0.215,1.173,0.058,1.637,0.492c1.772,2.436,4.704,2.647,7.201,3.521c6.835,2.391,13.674,4.756,20.302,7.681
			c3.81,1.681,7.195,1.177,10.194-1.738c0.866-0.803,1.712-1.643,3.017-1.63c1.695,0.047,3.156,0.799,4.692,1.416
			C335.537,194.393,335.555,195.114,335.77,195.869z"/>
		<path fill-rule="evenodd" clip-rule="evenodd" fill="#7A736C" d="M188.578,242.308c-0.01-13.742-0.021-27.483-0.027-41.226
			c-0.001-2.049,0.013-4.099,0.025-6.148c0.006-1.011,0.375-1.516,1.476-1.901c2.123-0.744,4.38-1.119,6.345-2.401
			c1.105-0.721,2.524-1.005,3.887-1.203c1.135-0.165,2.27-0.432,3.193-1.115c1.011-0.749,2.126-1.146,3.322-1.394
			c1.793-0.37,3.508-0.931,5.108-1.849c0.992-0.569,2.105-0.84,3.218-1.097c1.477-0.342,2.935-0.742,4.274-1.499
			c0.794-0.448,1.64-0.75,2.577-0.834c0.592-0.053,1.182-0.276,1.743-0.499c0.831-0.33,1.487-0.958,1.458-1.856
			c-0.028-0.895-0.844-1.144-1.632-1.288c-0.288-0.053-0.556-0.211-0.833-0.322c1.989-0.116,4.018-0.533,5.711,1.073
			c0.261,0.247,0.852,0.146,1.291,0.205c1.31-0.903,2.349-0.479,3.243,0.658c-0.191,2.684-0.191,2.685,2.632,2.9
			c0.886,0.068,1.801,0.062,2.325,0.988c0.076,0.854-0.421,1.319-1.115,1.652c-1.712,0.206-3.311-0.368-4.748-1.098
			c-1.971-1-3.92-1.337-6.042-0.841c-3.248-0.211-5.943,1.619-9.028,2.511c2.243,1.099,4.493,2.022,6.771,2.905
			c6.29,2.437,12.737,4.446,18.992,6.977c0.924,0.374,1.911,0.502,2.831,0.85c1.29,0.488,2.603,0.996,2.75,2.677
			c0.019,0.317-0.014,0.631-0.074,0.938c-0.174,0.691,0.015,1.016,0.784,0.76c1.596-0.195,3.118-0.185,4.131,1.363
			c1.514,4.238,0.758,8.252-1.964,10.417c-0.963,0.767-2.024,1.343-3.261,1.521c-2.479,0.357-4.143-0.955-4.345-3.439
			c-0.167-2.058,0.085-4.082,0.507-6.096c0.141-0.673,0.636-1.562-0.653-1.727c-0.797-0.077-1.595-0.146-2.314-0.544
			c-0.473-0.269-0.965-0.497-1.5-0.626c-0.221-0.046-0.434-0.11-0.647-0.178c-3.288-0.698-6.176-2.448-9.324-3.543
			c-4.936-1.717-9.808-3.632-14.776-5.269c-1.764-0.582-3.361-1.302-4.453-2.937c-1.041-1.558-2.507-1.289-3.795-0.406
			c-1.418,0.973-2.883,1.646-4.61,1.728c-0.376,0.018-0.806,0.093-1.076,0.333c-2.167,1.923-4.906,2.194-7.572,2.686
			c-0.776,0.321-1.47,0.8-2.225,1.147c-1.105,0.508-1.531,1.301-1.529,2.514c0.023,13.73,0.025,27.459-0.003,41.189
			c-0.003,1.546,0.704,2.21,2.048,2.829c4.734,2.178,9.633,3.966,14.381,6.069c5.452,2.415,11.123,4.313,16.441,7.023
			c0.703,0.104,1.394,0.251,2.006,0.64c0.711,0.503,1.55,0.882,1.839,1.815c0.432,0.717,0.09,1.093-0.597,1.249
			c-1.146,0.261-2.307,0.273-3.469,0.094c0.306-1.098,1.027-0.833,1.778-0.656c-3.244-1.161-6.48-2.401-9.612-3.916
			c-3.266-1.579-6.809-2.487-10.047-4.194c-2.538-1.337-5.266-2.398-7.994-3.245c-2.604-0.808-4.708-2.417-7.117-3.498
			C188.924,243.014,188.755,242.645,188.578,242.308z"/>
		<path fill-rule="evenodd" clip-rule="evenodd" fill="#AB8F4C" d="M299.843,208.167c1.491,0.001,2.818-0.395,3.95-1.438
			c0.753-0.694,1.702-0.936,2.742-0.888c1.654,0.076,2.355,0.689,2.402,2.351c0.05,1.747-0.042,3.497,0.011,5.242
			c0.082,2.728,1.536,3.864,4.173,3.252c0.952-0.221,1.931-0.487,2.719-1.12c0.792-0.636,1.705-1.004,2.66-1.246
			c1.542-0.39,2.751-1.211,3.637-2.524c0.563-2.731,0.073-5.497,0.279-8.236c0.046-0.608-0.588-1.57,0.643-1.789
			c0.009,2.811-0.011,5.621,0.035,8.431c0.036,2.226-0.822,3.72-3.012,4.521c-1.978,0.724-3.618,2.212-5.757,2.65
			c-0.665,0.136-1.307,0.343-2,0.366c-2.861,0.097-4.23-1.13-4.306-3.97c-0.045-1.669-0.007-3.342-0.005-5.013
			c0-0.69,0.043-1.44-0.712-1.78c-0.816-0.369-1.695-0.346-2.301,0.38c-1.081,1.298-2.602,1.423-4.077,1.71
			c-1.529,0.298-2.11,1.01-2.527,2.47c-0.395,1.378,0.01,2.683,0.013,4.021c0.025,11.166,0.01,22.331,0.026,33.497
			c0.001,0.78-0.298,1.483-0.388,2.232c-0.124,1.035,0.102,2.021,0.958,2.657c0.795,0.591,1.586,0.073,2.344-0.284
			c2.804-1.321,5.476-2.91,8.539-3.687c1.277-0.324,2.344-1.486,3.621-1.804c2.884-0.718,5.309-2.526,8.204-3.199
			c1.082-0.251,2.069-0.931,3.086-1.44c1.297-0.65,2.612-1.221,4.101-1.218c0.012,0.168,0.022,0.336,0.033,0.503
			c-1.415,1.731-3.551,2.243-5.45,3.077c-7.528,3.304-15.312,6.017-22.66,9.741c-0.989,0.501-2.016,0.633-3.055,0.093
			c-1.169-0.763-1.375-1.954-1.38-3.199c-0.046-12.91-0.099-25.821,0.05-38.729C296.466,211.476,297.113,209.073,299.843,208.167z"
			/>
		<path fill-rule="evenodd" clip-rule="evenodd" fill="#EBC254" d="M264.253,177.664c6.98-0.005,13.96-0.01,20.939-0.015
			c0.579,1.046-0.311,1.354-0.929,1.676c-3.49,1.817-7.208,3.131-10.812,4.693c-2.218,0.962-4.417,1.965-6.612,2.977
			c-1.13,0.521-2.262,1.009-3.424,0.159c-1.227-0.896-1.248-2.194-0.95-3.499c0.292-1.276,0.212-2.562,0.265-3.844
			C262.773,178.751,262.998,177.85,264.253,177.664z"/>
		<path fill-rule="evenodd" clip-rule="evenodd" fill="#DBDBDA" d="M326.814,248.833c-0.956,3.208-2.184,6.319-3.375,9.443
			c-0.922,0.504-1.92,0.237-2.878,0.243c-5.371,0.029-10.743,0.023-16.114,0c-0.546-0.002-1.341,0.308-1.549-0.505
			c-0.218-0.847,0.523-1.173,1.138-1.451c4.388-1.993,8.903-3.676,13.37-5.479c2.375-0.958,4.496-2.539,7.088-2.952
			C325.34,247.999,326.466,247.213,326.814,248.833z"/>
		<path fill-rule="evenodd" clip-rule="evenodd" fill="#D9AA42" d="M254.674,177.667c0.75,0.005,1.501,0.011,2.252,0.016
			c0.857,0.318,1.032,1.044,1.059,1.831c0.061,1.815,0.139,3.638-0.024,5.445c-0.207,2.287-1.52,2.948-3.628,1.972
			c-4.586-2.125-9.225-4.119-13.969-5.88c-1.61-0.598-3.335-1.242-4.723-3.076C242.224,177.575,248.463,178.12,254.674,177.667z"/>
		<path fill-rule="evenodd" clip-rule="evenodd" fill="#72727B" d="M335.77,195.869c-0.725-1.415-2.281-1.596-3.484-2.267
			c-0.689-0.384-1.602-0.367-2.414-0.53c-6.519-1.899-12.809-4.458-19.222-6.656c-4.358-1.493-8.654-3.208-13.11-4.382
			c-2.831-0.746-5.506,0.515-8.17,1.329c-0.645,0.197-1.253,0.527-1.876,0.805c-0.552,0.309-1.15,0.413-1.772,0.42
			c-1.379,0.002-2.77,0.04-3.813-1.11c-0.253-0.275-0.436-0.588-0.502-0.96c0.132-0.985,0.868-1.475,1.689-1.601
			c2.077-0.318,3.857-1.304,5.632-2.299c1.321-0.741,2.836-0.379,4.179-0.897c1.253-0.088,2.505-0.236,3.762-0.057
			c0.928,1.91,2.45,2.936,4.529,3.405c3.773,0.851,7.309,2.475,10.947,3.741c5.778,2.011,11.653,3.791,17.252,6.313
			c1.449,0.653,3.084,0.772,4.604,1.257c0.734,0.235,1.482,0.387,1.783,1.226C335.777,194.36,335.773,195.115,335.77,195.869z"/>
		<path fill-rule="evenodd" clip-rule="evenodd" fill="#7A6A4C" d="M232.812,179.818c-0.868-0.882-1.978-0.896-3.099-0.865
			c-0.466-0.634-0.782-1.247,0.424-1.304c0.89-0.042,1.784,0.005,2.676,0.013c6.689,2.947,13.536,5.524,20.204,8.524
			c0.62,0.278,1.227,0.565,1.823,0.886c1.783,0.959,2.932,0.346,2.999-1.703c0.085-2.57,0.018-5.144,0.007-7.716
			c1.53-0.002,3.063-0.004,4.593-0.007c0.271,2.263,0.173,4.52-0.115,6.774c-0.359,2.818,0.922,3.868,3.573,2.855
			c1.552-0.593,3.048-1.321,4.53-2.09c1.299-0.674,2.618-1.624,4.246-0.886c0.366,0.534,0.033,0.897-0.302,1.263
			c-2.804,1.822-5.992,2.813-9.025,4.14c-0.916,0.401-1.914,0.371-2.898,0.293c-1.71-0.524-3.35-1.262-5.216-0.268
			c-0.908,0.484-1.902-0.197-2.769-0.679c-4.585-2.551-9.604-4.055-14.437-6.008C237.585,182.055,235.146,181.05,232.812,179.818z"
			/>
		<path fill-rule="evenodd" clip-rule="evenodd" fill="#706044" d="M226.341,257.342c-0.623-0.377-1.264-0.73-1.73-1.313
			c1.908-1.266,2.198-2.974,2.156-5.243c-0.213-11.374-0.099-22.753-0.089-34.13c0-0.456,0.006-0.914,0.117-1.357
			c0.175-0.7,0.498-1.325,1.3-1.382c0.94-0.067,1.302,0.628,1.53,1.39c0.221,0.737,0.18,1.503,0.176,2.26
			c-0.063,11.755,0.172,23.513-0.145,35.266c-0.038,1.404,0.729,2.048,1.611,2.766c0.726,1.304,0.194,1.792-1.142,1.757
			C228.866,256.71,227.607,255.691,226.341,257.342z"/>
		<path fill-rule="evenodd" clip-rule="evenodd" fill="#796F60" d="M230.125,257.354c0.569-0.299,1.281-0.461,1.264-1.319
			c-0.094-0.605-0.454-1.262,0.323-1.705c4.465-1.288,8.563-3.493,12.811-5.3c2.645-1.125,5.351-2.133,7.995-3.261
			c1.994-0.852,3.37-1.617,3.116-3.975c2.686,2.25,5.957,2.294,9.203,2.509c1.13,0.075,2.147,0.633,3.076,1.3
			c0.507,0.495,1.179,0.917,0.831,1.804c-0.861,0.629-1.57,0.093-2.295-0.307c-3.092-1.706-5.941-1.583-9.212,0.091
			c-3.123,1.599-6.405,3.039-9.773,4.187c-2.856,0.973-5.573,2.313-8.345,3.494c-1.522,0.648-2.94,1.52-4.587,1.902
			c-1.025,0.238-2.117,0.513-2.271,1.865C231.263,258.688,230.225,258.801,230.125,257.354z"/>
		<path fill-rule="evenodd" clip-rule="evenodd" fill="#80745D" d="M298.445,255.598c1.186,0.049,2.237-0.263,3.121-1.094
			c0.271-0.256,0.58-0.57,0.917-0.642c2.758-0.59,5.017-2.425,7.755-3.061c1.184-0.274,2.319-0.758,3.292-1.487
			c1.206-0.904,2.763-0.776,4.007-1.479c2.975-1.681,6.34-2.473,9.313-4.157c0.649-0.369,1.388-0.582,2.085-0.866
			c-0.282,1.244-0.645,2.461-1.187,3.62c-3.249,1.754-6.963,2.364-10.165,4.316c-1.898,1.157-4.157,1.824-6.269,2.517
			c-3.248,1.066-6.066,3.089-9.396,3.871c-0.916,0.216-1.268,0.628-0.794,1.521c-0.77,0.175-1.535,0.087-2.302-0.023
			c-1.963-0.373-0.68-1.646-0.712-2.557C298.175,255.885,298.29,255.727,298.445,255.598z"/>
		<path fill-rule="evenodd" clip-rule="evenodd" fill="#ADADB4" d="M188.578,242.308c1.742,0.729,3.483,1.444,4.933,2.724
			c0.448,0.396,1.121,0.414,1.701,0.585c1.372,0.404,2.681,1.05,4.012,1.511c3.581,1.239,6.894,3.066,10.399,4.466
			c2.849,1.139,5.936,1.829,8.501,3.648c1.094,0.775,2.393,0.921,3.635,1.225c0.974,0.238,1.909,0.471,2.518,1.494
			c-0.531,0.647-1.485,0.154-2.003,0.724c-8.15,0.02-16.301,0.038-24.452,0.059c-0.604,0.002-1.207,0.016-1.811,0.02
			c-0.64,0.004-0.655,0.481-0.712,0.929c-0.587-0.602-0.493-1.126,0.302-1.329c0.573-0.146,1.206-0.066,1.813-0.066
			c6.904-0.007,13.808-0.003,20.711-0.022c0.815-0.003,1.658,0.16,2.467-0.207c0.145-0.788-0.519-0.85-0.958-0.991
			c-0.568-0.183-1.366-0.014-1.749-0.353c-2.533-2.244-6.118-2.107-8.806-3.992c-0.655-0.46-1.549-0.574-2.324-0.87
			c-0.918-0.351-1.913-0.592-2.721-1.117c-1.55-1.008-3.336-1.364-4.968-2.081c-2.548-1.12-5.185-2.024-7.693-3.229
			c-0.409-0.196-0.776-0.559-1.199-0.63C188.679,244.55,188.381,243.605,188.578,242.308z"/>
		<path fill-rule="evenodd" clip-rule="evenodd" fill="#AA8E4C" d="M323.059,201.77c-0.627,0.513-0.436,1.229-0.441,1.88
			c-0.018,2.094,0.005,4.188-0.014,6.282c-0.006,0.649,0.191,1.37-0.467,1.863c0.001-2.956,0.051-5.913-0.02-8.867
			c-0.031-1.321,0.53-2.333,1.612-2.75c1.577-0.606,2.865-1.696,4.412-2.315c0.28-0.113,0.541-0.277,0.824-0.383
			c2.677-1.008,4.129-0.044,4.131,2.771c0.006,10.384-0.001,20.768-0.003,31.152c-0.339,1.271-0.607,2.567-1.304,3.713
			c-0.011-10.382-0.035-20.764-0.015-31.146c0.002-1.121,0.273-2.24,0.393-3.363c0.094-0.879-0.088-1.681-0.893-2.186
			c-0.835-0.524-1.555-0.225-2.285,0.319c-1.471,1.094-3.063,1.939-4.922,2.185C323.586,200.989,323.292,201.364,323.059,201.77z"/>
		<path fill-rule="evenodd" clip-rule="evenodd" fill="#7F7D82" d="M232.262,258.639c-0.555-0.456-1.137-0.91-0.185-1.544
			c0.125-0.083,0.258-0.184,0.4-0.209c3.299-0.604,5.989-2.749,9.18-3.627c0.434-0.119,0.872-0.267,1.268-0.478
			c1.926-1.028,3.817-2.137,6.052-2.374c2.744-2.241,6.369-2.587,9.359-4.429c2.458-1.514,5.373-1.083,7.99,0.377
			c0.769,0.429,1.411,1.213,2.447,1.008c0.11-0.012,0.221-0.023,0.331-0.036c1.617,0.117,3.065,0.671,4.414,1.58
			c2.279,1.535,5.171,1.615,7.489,3.078c0.408,0.162,0.808,0.344,1.213,0.513c2.379,0.551,4.282,2.254,6.689,2.736
			c0.984,0.346,2.068,0.5,2.896,1.153c0.742,0.587,1.697,1.302,0.29,2.235c-1.235,0.164-2.474,0.256-3.716,0.074
			c-0.014-0.231,0.069-0.422,0.234-0.58c0.001-0.346,1.559-0.391,0.362-0.813c-4.574-1.612-8.94-3.708-13.431-5.507
			c-3.584-1.436-7.146-2.924-10.671-4.499c-1.838-0.821-3.559-0.867-5.471-0.098c-6.037,2.428-11.852,5.381-18.027,7.498
			c-2.045,0.7-3.869,2.01-5.966,2.732c-0.912,0.314,0.316,0.393,0.359,0.688c0.166,0.158,0.24,0.349,0.228,0.573
			C234.75,258.878,233.506,258.77,232.262,258.639z"/>
		<path fill-rule="evenodd" clip-rule="evenodd" fill="#AAABB2" d="M335.782,193.605c-0.655-0.633-1.563-0.608-2.346-0.743
			c-4.057-0.703-7.703-2.627-11.511-4c-3.532-1.272-7.102-2.567-10.651-3.741c-3.86-1.276-7.535-3.125-11.569-3.916
			c-2.188-0.429-2.966-1.505-3.038-3.542c1.051-0.045,2.101-0.242,3.153-0.017c-0.612,0.51-1.167,0.973-0.272,1.779
			c0.585,0.527,1.19,0.927,1.952,1.065c2.387,0.434,4.619,1.231,6.775,2.385c1.162,0.622,2.584,0.791,3.909,1.064
			c0.595,0.123,1.198,0.175,1.729,0.485c2.04,1.193,4.229,1.942,6.563,2.328c0.575,0.095,1.173,0.362,1.646,0.706
			c1.264,0.915,2.671,1.329,4.187,1.586c0.952,0.162,1.913,0.491,2.775,0.931c1.694,0.867,3.415,1.605,5.33,1.762
			C335.623,191.837,335.936,192.537,335.782,193.605z"/>
		<path fill-rule="evenodd" clip-rule="evenodd" fill="#A4A4AB" d="M301.124,258.658c-0.367-0.447-1.017-0.218-1.519-0.59
			c0.478-1.052,1.408-1.349,2.342-1.554c1.494-0.327,2.903-0.805,4.118-1.77c0.233-0.186,0.511-0.36,0.795-0.429
			c3.157-0.764,5.883-2.663,9.041-3.424c0.58-0.14,1.254-0.283,1.666-0.662c1.583-1.459,3.592-1.874,5.548-2.398
			c0.906-0.243,1.64-0.719,2.417-1.186c0.666-0.398,1.391-1.089,2.215-0.213c-0.22,0.835-0.334,1.712-0.933,2.4
			c-0.243-0.311-0.544-0.615-0.951-0.464c-1.972,0.731-4.176,0.867-5.881,2.283c-0.174,0.144-0.369,0.314-0.577,0.354
			c-3.371,0.651-6.044,3.104-9.456,3.654c-0.513,0.083-1.077,0.212-1.488,0.503c-1.381,0.975-2.851,1.697-4.516,2.032
			c-0.265,0.053-0.487,0.318-0.702,0.467c0.036,0.155,0.042,0.229,0.07,0.294c0.028,0.063,0.075,0.166,0.118,0.169
			c6.667,0.367,13.339,0.116,20.008,0.15c-0.287,0.655-0.886,0.476-1.38,0.474C315.081,258.729,308.103,258.691,301.124,258.658z"/>
		<path fill-rule="evenodd" clip-rule="evenodd" fill="#AF924D" d="M274.736,184.436c-1.574-0.054-2.962,0.482-4.264,1.318
			c-1.671,1.072-3.542,1.704-5.415,2.27c-2.227,0.674-3.581-0.105-3.39-2.342c0.214-2.479,0.071-4.975,0.454-7.435
			c0.033-0.211,0.208-0.4,0.316-0.6c0.605,0.006,1.21,0.012,1.814,0.017c-0.654,0.471-0.975,1.056-0.945,1.914
			c0.054,1.583,0.079,3.162-0.36,4.732c-0.243,0.869-0.142,1.817,0.72,2.469c0.897,0.681,1.73,0.285,2.548-0.131
			c4.778-2.436,9.734-4.451,14.741-6.362c1.252-0.477,2.382-1.285,3.668-1.739c0.402-0.143,0.546-0.493,0.569-0.898
			c1.355-0.223,2.71-0.034,4.064,0.018c0.007,1.498-1.329,1.387-2.198,1.797c-3.524,1.665-7.377,2.587-10.693,4.726
			C275.849,184.439,275.338,184.746,274.736,184.436z"/>
		<path fill-rule="evenodd" clip-rule="evenodd" fill="#A38342" d="M257.846,177.654c0.397,0.589,0.483,1.244,0.477,1.943
			c-0.018,1.964,0.031,3.93-0.004,5.894c-0.044,2.425-1.409,3.129-3.548,2.081c-2.831-1.388-5.729-2.621-8.695-3.735
			c-2.517-0.945-4.988-2.08-7.482-3.123c-1.458-0.61-2.855-1.357-4.389-1.798c-0.627-0.18-1.361-0.359-1.392-1.253
			c7.287-0.142,14.574-0.178,21.861,0.006c-0.729,0.603-1.601,0.356-2.41,0.36c-4.551,0.024-9.103,0.011-13.653,0.01
			c-0.721,0-1.442,0-2.164,0c1.881,1.078,3.417,2.628,5.592,2.885c0.515,0.061,1.056,0.237,1.501,0.5
			c3.654,2.161,7.896,3.025,11.524,5.248c1.063,0.651,2.176,0.264,2.213-0.9c0.087-2.693,0.572-5.431-0.352-8.087
			C257.232,177.674,257.539,177.664,257.846,177.654z"/>
		<path fill-rule="evenodd" clip-rule="evenodd" fill="#A3A3AA" d="M235.999,258.692c-0.031-0.101-0.069-0.199-0.112-0.296
			c0.101-0.111,0.201-0.222,0.301-0.334c0.898-0.549,1.914-0.453,2.887-0.455c15.338-0.027,30.675-0.045,46.012,0.008
			c0.904,0.003,1.828-0.072,2.712,0.237c0.29,0.112,0.522,0.298,0.696,0.556c-0.045,0.094-0.083,0.189-0.114,0.289
			c-13.59,0.021-27.179,0.048-40.768,0.059C243.742,258.76,239.87,258.716,235.999,258.692z"/>
		<path fill-rule="evenodd" clip-rule="evenodd" fill="#7A6A4C" d="M276.091,183.969c0.953-1.287,2.359-1.8,3.815-2.223
			c0.795-0.23,1.651-0.324,2.383-0.679c1.889-0.916,3.678-2.039,5.792-2.429c0.519-0.095,0.968-0.428,1.178-0.973
			c1.218-0.137,2.434-0.072,3.647,0.054c-0.447,0.439-0.996,0.752-1.602,0.745c-1.122-0.014-2.048,0.485-2.963,0.997
			c-1.574,0.882-3.1,1.799-4.995,1.91c-0.713,0.042-1.429,0.485-1.802,1.23c-1.056,0.708-2.338,0.982-3.364,1.752
			C277.426,184.538,276.693,184.604,276.091,183.969z"/>
		<path fill-rule="evenodd" clip-rule="evenodd" fill="#6F614B" d="M298.427,256.038c0.2,0.409,0.36,0.799-0.04,1.209
			c-0.692,0.711,0.09,0.989,0.438,1.389c-0.87,0.139-1.861,0.08-1.992-0.884c-0.117-0.861-0.343-1.211-1.157-1.254
			c-0.924-0.047-1.625,0.187-1.822,1.231c-0.035,0.187-0.264,0.336-0.402,0.502c-0.522-0.754-1.658-1.169-1.33-2.397
			C295.48,253.827,295.587,253.83,298.427,256.038z"/>
		<path fill-rule="evenodd" clip-rule="evenodd" fill="#796F60" d="M292.06,256.034c0.311,0.829,1.354,1.196,1.391,2.198
			c-0.418,0.245-0.813,0.569-1.354,0.392c0.735-1.108-0.063-1.625-0.864-2.021c-0.771-0.38-1.687-0.439-2.396-0.995
			c0.076-0.083,0.152-0.167,0.228-0.253c0.409-0.24,0.859-0.29,1.322-0.283C291.093,255.132,291.775,255.24,292.06,256.034z"/>
		<path fill-rule="evenodd" clip-rule="evenodd" fill="#DCDBDB" d="M342.621,339.895c10.221,0.011,18.34,8.159,18.339,18.404
			c-0.001,10.193-8.184,18.428-18.347,18.462c-10.197,0.034-18.581-8.38-18.517-18.584
			C324.161,348.021,332.407,339.884,342.621,339.895z"/>
		<path fill-rule="evenodd" clip-rule="evenodd" fill="#DCDBDB" d="M167.815,339.895c10.145,0.024,18.365,8.311,18.33,18.477
			c-0.036,10.108-8.374,18.405-18.482,18.39c-10.249-0.016-18.416-8.305-18.381-18.655
			C149.315,347.94,157.528,339.87,167.815,339.895z"/>
		<path fill-rule="evenodd" clip-rule="evenodd" fill="#958155" d="M292.979,126.082c-0.03,0.671,0.156,1.444-0.424,1.934
			c-2.171,1.831-4.582,3.334-7.529,2.866c-1.893-0.3-3.886-0.602-5.518-1.882c-0.447-0.351-1.133-0.392-1.698-0.602
			c-3.864-1.432-7.724-2.875-11.588-4.306c-3.391-1.255-6.781-2.525-10.28-3.438c-0.945-0.247-1.769-0.443-2.11-1.414
			c-0.334-0.952,0.301-1.553,0.902-2.157c0.317-0.318,0.577-0.693,0.864-1.042c1.402-0.249,2.672-0.961,4.167-0.96
			c2.23,0.001,4.314,0.224,6.273,1.487c0.976,0.629,2.248,0.806,3.396,1.159c3.296,1.012,6.481,2.339,9.744,3.452
			c2.98,1.017,6.016,1.924,8.921,3.156C289.698,125.011,291.504,125.081,292.979,126.082z"/>
		<path fill-rule="evenodd" clip-rule="evenodd" fill="#9E8651" d="M236.417,123.343c2.288,0.776,4.579,1.541,6.862,2.332
			c1.14,0.396,2.325,0.7,3.268,1.535c0.221,0.195,0.512,0.371,0.797,0.425c3.874,0.746,7.233,2.972,11.063,3.83
			c0.594,0.133,1.245,0.165,1.712,0.553c1.61,1.341,3.579,1.552,5.521,1.77c1.097,0.123,1.923,0.447,2.198,1.575
			c0.27,1.102-0.184,2.151-1.118,2.505c-2.637,1-5.227,2.505-8.246,1.54c-1.947-0.623-3.913-1.196-5.713-2.204
			c-0.329-0.185-0.674-0.416-1.033-0.464c-4.012-0.529-7.455-2.893-11.432-3.529c-0.369-0.059-0.778-0.152-1.069-0.365
			c-2.036-1.486-4.469-1.739-6.815-2.29c-1.977-0.463-3.76-1.255-4.52-3.374c-0.075-0.209-0.075-0.446-0.11-0.67
			c0.52-0.3,1.011-0.782,1.564-0.868C231.835,125.259,233.994,123.901,236.417,123.343z"/>
		<path fill-rule="evenodd" clip-rule="evenodd" fill="#A49D86" d="M248.729,120.147c1.453,0.987,3.151,1.443,4.753,2.075
			c3.513,1.385,7.101,2.579,10.648,3.875c4.26,1.557,8.512,3.134,12.761,4.72c0.419,0.157,0.822,0.397,1.18,0.668
			c0.755,0.573,0.815,1.194,0.091,1.887c-0.98,0.937-1.99,1.542-3.457,1.146c-2.41-0.651-4.776-1.329-7.081-2.372
			c-3.231-1.461-6.672-2.454-9.973-3.773c-3.992-1.596-8.187-2.649-12.062-4.549c-0.204-0.1-0.404-0.208-0.608-0.311
			c-0.938-0.472-1.769-1.161-1.465-2.266c0.274-0.997,1.276-1.165,2.255-1.126c0.985,0.04,1.973,0.022,2.959,0.03
			C248.729,120.151,248.729,120.147,248.729,120.147z"/>
		<path fill-rule="evenodd" clip-rule="evenodd" fill="#C1B797" d="M277.008,141.496c0.001-0.456-0.009-0.911,0.002-1.366
			c0.07-2.828,2.014-4.649,4.788-4.492c1.27,0.072,1.985,0.664,2.061,1.943c0.083,1.436,0.007,2.882,0.003,4.323
			c-0.002,0.473-0.129,0.9-0.459,1.248c-1.114,1.171-2.406,2.104-3.969,2.532c-1.625,0.445-2.252-0.043-2.413-1.685
			c-0.016-0.15-0.013-0.303-0.013-0.455C277.007,142.862,277.008,142.179,277.008,141.496z"/>
		<path fill-rule="evenodd" clip-rule="evenodd" fill="#38353D" d="M274.305,135.224c1.776,0.998,2.139,1.704,1.584,3.078
			c-0.388,0.96-0.98,1.26-1.688,0.594c-0.924-0.872-1.938-1.034-3.094-0.988c-0.885,0.035-1.688-0.115-1.815-1.215
			c-0.109-0.951,0.607-1.745,1.768-1.93c0.441-0.07,0.899-0.033,1.35-0.045C272.983,135.1,273.627,135.225,274.305,135.224z"/>
		<path fill-rule="evenodd" clip-rule="evenodd" fill="#343340" d="M282.728,131.074c0.754,0.175,1.74,0.313,2.655,0.646
			c0.732,0.266,1.393,0.861,1.079,1.743c-0.291,0.82-0.946,1.476-1.938,1.117c-0.817-0.296-1.636-0.278-2.465-0.33
			c-0.224-0.015-0.467-0.04-0.661-0.139c-0.813-0.414-1.343-1.041-1.112-2.006C280.583,130.861,281.627,131.118,282.728,131.074z"/>
		<path fill-rule="evenodd" clip-rule="evenodd" fill="#776442" d="M292.06,256.034c-0.573-0.314-1.175-0.52-1.84-0.487
			c-1.372-0.424-2.614-1.232-4.078-1.39c-0.387-0.164-0.756-0.361-1.113-0.58c-1.632-0.874-3.288-1.688-5.113-2.088
			c-0.393-0.102-0.749-0.28-1.081-0.511c-0.364-0.355-0.853-0.433-1.313-0.575c-0.185-0.074-0.357-0.168-0.525-0.273
			c-1.143-0.885-2.593-0.952-3.88-1.455c-0.7-0.467-1.547-0.566-2.294-0.914c-0.931-0.666-1.964-1.16-2.933-1.763
			c-2.129-1.005-4.353-1.65-6.721-1.356c-1.913,0.237-3.371-0.365-4.523-1.883c-0.263-0.346-0.689-0.568-1.041-0.848
			c-1.52-0.472-1.122-1.795-1.132-2.814c-0.062-6.452-0.026-12.905-0.03-19.358c0-0.607,0.011-1.215-0.008-1.822
			c-0.098-3.036-0.76-3.441-3.4-2.008c-1.545,0.838-3.117,1.577-4.867,1.857c-3.048,0.487-5-0.997-5.333-4.094
			c-0.17-1.587-0.016-3.187-0.112-4.779c-0.094-1.557-0.93-2.077-2.279-1.396c-1.633,0.824-3.298,1.51-5.044,2.055
			c-1.375,0.429-1.973,1.581-2.141,2.959c-0.12,0.982-0.079,1.971-0.079,2.958c-0.002,11.235,0.011,22.471-0.014,33.706
			c-0.004,1.901,0.129,3.789,0.255,5.681c0.269,0.398,0.667,0.801-0.029,1.177c-2.491-0.861-2.714-1.238-2.325-3.728
			c0.082-0.521,0.061-1.061,0.061-1.592c0.003-11.321,0.004-22.642-0.002-33.963c0-0.604-0.021-1.215-0.123-1.808
			c-0.065-0.376-0.345-0.682-0.794-0.672c-0.442,0.01-0.712,0.31-0.783,0.691c-0.095,0.517-0.114,1.053-0.114,1.581
			c-0.006,11.321-0.006,22.642,0.001,33.963c0,0.527,0.037,1.063,0.129,1.581c0.385,2.156-0.531,3.447-2.829,3.939
			c-0.595-0.281-1.207-0.502-1.878-0.496c-0.535-0.292-1.029-0.653-1.507-1.02c-0.607-0.465-0.462-0.874,0.259-1.089
			c0.47-0.058,0.911,0.044,1.299,0.301c0.774,0.512,1.572,1.073,2.463,0.336c0.824-0.682,1.073-1.669,0.878-2.68
			c-0.711-3.68-0.306-7.392-0.343-11.087c-0.072-7.261-0.015-14.523-0.024-21.785c-0.003-2.625,0.345-5.241,0.16-7.864
			c0.842-1.57,1.133-0.328,1.504,0.317c0.367,0.638,0.597,1.64,1.454,0.394c1.873-2.723,1.872-2.723,4.876-4.5
			c-0.279-0.637-1.081-0.428-1.458-0.898c-0.233-1.125,1.298-0.965,1.356-1.878c0.443-1.537-0.534-2.032-1.727-2.348
			c-6.118-1.619-11.762-4.607-17.898-6.174c-0.745-0.19-1.369-0.625-1.723-1.361c-0.436-1.297,0.319-1.462,1.302-1.317
			c1.509,0.223,2.964,0.699,4.388,1.208c5.074,1.815,10.057,3.878,15.204,5.5c1.282,0.404,2.579,0.947,3.458,2.094
			c0,3.288,2.457,3.194,4.695,3.4c0.56,0.252,0.976,0.666,1.322,1.159c0.643,1.016,0.765,2.116,0.503,3.272
			c-0.084,0.37-0.174,0.74-0.171,1.119c0.011,1.63-0.587,3.578,1.08,4.608c1.714,1.06,3.313-0.113,4.794-1.045
			c1.503-0.667,2.881-1.561,4.312-2.364c3.097-0.269,3.087-0.269,3.113-3.449c0.021-2.633-0.156-5.273,0.095-7.896
			c0.281-2.945,1.646-4.172,4.455-4.249c1.562,0.806,2.098-0.229,2.546-1.426c1.625,0.752,3.295,1.431,4.504,2.841
			c-0.744,0.176-1.939-0.449-2.141,0.635c-0.21,1.13,0.99,1.471,1.837,1.584c4.076,0.545,7.67,2.577,11.535,3.767
			c2.768,0.852,5.545,1.821,8.305,2.777c1.542,0.535,2.976,1.385,4.588,1.809c0.827,0.217,1.367,0.92,1.766,1.672
			c0.14,0.262,0.131,0.62,0.305,0.845c0.451,0.583,0.848,1.398,1.699,1.322c0.788-0.071,0.954-0.917,1.175-1.529
			c0.497-1.384,1.183-2.464,2.872-2.369c-2.098,1.252-2.809,3.126-2.799,5.522c0.052,12.946,0.034,25.892,0.016,38.838
			c-0.002,1.269,0.047,2.441,1.386,3.071c-0.004,0.146-0.011,0.293-0.019,0.439c-1.891-1.269-3.781-1.458-5.702-0.044
			C292.575,256.104,292.285,256.024,292.06,256.034z"/>
		<path fill-rule="evenodd" clip-rule="evenodd" fill="#7B746B" d="M276.091,183.969c0.748,0,1.497,0,2.245,0
			c0.606,0.057,1.076,0.433,1.605,0.674c0.605,0.332,1.246,0.576,1.901,0.783c0.454,0.167,0.91,0.327,1.377,0.46
			c0.187,0.051,0.369,0.117,0.55,0.187c0.771,0.38,1.731,0.375,2.323,1.125c4.177,1.921,8.543,3.346,12.853,4.919
			c3.035,1.107,6.128,2.072,9.103,3.32c1.61,0.675,3.263,1.147,4.904,1.688c1.578,0.521,1.897,0.961,1.897,2.388
			c0,1.766,0,1.769,1.801,1.79c0.302,0.003,0.604-0.031,0.906-0.048c0.357-0.233,0.689-0.194,0.996,0.095
			c1.174,1.144,1.516,2.545,1.352,4.137c-0.07,0.677-0.109,1.382,0,2.048c0.336,2.044-0.651,3.399-2.043,4.744
			c-1.511,1.46-3.249,1.494-5.083,1.293c-0.819-0.089-1.285-0.715-1.566-1.482c-0.512-1.394-0.597-2.807-0.278-4.251
			c0.229-1.033,0.556-2.056,0.661-3.102c0.185-1.826,0.363-2.863-2.15-2.499c-0.708,0.452-1.152,0.158-1.461-0.517
			c-0.426-0.569-1.113-0.465-1.675-0.558c-1.825-0.302-3.507-0.878-4.976-2.036c-0.683-0.538-1.593-0.455-2.358-0.763
			c-3.783-1.525-7.731-2.62-11.438-4.339c-1.321-0.612-2.716-0.987-4.113-1.259c-1.915-0.373-3.596-1.104-5.045-2.394
			c-0.525-0.208-0.86-0.615-0.998-1.133c-0.468-1.758-1.611-2.967-3.088-3.922c0.147-0.294,0.295-0.588,0.443-0.883
			C275.17,184.23,275.578,183.947,276.091,183.969z"/>
		<path fill-rule="evenodd" clip-rule="evenodd" fill="#BC9E52" d="M327.29,194.418c-2.48,2.589-5.382,4.047-8.944,2.629
			c-3.353-1.334-6.842-2.336-10.058-4.012c-0.135-0.07-0.268-0.163-0.412-0.192c-3.95-0.815-7.459-2.91-11.364-3.885
			c-1.976-0.493-3.879-1.289-5.793-2.004c-0.949-0.355-1.778-0.902-1.844-2.08c1.788-2.41,6.466-3.622,9.134-2.602
			c4.218,1.613,8.434,3.232,12.755,4.583c3.307,1.034,6.495,2.444,9.813,3.49c1.509,0.476,2.979,1.034,4.535,1.387
			C326.408,192.027,327.896,192.452,327.29,194.418z"/>
		<path fill-rule="evenodd" clip-rule="evenodd" fill="#9A834F" d="M267.902,197.654c-1.781-0.48-3.26-1.466-4.565-2.739
			c-0.402-2.043,0.279-2.813,2.87-3.246c0.117,0.014,0.233,0.03,0.35,0.045c1.33,0.156,2.598-0.107,3.703-0.819
			c1.253-0.806,2.452-0.672,3.649-0.019c0.945,0.516,1.931,0.874,2.984,1.044c1.452,0.236,2.75,0.804,3.912,1.705
			c0.358,0.277,0.729,0.653,1.141,0.727c3.537,0.629,6.619,2.547,10.038,3.488c1.247,0.343,2.469,0.705,3.601,1.348
			c1.411,0.803,2.971,1.059,4.563,1.24c2.05,0.232,3.017,1.345,2.848,3.079c-0.102,1.046-0.641,1.755-1.66,1.861
			c-1.154,0.121-2.213,0.504-3.285,0.872c-1.635,0.561-3.259,0.525-4.871-0.064c-1.92-0.701-3.937-1.147-5.739-2.159
			c-0.198-0.111-0.404-0.236-0.622-0.28c-4.093-0.827-7.768-2.933-11.843-3.833c-1.844-0.408-3.342-1.777-5.275-2.048
			C269.101,197.771,268.509,197.662,267.902,197.654z"/>
		<path fill-rule="evenodd" clip-rule="evenodd" fill="#7B7265" d="M327.29,194.418c-0.047-1.026-0.532-1.923-1.541-1.966
			c-2.586-0.11-4.734-1.524-7.137-2.152c-1.981-0.518-3.931-1.131-5.759-2.078c-0.202-0.105-0.403-0.252-0.619-0.283
			c-3.797-0.55-7.031-2.759-10.727-3.625c-1.237-0.29-2.465-0.616-3.565-1.404c-1.415-1.014-3.074-0.784-4.568-0.174
			c-1.532,0.626-3.113,1.188-4.499,2.137c-0.457-0.14-0.914-0.281-1.372-0.421c-0.118-0.103-0.158-0.207-0.122-0.313
			c0.037-0.106,0.074-0.16,0.113-0.16c0.078-0.128,0.127-0.321,0.241-0.376c3.423-1.654,6.871-3.078,10.818-1.943
			c3.906,1.123,7.543,3.072,11.593,3.739c2.924,2.014,6.515,2.291,9.693,3.697c2.596,1.148,5.406,1.868,8.055,2.969
			c0.69,0.287,1.478,0.355,1.978,1.007C328.686,192.896,328.114,193.9,327.29,194.418z"/>
		<path fill-rule="evenodd" clip-rule="evenodd" fill="#56545D" d="M274.293,185.318c1.873-0.16,2.493,1.271,3.155,2.566
			c0.401,0.783,0.626,1.656,0.931,2.489c-1.221,0.581-2.36,0.657-3.609-0.104c-1.435-0.874-3.053-0.587-4.553-0.112
			c-1.259,0.398-2.443,1.03-3.66,1.558l-0.074,0.038c-1.532-0.221-2.587,1.462-4.17,1.048c-1.085-1.127-1.316-2.233,0.086-3.295
			c1.445,0.051,2.768-0.268,4.098-0.914c2.276-1.105,4.763-1.756,6.914-3.155C273.635,185.29,273.996,185.353,274.293,185.318z"/>
		<path fill-rule="evenodd" clip-rule="evenodd" fill="#35333C" d="M307.983,201.722c0.486,0.172,0.974,0.344,1.46,0.517
			c1.867,1.102,2.155,1.854,1.259,3.27c-0.364,0.577-0.803,0.953-1.452,0.416c-0.9-0.745-2-1.016-3.07-1.347
			c-0.518-0.16-0.986-0.346-1.344-0.764c-0.728-0.851-0.442-1.81,0.675-1.998C306.317,201.68,307.158,201.746,307.983,201.722z"/>
		<path fill-rule="evenodd" clip-rule="evenodd" fill="#353441" d="M318.553,201.351c-0.331-0.031-0.663-0.063-0.995-0.095
			c-0.313-0.422-0.807-0.333-1.229-0.45c-0.928-0.258-1.152-0.969-0.903-1.766c0.229-0.736,0.691-1.364,1.649-1.163
			c1.1,0.23,2.207,0.432,3.292,0.716c1.168,0.306,1.566,0.994,1.218,1.933c-0.386,1.038-1.297,1.396-2.376,0.951
			C319.007,201.394,318.772,201.391,318.553,201.351z"/>
		<path fill-rule="evenodd" clip-rule="evenodd" fill="#56545D" d="M287.494,183.98c0.003,0.157,0.006,0.315,0.009,0.473
			c-0.677,0.809-0.107,2.257-1.409,2.746c-0.991-0.055-1.907-0.33-2.717-0.919c0.854-0.66,2.195-0.811,2.321-2.229
			C286.297,184.027,286.895,184.003,287.494,183.98z"/>
		<path fill-rule="evenodd" clip-rule="evenodd" fill="#706044" d="M232.326,205.871c0.676,0.046,1.374-0.125,2.024,0.167
			c0.667,0.3,0.757,1.08,0.119,1.415c-0.596,0.313-1.264,0.509-1.918,0.688c-1.521,0.416-2.474,1.358-2.955,2.864
			c-0.261,0.818-0.356,2.057-1.513,1.933c-0.876-0.094-1.073-1.164-1.217-1.993c-0.067-0.389-0.141-0.741-0.506-0.955
			c-1.359,0.07-2.437-0.783-3.568-1.275c-3.479-1.513-7.18-2.335-10.707-3.711c-3.503-1.367-7.069-2.656-10.701-3.684
			c-1.989-0.563-3.913-1.211-5.626-2.376c-1.029-0.7-2.136-0.94-3.202-0.315c-1.082,0.634-0.891,1.72-0.784,2.833
			c0.281,2.949,0.109,5.916,0.115,8.875c0.018,9.033-0.003,18.065,0.012,27.098c0.005,3.118,0.683,4.051,3.632,4.875
			c2.718,0.76,5.165,2.173,7.732,3.267c5.563,2.368,11.294,4.353,16.689,7.114c0.461,0.236,1.046,0.333,0.974,1.052
			c0.544,0.656,1.464,0.935,1.808,1.792c-1.057-0.165-1.955-0.717-2.92-1.115c-3.265-1.349-6.334-3.188-9.837-3.958
			c-0.872-0.191-1.736-0.485-2.464-1.096c-1.243-1.042-2.721-1.632-4.305-1.888c-1.082-0.175-1.988-0.617-2.887-1.225
			c-0.932-0.629-1.933-1.192-3.14-1.198c-0.784-0.004-1.473-0.411-2.091-0.825c-1.588-1.063-3.248-1.957-5.13-2.33
			c-0.781-0.155-0.971-0.601-0.966-1.274c0.003-0.379-0.005-0.758-0.005-1.137c-0.003-14.026-0.006-28.053-0.008-42.08
			c0-0.455-0.013-0.911,0.021-1.364c0.021-0.276-0.073-0.732,0.333-0.735c1.688-0.012,2.546-1.942,4.278-1.809
			c1.34-0.458,2.392-0.011,3.171,1.092c0.881,1.247,2.081,1.982,3.532,2.319c2.445,0.568,4.748,1.576,7.124,2.315
			c6.293,1.958,12.446,4.305,18.645,6.516C228.244,206.513,230.256,205.601,232.326,205.871z"/>
		<path fill-rule="evenodd" clip-rule="evenodd" fill="#4D4746" d="M262.398,189.505c-0.624,1.057-0.563,2.109,0.021,3.158
			c0.216,1.478,1.17,3.12-0.911,4.084c-3.346-0.002-4.514,1.155-4.555,4.604c-0.033,2.79-0.006,5.58-0.007,8.369
			c0,0.528,0.039,1.062-0.023,1.582c-0.135,1.119-0.573,1.503-1.638,1.209c-0.826-0.229-1.626-0.259-2.453-0.229
			c-0.588-0.659-0.094-1.225,0.089-1.871c0.773-2.723,1.152-5.464-0.078-8.177c-1.322-1.315-3.007-0.852-4.581-0.935
			c-0.332-0.194-0.661-0.39-0.457-0.867c0.015-0.324,0.03-0.648,0.045-0.973c0.405-2.305,0.892-2.751,3.333-2.18
			c2.288,0.535,3.864-0.012,5.264-1.928c1.006-1.377,0.83-2.314-0.327-3.305c-1.483-1.269-3.322-1.853-5.137-2.313
			c-3.679-0.933-6.88-3.157-10.689-3.76c-1.15-0.182-2.223-0.999-2.485-2.384c-0.643-0.45-1.363-0.565-2.131-0.519
			c-0.446,0.027-0.897-0.014-1.344,0.013c-0.967,0.06-1.791-0.188-2.276-1.09c-0.525-0.977,0.492-1.453,0.753-2.177
			c0.755,0.053,1.521,0.079,2.207,0.443c2.934,1.557,6.223,2.244,9.178,3.74c2.501,1.266,5.253,1.881,7.794,3.07
			c1.172,0.549,2.213,1.284,3.362,1.846c0.873,0.427,1.703,0.702,2.546,0.056c1.206-0.927,2.314-0.774,3.445,0.146
			C261.619,189.342,262.043,189.381,262.398,189.505z"/>
		<path fill-rule="evenodd" clip-rule="evenodd" fill="#746854" d="M232.326,205.871c-2.226,1.122-4.417,1.009-6.808,0.306
			c-3.623-1.065-7.103-2.552-10.642-3.798c-3.321-1.169-6.847-1.866-10.018-3.551c-1.298-0.69-2.891-0.829-4.351-1.213
			c-1.799-0.474-3.461-1.13-4.368-2.946c-0.519-1.038-1.516-1.149-2.531-1.169c0.214-0.232,0.471-0.391,0.792-0.376
			c2.119,0.093,4.02-0.293,5.568-1.961c0.53-0.571,1.507-0.814,2.325-0.748c1.582,0.127,2.835-0.517,3.874-1.533
			c1.102-1.078,2.374-0.794,3.633-0.737c0.588,0.027,0.888,0.478,1.074,1.028c0.481,1.427,1.619,2.111,2.962,2.568
			c4.074,1.388,8.158,2.747,12.208,4.202c3.116,1.119,6.247,2.233,9.249,3.614c1.417,0.651,2.896,1.113,4.3,1.771
			c-0.226,0.273-0.531,0.397-0.867,0.465c-0.767,0.098-1.535,0.134-2.3-0.023c-3.771-2.154-8.037-3.028-12.026-4.623
			c-3.702-1.48-7.412-2.994-11.328-3.876c-0.326-0.073-0.538-0.143-0.51,0.368c0.01,0.18,0.272-0.093,0.162,0.19
			c-0.747,0.946-1.489,0.178-2.158-0.076c-3.276-1.243-6.552-1.919-9.937-0.414c-0.607,0.27-1.471,0.319-1.463,1.186
			c0.007,0.792,0.749,1.127,1.396,1.317c2.76,0.807,5.48,1.708,8.199,2.658c5.718,2,11.443,3.986,17.138,6.056
			c1.792,0.651,3.498,0.73,5.328,0.126c0.904-0.298,1.953-1.047,2.933-0.034c-0.101,0.491-0.386,0.76-0.903,0.767
			C232.876,205.417,232.542,205.528,232.326,205.871z"/>
		<path fill-rule="evenodd" clip-rule="evenodd" fill="#746854" d="M237.809,183.591c1.296,1.176,2.603,2.198,4.512,2.341
			c1.326,0.1,2.663,0.566,3.835,1.31c2.538,1.612,5.612,1.799,8.263,3.109c0.406,0.201,0.879,0.288,1.249,0.534
			c2.179,1.449,3.038,3.042,0.894,5.29c-1.657,1.739-3.067,2.318-5.295,1.673c-2.128-0.616-2.525-0.324-3.416,1.614
			c0.038-1.982-1.606-2.313-2.916-2.59c-1.215-0.257-2.319-0.65-3.386-1.211c-1.287-0.677-2.74-0.871-4.055-1.403
			c-3.779-1.528-7.703-2.641-11.468-4.229c-2.696-1.137-5.508-2.058-8.272-3.067c-0.426-0.155-0.875-0.256-1.286-0.443
			c-0.394-0.18-0.933-0.338-0.799-0.927c0.087-0.384,0.469-0.542,0.854-0.658c2.169-0.659,4.348-1.292,6.489-2.033
			c0.975-0.337,1.943-0.234,2.918-0.292c0.161,1.273-0.991,1.324-1.683,1.797c-0.436,0.298-0.994,0.533-0.906,1.175
			c0.085,0.623,0.66,0.79,1.165,0.947c7.528,2.347,14.802,5.41,22.281,7.898c1.935,0.644,3.656,1.783,5.671,2.308
			c1.933,0.504,2.386-0.871,3.063-1.979c0.729-1.194-0.252-1.839-1.052-2.378c-1.327-0.896-2.827-1.431-4.369-1.886
			c-3.927-1.158-7.731-2.676-11.547-4.145c-0.667-0.257-1.743-0.297-1.674-1.485C237.189,184.437,237.499,184.014,237.809,183.591z"
			/>
		<path fill-rule="evenodd" clip-rule="evenodd" fill="#C0A254" d="M236.879,184.86c0.796,0.74,1.841,1.123,2.806,1.389
			c3.583,0.987,6.871,2.795,10.481,3.666c1.644,0.396,3.165,1.068,4.607,1.9c2.002,1.153,2.158,2.104,0.818,4.028
			c-1.271,1.826-1.665,2.04-3.762,1.276c-3.463-1.261-6.88-2.651-10.314-3.99c-0.282-0.11-0.542-0.283-0.831-0.371
			c-5.566-1.687-10.873-4.135-16.499-5.649c-0.362-0.098-0.726-0.241-1.046-0.433c-1.017-0.61-1.075-1.362-0.208-2.196
			c0.45-0.433,1.003-0.691,1.582-0.867c0.597-0.181,1.169-0.348,1.415-1.004c0.522-0.044,1.099,0.041,1.555-0.156
			c1.181-0.51,2.294-0.181,3.246,0.361C232.662,183.912,234.771,184.36,236.879,184.86z"/>
		<path fill-rule="evenodd" clip-rule="evenodd" fill="#B0A88C" d="M243.53,201.371c-2.145-0.123-3.916-0.582-5.39-1.357
			c-3.181-1.673-6.599-2.678-9.933-3.861c-3.917-1.39-7.677-3.236-11.754-4.187c-1.252-0.292-2.465-0.787-3.476-1.624
			c-0.707-0.585-1.409-1.234-1.076-2.308c0.254-0.819,1.521-1.383,2.699-1.195c1.724,0.275,3.356,0.86,4.983,1.483
			c3.816,1.459,7.689,2.777,11.474,4.312c3.435,1.393,7.039,2.312,10.416,3.86c0.952,0.437,2.031,0.585,3.031,0.926
			c0.633,0.216,1.343,0.273,1.834,0.837c0.509,0.584,0.769,1.111,0.026,1.728C245.425,200.767,244.542,201.641,243.53,201.371z"/>
		<path fill-rule="evenodd" clip-rule="evenodd" fill="#C5BA98" d="M245.087,208.321c0.026-0.515-0.061-1.423,0.174-2.323
			c0.567-2.173,2.637-3.78,4.854-3.702c1.141,0.041,1.945,0.768,2.125,1.743c0.313,1.707,0.249,3.475-0.039,5.197
			c-0.065,0.393-0.496,0.743-0.803,1.071c-0.837,0.899-1.879,1.547-2.959,2.079c-1.909,0.939-3.239,0.077-3.348-2.083
			C245.064,209.774,245.087,209.242,245.087,208.321z"/>
		<path fill-rule="evenodd" clip-rule="evenodd" fill="#746854" d="M252.843,202.235c0.971,0.407,0.856,1.266,0.924,2.092
			c0.223,2.719-0.244,5.349-0.935,7.956c-0.735,1.524-2.36,1.613-3.641,2.256c-3.912,1.195-6.125-0.456-6.093-4.554
			c0.008-1.124-0.03-2.249,0.072-3.368c0.608-1.44,0.128-2.906,0.093-4.363c0.377-0.001,0.761-0.045,1.132,0.005
			c0.755,0.103,1.038,0.478,0.726,1.26c-0.885,2.214-1.007,4.538-0.945,6.889c0.067,2.597,1.707,3.814,4.225,3.106
			c2.748-0.773,4.741-3.368,4.888-6.343C253.369,205.504,253.219,203.86,252.843,202.235z"/>
		<path fill-rule="evenodd" clip-rule="evenodd" fill="#3A373E" d="M243.263,202.254c1.128,1.254,1.209,2.625,0.456,4.09
			c-0.455,0.354-0.91,0.354-1.366,0c-0.42-0.204-0.737-0.515-0.954-0.927c-0.746-0.438-1.609-0.24-2.407-0.442
			c-1.058-0.267-1.82-0.789-1.978-1.89c-0.177-1.238,0.879-1.398,1.689-1.744c0.296-0.005,0.593-0.01,0.89-0.014l0.02,0.005
			c0.369,0.389,0.943,0.06,1.332,0.379C241.635,202.244,242.447,202.256,243.263,202.254z"/>
		<path fill-rule="evenodd" clip-rule="evenodd" fill="#746854" d="M247.805,200.434c0.152,0.289,0.305,0.578,0.457,0.867
			c-0.229,0.35-0.458,0.215-0.637-0.03C247.384,200.943,247.407,200.64,247.805,200.434z"/>
		<path fill-rule="evenodd" clip-rule="evenodd" fill="#746854" d="M240.944,201.711c-0.494,0.049-0.989,0.099-1.332-0.379
			C240.095,201.322,240.604,201.219,240.944,201.711z"/>
		<path fill-rule="evenodd" clip-rule="evenodd" fill="#505060" d="M285.698,184.05c0.51,1.763,0.37,2.026-1.205,2.205
			c-0.368,0.042-0.743,0.018-1.116,0.024l0.01-0.001c-0.355-0.463-0.998-0.064-1.376-0.458c-0.895,0.025-1.689-0.199-2.285-0.917
			c-0.34-1.963,0.727-2.185,2.261-1.824C283.055,184.049,284.38,184.038,285.698,184.05z"/>
		<path fill-rule="evenodd" clip-rule="evenodd" fill="#56545D" d="M281.986,183.08c-1.296-0.064-2.048,0.545-2.261,1.824
			c-0.667-0.009-1.106-0.354-1.389-0.934c0.688-1.35,1.905-1.459,3.208-1.368C281.692,182.761,281.84,182.92,281.986,183.08z"/>
		<path fill-rule="evenodd" clip-rule="evenodd" fill="#E5BD53" d="M231.418,254.857c-1.019-0.736-0.917-1.819-0.916-2.886
			c0.016-9.26,0.027-18.519,0.031-27.778c0.002-3.719-0.033-7.438-0.021-11.156c0.008-2.858,0.876-3.887,3.731-4.449
			c1.217-0.239,2.297-0.752,3.286-1.472c0.622-0.452,1.228-0.844,2.06-0.814c1.326,0.049,1.822,0.398,1.871,1.732
			c0.064,1.743-0.037,3.491,0.009,5.235c0.085,3.25,1.717,4.476,4.902,3.812c1.893-0.395,3.565-1.227,5.154-2.292
			c0.756-0.508,1.566-1.031,2.529-0.538c1.056,0.541,1.064,1.54,1.061,2.559c-0.024,7.514-0.046,15.027-0.028,22.541
			c0.002,0.864-0.323,1.846,0.517,2.562c0.003,0.076-0.02,0.164,0.011,0.227c1.189,2.548,0.994,2.478-1.539,3.59
			c-3.042,1.337-6.278,2.217-9.179,3.882c-0.389,0.224-0.798,0.449-1.228,0.561c-3.036,0.789-5.704,2.451-8.583,3.614
			C233.878,254.274,232.695,254.685,231.418,254.857z"/>
		<path fill-rule="evenodd" clip-rule="evenodd" fill="#6F614B" d="M267.889,246c1.258,0.005,2.291,0.532,3.188,1.375
			c-0.749,0.49-1.502,0.26-2.256,0.015l-0.047-0.025C268.479,246.909,268.185,246.454,267.889,246z"/>
		<path fill-rule="evenodd" clip-rule="evenodd" fill="#A3A3AA" d="M235.887,258.396c-0.788-0.146-1.652,0.133-2.516-0.451
			c0.365-0.721,1.014-0.854,1.636-1.069c1.772-0.616,3.669-0.944,5.1-2.352c0.344-0.339,0.951-0.459,1.461-0.572
			c1.484-0.327,2.806-1.138,4.202-1.564c3.565-1.092,6.636-3.281,10.207-4.296c1.101-0.313,2.125-0.793,3.12-1.344
			c2.12-1.175,4.233-1.016,6.25,0.178c0.861,0.51,1.764,0.853,2.68,1.201c3.802,1.445,7.557,3.001,11.19,4.83
			c0.421,0.212,0.86,0.262,1.289,0.393c1.513,0.463,3.033,0.885,4.376,1.804c1.067,0.73,2.319,1.081,3.588,1.354
			c0.66,0.143,1.306,0.372,1.945,0.599c0.291,0.103,0.515,0.349,0.515,0.674c0,0.381-0.32,0.48-0.623,0.509
			c-0.604,0.058-1.209,0.081-1.813,0.119c-0.054-0.06-0.109-0.119-0.167-0.177c-5.232-1.728-10.22-4.084-15.316-6.149
			c-2.933-1.188-5.925-2.298-8.767-3.711c-1.49-0.74-2.747-0.625-4.31-0.044c-5.671,2.106-10.992,5.048-16.774,6.883
			c-2.444,0.775-4.599,2.295-7.083,3.015C236.012,258.279,235.949,258.336,235.887,258.396z"/>
		<path fill-rule="evenodd" clip-rule="evenodd" fill="#796F60" d="M268.821,247.389c0.752-0.005,1.504-0.01,2.256-0.015
			c0.602,0.717,1.646,0.322,2.298,0.911c1.134,1.125,2.783,1.086,4.092,1.817v0c0.36,0.433,0.985,0.054,1.359,0.444
			c0.311,0.155,0.621,0.312,0.931,0.467c0.442,0.463,1.647,0.202,1.322,1.393c-1.046,0.046-1.782-0.726-2.673-1.018
			c-2.406-0.79-4.784-1.545-6.927-2.99C270.742,247.902,269.592,248.063,268.821,247.389z"/>
		<path fill-rule="evenodd" clip-rule="evenodd" fill="#6F614B" d="M281.079,252.407c-0.127-0.762-1.007-0.81-1.322-1.393
			c2.042,0.221,3.835,1.042,5.462,2.264c-1.164,0.637-2.113-0.365-3.187-0.419C281.654,252.836,281.297,252.769,281.079,252.407z"/>
		<path fill-rule="evenodd" clip-rule="evenodd" fill="#796F60" d="M282.032,252.859c1.112-0.241,2.093,0.522,3.187,0.419
			c0.308,0.156,0.616,0.313,0.924,0.469c0.858,0.685,2.358,0.393,2.741,1.802l-0.046,0.059c-0.602-0.034-1.268,0.097-1.771-0.276
			C285.535,254.195,283.671,253.762,282.032,252.859z"/>
		<path fill-rule="evenodd" clip-rule="evenodd" fill="#DCDBDA" d="M236.078,258.224c0.171-0.547,0.561-0.976,1.066-1.105
			c3.002-0.773,5.688-2.357,8.542-3.486c2.976-1.177,6.24-1.872,8.878-3.897c0.459-0.352,1.099-0.523,1.684-0.647
			c1.482-0.317,2.902-0.75,4.163-1.632c1.237-0.866,2.549-0.531,3.647,0.146c1.319,0.812,2.679,1.377,4.186,1.651
			c0.292,0.053,0.605,0.156,0.841,0.329c2.597,1.904,5.971,2.112,8.604,3.966c0.585,0.411,1.423,0.471,2.15,0.669
			c1.241,0.339,2.452,0.698,3.528,1.483c0.976,0.712,2.061,1.225,3.338,1.308c0.709,0.047,1.565,0.184,1.623,1.224
			C270.911,258.35,253.494,258.363,236.078,258.224z"/>
		<path fill-rule="evenodd" clip-rule="evenodd" fill="#6F614B" d="M288.884,255.549c-0.9-0.621-2.027-0.898-2.741-1.802
			c1.705-0.184,2.899,0.79,4.078,1.8C289.774,255.547,289.329,255.548,288.884,255.549z"/>
		<path fill-rule="evenodd" clip-rule="evenodd" fill="#C7A654" d="M260.521,116.023c0.781-0.046,1.589,0.047,2.357,0.461
			c1.679,0.904,3.479,1.474,5.336,1.889c0.589,0.131,1.204,0.275,1.724,0.564c3.336,1.854,7.168,2.357,10.608,3.944
			c1.912,0.882,4.07,1.135,5.965,2.153c0.703,0.378,1.543,0.634,2.408,0.584c0.622-0.037,1.203,0.142,1.742,0.444
			c1.116,0.627,1.271,1.684,0.151,2.287c-2.32,1.25-4.713,2.629-7.507,1.538c-3.095-1.209-6.15-2.521-9.221-3.793
			c-0.138-0.057-0.242-0.218-0.379-0.246c-3.505-0.703-6.627-2.542-10.064-3.416c-1.842-0.469-3.484-1.422-5.303-1.924
			c-0.735-0.203-1.473-0.325-2.219-0.451c-0.625-0.105-1.13-0.525-1.288-1.15c-0.155-0.612,0.361-1.011,0.775-1.283
			C257.073,116.663,258.626,115.901,260.521,116.023z"/>
		<path fill-rule="evenodd" clip-rule="evenodd" fill="#C3A353" d="M260.668,138.898c-2.427-0.096-4.169-0.826-5.883-1.637
			c-0.407-0.192-0.759-0.579-1.177-0.656c-3.595-0.657-6.831-2.423-10.345-3.319c-1.468-0.375-2.906-0.808-4.241-1.573
			c-1.53-0.877-3.277-1.135-4.967-1.542c-1.409-0.34-2.779-0.801-3.969-1.638c-1.184-0.832-1.05-1.831,0.327-2.345
			c4.418-1.648,8.835-2.022,13.089,0.464c3.434,2.006,7.487,2.438,10.915,4.429c3.055,0.146,5.389,2.334,8.296,2.935
			c0.749,0.155,1.502,0.172,2.237,0.326c0.901,0.188,1.494,0.747,1.542,1.709c0.043,0.875-0.487,1.559-1.237,1.714
			C263.563,138.115,262.001,139.108,260.668,138.898z"/>
		<path fill-rule="evenodd" clip-rule="evenodd" fill="#E6DBAC" d="M247.402,121.034c1.426-0.205,2.684,0.652,3.998,1.177
			c3.796,1.516,7.63,2.917,11.466,4.326c3.552,1.304,7.177,2.437,10.64,3.976c0.845,0.376,1.75,0.487,2.586,0.832
			c0.54,0.223,1.283,0.425,1.175,1.185c-0.104,0.734-0.704,1.173-1.445,1.225c-0.597,0.042-1.22,0.012-1.801-0.12
			c-0.811-0.184-1.621-0.428-2.383-0.759c-7.922-3.45-16.2-5.95-24.222-9.132c-0.49-0.194-0.981-0.421-1.412-0.72
			c-0.426-0.295-0.931-0.668-0.711-1.288c0.202-0.568,0.755-0.692,1.314-0.699C246.835,121.031,247.063,121.034,247.402,121.034z"/>
		<path fill-rule="evenodd" clip-rule="evenodd" fill="#F8EFBB" d="M277.889,141.205c0.055-0.679,0.018-1.38,0.181-2.032
			c0.455-1.819,2.162-2.697,3.903-2.086c0.465,0.163,0.834,0.462,0.876,0.946c0.115,1.36,0.251,2.748-0.076,4.076
			c-0.287,1.165-2.514,2.368-3.71,2.167c-0.694-0.117-1.066-0.556-1.101-1.246c-0.03-0.606-0.007-1.214-0.007-1.822
			C277.934,141.207,277.911,141.206,277.889,141.205z"/>
		<path fill-rule="evenodd" clip-rule="evenodd" fill="#D3A644" d="M292.996,232.232c0,6.453,0.007,12.905-0.003,19.357
			c-0.004,2.596-1.022,3.294-3.386,2.274c-3.888-1.679-7.688-3.584-11.652-5.054c-3.122-1.157-5.988-2.926-9.257-3.719
			c-0.866-0.21-1.728-0.626-2.468-1.13c-0.964-0.657-1.965-1.106-3.106-1.313c-0.517-0.093-1.035-0.269-1.508-0.5
			c-1.808-0.888-3.039-2.078-2.926-4.376c0.153-3.105-0.015-6.225,0.078-9.334c0.266-8.951-0.549-17.883-0.442-26.83
			c0.014-1.19-0.318-2.542,1.03-3.252c1.321-0.695,2.501-0.125,3.565,0.7c1.354,1.05,2.905,1.563,4.563,1.915
			c1.537,0.326,3.069,0.621,4.454,1.563c0.897,0.611,2.127,0.749,3.22,1.055c1.528,0.427,3.084,0.754,4.414,1.71
			c0.89,0.639,2.001,0.761,3.021,0.918c1.686,0.259,3.219,0.833,4.701,1.613c0.811,0.427,1.648,0.687,2.57,0.838
			c2.152,0.354,3.102,1.533,3.109,3.752c0.021,6.604,0.007,13.208,0.007,19.812C292.986,232.232,292.991,232.232,292.996,232.232z"
			/>
		<path fill-rule="evenodd" clip-rule="evenodd" fill="#FAD460" d="M234.159,204.646c-1.309,0.001-2.512,0.491-3.728,0.87
			c-1.211,0.377-2.369,0.403-3.567-0.015c-1.646-0.575-3.351-0.992-4.891-1.848c-0.199-0.111-0.401-0.245-0.618-0.289
			c-3.732-0.757-7.08-2.667-10.759-3.576c-1.331-0.33-2.628-0.724-3.819-1.43c-1.603-0.952-3.45-1.127-5.213-1.544
			c-0.903-0.214-1.74-0.517-2.53-0.984c-0.558-0.329-0.948-0.763-0.911-1.458c0.045-0.828,0.618-1.104,1.31-1.357
			c4.952-1.813,7.55-1.673,12.428,0.739c0.292,0.145,0.563,0.195,0.863,0.074c0.203,1.057,1.145,1.171,1.907,1.317
			c3.936,0.757,7.438,2.747,11.244,3.899c2.343,0.708,4.557,1.836,7.016,2.305C234.598,201.674,234.817,202.475,234.159,204.646z"/>
		<path fill-rule="evenodd" clip-rule="evenodd" fill="#A38240" d="M220.924,253.741c-2.631-1.083-5.282-2.184-7.826-3.393
			c-2.869-1.364-5.871-2.377-8.768-3.626c-3.235-1.394-6.331-3.207-9.83-4c-1.791-0.406-3.326-2.372-3.288-4.623
			c0.121-7.205,0.054-14.413,0.057-21.62c0.002-4.4,0.008-8.8-0.007-13.2c-0.002-0.753,0.035-1.549-0.185-2.25
			c-0.413-1.314,0.085-2.293,1.045-2.987c0.985-0.712,2.282-0.708,3.221-0.053c2.417,1.689,5.133,2.503,7.936,3.16
			c0.815,0.191,1.594,0.49,2.276,0.997c0.122,0.09,0.233,0.229,0.37,0.26c3.473,0.783,6.717,2.224,10.059,3.389
			c1.623,0.566,3.369,0.787,4.911,1.649c0.523,0.292,1.097,0.588,1.677,0.664c1.496,0.195,2.704,0.89,3.786,1.877
			c0.444,6.252-0.097,12.505,0.021,18.76c0.117,6.209,0.02,12.423,0.029,18.636c0.002,1.205-0.085,2.407,0.315,3.598
			c0.238,0.708,0.184,1.494-0.083,2.234c-0.709,1.973-2.155,2.463-3.868,1.214C222.191,254.005,221.646,253.689,220.924,253.741z"/>
		<path fill-rule="evenodd" clip-rule="evenodd" fill="#706044" d="M242.353,206.344c0.455,0,0.911-0.001,1.366-0.001
			c-0.635,1.833,0.015,3.664,0.05,5.493c0.024,1.297,1.618,2.526,3.18,2.677c0.742,0.071,1.495,0.021,2.242,0.026
			c-0.843,0.938-1.941,1.327-3.145,1.589c-2.119,0.461-3.428-0.32-3.648-2.436c-0.124-1.193-0.236-2.478,0.075-3.603
			C242.839,208.764,242.75,207.581,242.353,206.344z"/>
		<path fill-rule="evenodd" clip-rule="evenodd" fill="#6F614B" d="M261.508,196.748c0.51-0.79,1.164-1.493,0.634-2.606
			c-0.175-0.366,0.17-0.979,0.277-1.479c1.354-0.308,2.563-1.259,4.064-0.911c-0.433,0.664-1.28,0.286-1.813,0.735
			c-0.765,0.644-1.472,1.297-1.333,2.427c-0.106,0.671,0.807,1.407-0.07,2.008C262.679,197.327,262.035,197.387,261.508,196.748z"/>
		<path fill-rule="evenodd" clip-rule="evenodd" fill="#706044" d="M238.703,201.341c-0.423,0.571-1.473,0.712-1.296,1.678
			c0.189,1.032,1.058,1.31,1.938,1.647c0.68,0.261,1.555,0.017,2.053,0.75c-0.742-0.001-1.482,0.007-2.223-0.005
			c-2.254-0.037-2.687-0.472-2.75-2.754c-0.008-0.296,0-0.593,0-0.889C237.069,201.008,237.929,201.404,238.703,201.341z"/>
		<path fill-rule="evenodd" clip-rule="evenodd" fill="#6F614B" d="M277.467,250.103c-1.683,0.111-3.184-0.186-4.092-1.817
			C274.763,248.837,276.539,248.516,277.467,250.103z"/>
		<path fill-rule="evenodd" clip-rule="evenodd" fill="#6F614B" d="M278.826,250.547c-0.5-0.002-1.032,0.089-1.359-0.444
			C277.963,250.119,278.496,250.023,278.826,250.547z"/>
		<path fill-rule="evenodd" clip-rule="evenodd" fill="#B1A98E" d="M310.189,201.333c-1.89-0.196-3.801-0.603-5.436-1.481
			c-3.035-1.63-6.342-2.489-9.502-3.744c-4.363-1.732-8.83-3.205-13.264-4.76c-0.949-0.333-1.8-0.758-2.51-1.493
			c-0.664-0.687-0.81-1.479-0.515-2.308c0.319-0.896,1.164-0.834,1.932-0.822c1.945,0.03,3.679,0.839,5.444,1.507
			c5.386,2.037,10.694,4.31,16.167,6.076c3.246,1.047,6.308,2.585,9.64,3.379c1.558,0.371,1.778,1.465,0.721,2.685
			C312.139,201.213,311.233,201.409,310.189,201.333z"/>
		<path fill-rule="evenodd" clip-rule="evenodd" fill="#C5BA98" d="M318.971,206.534c0.003,3.493-0.885,4.935-3.623,5.933
			c-1.922,0.701-3.148-0.057-3.243-2.064c-0.058-1.207-0.063-2.422,0.016-3.626c0.164-2.544,2.592-4.667,5.085-4.488
			c1.064,0.076,1.64,0.754,1.747,1.754C319.041,204.864,318.971,205.703,318.971,206.534z"/>
		<path fill-rule="evenodd" clip-rule="evenodd" fill="#56545D" d="M282.011,185.82c0.509,0,1.053-0.104,1.376,0.458
			C282.883,186.259,282.354,186.318,282.011,185.82z"/>
		<path fill-rule="evenodd" clip-rule="evenodd" fill="#F9D45F" d="M320.497,196.376c-0.598-0.08-1.317,0.029-1.771-0.269
			c-2.824-1.848-6.136-2.578-9.195-3.793c-3.389-1.346-6.792-2.82-10.353-3.739c-1.254-0.324-2.522-0.559-3.583-1.33
			c-0.902-0.656-2.022-0.574-2.984-1.006c-0.43-0.193-0.854-0.375-0.839-0.93c0.013-0.429,0.34-0.678,0.685-0.829
			c1.543-0.677,3.14-1.217,4.769-0.378c1.571,0.81,3.254,1.275,4.95,1.594c1.327,0.25,2.252,1.182,3.497,1.562
			c5.124,1.565,10.194,3.299,15.157,5.332c0.836,0.342,1.72,0.572,2.654,0.537c0.563-0.021,1.058,0.199,1.271,0.768
			c0.247,0.658-0.266,0.92-0.684,1.259C323.024,196.003,321.886,196.518,320.497,196.376z"/>
		<path fill-rule="evenodd" clip-rule="evenodd" fill="#CEAC56" d="M272.391,191.693c2.303,0.446,4.855,1.089,7.163,2.474
			c0.452,0.271,0.824,0.682,1.38,0.763c4.082,0.596,7.502,3.218,11.61,3.781c0.77,0.105,1.45,0.783,2.197,1.145
			c1.578,0.766,3.293,1.089,4.995,1.426c1.095,0.216,1.865,0.731,1.858,1.916c-0.006,1.164-1.028,1.335-1.85,1.711
			c-3.511,1.607-6.798,0.71-10.006-0.888c-1.368-0.682-2.779-1.172-4.271-1.496c-1.254-0.272-2.454-0.716-3.637-1.252
			c-1.363-0.618-2.724-1.277-4.28-1.438c-0.959-0.099-1.964-0.418-2.801-0.897c-2.077-1.191-4.361-1.666-6.635-2.228
			c-0.727-0.18-1.491-0.396-2.104-0.8c-1.279-0.843-1.149-2.683,0.301-3.026C268.21,192.437,270.078,191.734,272.391,191.693z"/>
		<path fill-rule="evenodd" clip-rule="evenodd" fill="#F9D35F" d="M252.785,196.314c-0.559,0.032-1.103-0.141-1.623-0.522
			c-1.176-0.861-2.53-1.371-3.922-1.742c-3.271-0.871-6.381-2.263-9.504-3.471c-3.997-1.546-8.102-2.771-12.08-4.348
			c-0.44-0.175-0.882-0.317-0.904-0.861c-0.022-0.542,0.409-0.798,0.83-0.958c1.57-0.597,3.154-0.988,4.804-0.242
			c2.89,1.307,5.928,2.352,8.91,3.268c3.6,1.106,6.93,3.014,10.698,3.577c1.458,0.218,2.558,1.263,3.899,1.776
			c0.816,0.313,1.351,0.992,1.174,1.978C254.9,195.7,254.004,196.313,252.785,196.314z"/>
		<path fill-rule="evenodd" clip-rule="evenodd" fill="#E5DAAC" d="M215.726,188.059c1.166-0.009,2.19,0.498,3.255,0.889
			c3.828,1.406,7.624,2.907,11.436,4.342c3.53,1.328,7.19,2.334,10.614,3.948c0.889,0.419,1.743,0.902,2.778,0.919
			c0.671,0.011,1.217,0.374,1.203,1.099c-0.017,0.85-0.657,1.087-1.411,1.149c-1.815,0.149-3.457-0.526-5.017-1.248
			c-4.058-1.877-8.313-3.203-12.501-4.724c-3.411-1.239-6.751-2.674-10.242-3.695c-0.288-0.084-0.566-0.226-0.823-0.383
			c-0.576-0.35-1.345-0.698-1.181-1.481C214.044,187.886,214.99,188.113,215.726,188.059z"/>
		<path fill-rule="evenodd" clip-rule="evenodd" fill="#F8EFBA" d="M251.011,207.027c-0.007,2.571-0.329,3.078-2.504,3.957
			c-1.308,0.528-2.237,0.048-2.449-1.34c-0.234-1.531,0.09-3.025,0.602-4.45c0.329-0.914,2.349-1.747,3.317-1.526
			c0.7,0.16,0.998,0.649,1.026,1.313C251.033,205.662,251.011,206.345,251.011,207.027z"/>
		<path fill-rule="evenodd" clip-rule="evenodd" fill="#F9D35F" d="M260.591,116.952c0.042,0.005,0.653-0.084,1.075,0.157
			c2.724,1.558,5.997,1.667,8.668,3.339c0.256,0.16,0.533,0.333,0.821,0.385c3.221,0.571,6.106,2.185,9.251,2.973
			c2.938,0.736,5.551,2.406,8.587,2.87c0.754,0.115,0.548,0.722,0.124,1.202c-1.269,1.437-3.726,2.164-5.621,1.117
			c-2.601-1.435-5.652-1.735-8.101-3.474c-0.356-0.253-0.839-0.34-1.274-0.465c-2.168-0.623-4.413-0.997-6.313-2.392
			c-0.573-0.421-1.413-0.564-2.153-0.655c-1.303-0.161-2.502-0.573-3.657-1.161c-1.146-0.583-2.26-1.204-3.613-1.259
			c-0.568-0.022-1.265-0.271-1.35-1.004c-0.086-0.733,0.527-1.003,1.075-1.296C258.742,116.95,259.418,116.939,260.591,116.952z"/>
		<path fill-rule="evenodd" clip-rule="evenodd" fill="#FAD460" d="M260.403,138.014c-1.51,0.089-2.842-0.271-4.039-1.242
			c-1.289-1.046-2.949-1.115-4.478-1.493c-1.405-0.347-2.807-0.647-3.983-1.559c-0.119-0.092-0.253-0.208-0.39-0.225
			c-4.25-0.513-7.831-3.197-12.059-3.73c-1.176-0.148-2.154-0.713-3.212-1.09c-0.978-0.349-1.079-1.741-0.213-1.881
			c1.86-0.301,3.578-1.469,5.51-1.109c1.476,0.275,2.993,0.656,4.322,1.326c2.508,1.265,4.952,2.602,7.831,2.809
			c0.285,0.02,0.602,0.173,0.829,0.357c1.718,1.397,3.83,1.759,5.887,2.242c0.758,0.178,1.446,0.441,2.062,0.899
			c1.193,0.889,2.548,1.31,4.015,1.412c1.007,0.07,2.027,0.214,2.478,1.254c0.268,0.621-0.785,1.436-2.308,1.776
			C261.922,137.925,261.154,137.934,260.403,138.014z"/>
		<path fill-rule="evenodd" clip-rule="evenodd" fill="#D3A644" d="M225.496,231.863c0,6.458,0.007,12.917-0.003,19.376
			c-0.004,2.631-0.74,2.994-3.178,1.939c-2.639-1.141-5.287-2.292-7.899-3.467c-2.745-1.235-5.701-1.946-8.325-3.494
			c-1-0.59-2.36-0.748-3.364-1.28c-2.887-1.531-5.993-2.49-8.944-3.833c-1.544-0.703-1.631-1.967-1.626-3.412
			c0.034-11.17,0.029-22.339,0.034-33.509c0-1.292-0.062-2.586-0.004-3.875c0.073-1.628,1.028-2.253,2.421-1.395
			c4.432,2.731,9.548,3.549,14.323,5.311c0.71,0.262,1.444,0.483,2.116,0.824c1.356,0.689,2.699,1.318,4.258,1.492
			c1.274,0.142,2.488,0.627,3.618,1.283c1.057,0.613,2.192,1.045,3.406,1.223c2.663,0.391,3.156,0.938,3.16,3.667
			c0.008,6.383,0.003,12.766,0.003,19.149C225.492,231.863,225.494,231.863,225.496,231.863z"/>
		<path fill-rule="evenodd" clip-rule="evenodd" fill="#E3D8AB" d="M309.639,200.405c-1.181-0.208-2.598-0.449-3.887-1.138
			c-1.879-1.003-3.919-1.586-5.885-2.357c-3.308-1.297-6.697-2.367-9.984-3.722c-2.232-0.92-4.562-1.607-6.847-2.399
			c-0.724-0.25-1.411-0.561-1.932-1.152c-0.319-0.362-0.521-0.776-0.313-1.245c0.246-0.55,0.714-0.803,1.304-0.644
			c1.313,0.354,2.641,0.636,3.903,1.186c3.264,1.42,6.596,2.666,9.946,3.868c4.2,1.507,8.37,3.096,12.559,4.635
			c0.709,0.261,1.433,0.507,2.17,0.659c0.728,0.149,1.425,0.359,1.361,1.215c-0.074,0.985-0.893,1.094-1.697,1.094
			C310.186,200.405,310.034,200.405,309.639,200.405z"/>
		<path fill-rule="evenodd" clip-rule="evenodd" fill="#F8EFBB" d="M318.049,206.791c-0.014,2.909-0.518,3.608-2.736,4.168
			c-1.013,0.255-1.597-0.07-2.002-0.94c-0.808-1.729,0.291-5.043,1.978-5.967c1.74-0.954,2.691-0.402,2.759,1.604
			C318.06,206.033,318.049,206.412,318.049,206.791z"/>
		<path fill-rule="evenodd" clip-rule="evenodd" fill="#FAD560" d="M272.146,193.107c2.199-0.202,4.252,0.336,6.106,1.734
			c1.173,0.884,2.655,1.05,4.041,1.411c0.361,0.095,0.851-0.05,1.112,0.144c3.045,2.25,7.111,2.033,10.168,4.262
			c1.345,0.98,3.074,0.615,4.588,1.073c0.662,0.2,1.424,0.168,1.553,1.024c0.149,0.994-0.681,1.296-1.372,1.544
			c-2.228,0.798-4.384,0.719-6.484-0.532c-1.356-0.808-2.767-1.455-4.409-1.69c-1.614-0.232-3.255-0.654-4.635-1.702
			c-0.402-0.306-0.969-0.418-1.476-0.561c-2.381-0.666-4.826-1.053-6.98-2.47c-1.329-0.873-3.093-0.551-4.613-1.026
			c-1.092-0.34-2.601-0.589-2.504-1.849c0.101-1.32,1.72-1.153,2.78-1.341C270.683,193.011,271.382,193.107,272.146,193.107z"/>
	</g>
</g>
</svg>
