<?xml version="1.0" encoding="utf-8"?>
<!-- Generator: Adobe Illustrator 16.0.0, SVG Export Plug-In . SVG Version: 6.00 Build 0)  -->
<!DOCTYPE svg PUBLIC "-//W3C//DTD SVG 1.1//EN" "http://www.w3.org/Graphics/SVG/1.1/DTD/svg11.dtd">
<svg version="1.1" id="Layer_1" xmlns="http://www.w3.org/2000/svg" xmlns:xlink="http://www.w3.org/1999/xlink" x="0px" y="0px"
	 width="500px" height="500px" viewBox="0 0 500 500" enable-background="new 0 0 500 500" xml:space="preserve">
<g>
	<g>
		<path fill-rule="evenodd" clip-rule="evenodd" fill="#FFFFFF" d="M-0.54-0.516c167.671,0,335.343,0,503.067,0
			c0,167.628,0,335.28,0,503.015c-167.653,0-335.36,0-503.067,0C-0.54,334.885-0.54,167.197-0.54-0.516z"/>
		<path fill-rule="evenodd" clip-rule="evenodd" fill="#DCDBDB" d="M485.788,250.188c-0.821,65.349-23.687,120.498-68.358,166.677
			c-46.855,45.416-102.698,69.206-168.161,68.601c-65.006-0.602-120.641-24.524-165.912-70.996
			C38.594,368.52,17.164,312.685,16.938,248.627c1.601-63.198,24.472-117.454,68.446-162.841
			c47.155-45.805,103.584-68.8,169.342-68.847C319.113,18.843,374.51,42.038,419.443,88.3
			C463.348,133.502,484.832,188.271,485.788,250.188z"/>
		<path fill-rule="evenodd" clip-rule="evenodd" fill="#273445" d="M150.677,144.022c-0.75-0.36-1.527-0.18-2.278-0.191
			c-4.594-0.071-9.191,0.151-13.779-0.254c-1.142-0.101-2.288-0.13-3.395-0.49c-2.417-0.785-4.053-3.132-3.877-5.596
			c0.171-2.387,2.198-4.749,4.588-5.082c2.57-0.358,5.149-0.633,7.77-0.325c3.361,0.396,6.728-0.209,10.095-0.123
			c0.84,0.021,0.998-0.391,1.022-1.12c0.084-2.522,0.259-5.042,0.333-7.564c0.084-2.874,1.219-5.313,2.857-7.607
			c1.311-1.837,2.935-3.32,4.724-4.652c2.025-1.508,4.263-2.269,6.827-2.252c4.828,0.032,9.657-0.069,14.485-0.104
			c57.325-0.412,114.651-0.215,171.977-0.147c3.595,0.004,7.189,0.302,10.786,0.405c1.034,0.03,1.993,0.289,2.848,0.778
			c4.08,2.335,7.411,5.366,9.183,9.885c0.497,1.267,0.557,2.52,0.557,3.823c-0.003,51.042-0.004,102.085-0.005,153.128
			c0,33.033-0.058,66.066,0.068,99.099c0.017,4.525-1.681,7.964-4.648,11.042c-0.53,0.55-1.126,1.037-1.706,1.537
			c-2.464,2.123-5.253,3.175-8.574,3.281c-12.26,0.392-24.52,0.258-36.778,0.26c-52.807,0.011-105.614-0.036-158.42-0.025
			c-1.603,0-2.979-0.379-4.352-1.144c-2.09-1.164-4.077-2.456-5.669-4.251c-2.684-3.025-4.166-6.477-4.102-10.641
			c0.083-5.359-0.111-10.724-0.186-16.086c-0.004-0.307,0.006-0.614-0.017-0.92c-0.163-2.202-0.165-2.189-2.422-2.218
			c-4.825-0.06-9.653,0.139-14.475-0.178c-0.759-0.05-1.514-0.168-2.272-0.233c-3.363-0.287-5.701-4.676-3.594-8.209
			c1.13-1.894,2.608-3.151,5.182-3.048c5.126,0.206,10.268,0.065,15.402,0.059c1.996-0.003,1.997-0.015,1.98-1.914
			c-0.019-2.144,0.131-4.282,0.188-6.423c0.119-4.508-0.389-9.014-0.006-13.535c0.179-2.107,0.004-2.103-2.193-2.04
			c-5.512,0.157-11.027,0.188-16.521-0.32c-4.215-0.391-6.325-5.19-3.818-8.63c1.238-1.699,2.694-2.852,5.152-2.747
			c5.279,0.225,10.574,0.076,15.862,0.072c1.473-0.001,1.683-0.12,1.527-1.496c-0.321-2.834-0.075-5.649-0.006-8.478
			c0.073-2.98-0.141-5.967-0.171-8.951c-0.012-1.22,0.139-2.44,0.197-3.662c0.04-0.828-0.29-1.28-1.208-1.243
			c-1.147,0.046-2.302-0.045-3.448,0.02c-4.598,0.261-9.178-0.114-13.768-0.256c-4.009-0.124-5.85-4.077-4.862-7.183
			c0.824-2.592,2.89-4.179,5.547-4.178c5.211,0.002,10.423,0.01,15.635,0.002c2.1-0.003,2.261-0.032,2.082-2.169
			c-0.5-5.964,0.403-11.933-0.18-17.89c-0.06-0.607-0.026-1.227,0-1.838c0.083-1.908,0.09-1.917-1.911-1.923
			c-3.142-0.01-6.285,0.003-9.427-0.011c-2.217-0.01-4.43-0.094-6.646-0.223c-2.435-0.142-4.152-1.18-4.983-3.373
			c-0.886-2.336-0.351-4.513,1.408-6.353c1.103-1.153,2.297-1.746,4.022-1.698c5.131,0.142,10.269,0.056,15.403,0.05
			c2.332-0.002,2.365-0.012,2.334-2.433c-0.034-2.678-0.359-5.372-0.157-8.028c0.297-3.914-0.029-7.8-0.059-11.698
			c-0.012-1.613-0.038-1.622-1.628-1.652c-4.901-0.091-9.808,0.192-14.705-0.211c-0.915-0.076-1.841-0.126-2.735-0.317
			c-2.615-0.558-4.424-2.835-4.393-5.433c0.031-2.531,2.191-5.054,4.744-5.449c0.979-0.151,1.983-0.186,2.976-0.191
			c4.599-0.023,9.197-0.011,13.795-0.025c1.959-0.006,2.023-0.019,2.127-2.028c0.092-1.757,0.133-3.533-0.008-5.283
			c-0.191-2.375-0.2-4.727,0.005-7.102c0.245-2.828-0.107-5.658-0.173-8.488c-0.026-1.131-0.828-0.885-1.461-0.888
			c-3.985-0.016-7.972-0.055-11.956,0.01c-1.854,0.03-3.666-0.257-5.467-0.552c-2.821-0.462-4.764-3.006-4.576-5.72
			c0.186-2.678,2.452-5.013,5.232-5.191c5.127-0.329,10.266-0.113,15.398-0.156c2.654-0.022,2.599-0.011,2.852-2.565
			c0.265-2.679,0.132-5.338,0.027-8.019c-0.12-3.053,0.091-6.119,0.172-9.179C151.068,146.572,150.952,145.292,150.677,144.022z"/>
		<path fill-rule="evenodd" clip-rule="evenodd" fill="#FDBD68" d="M363.631,250.122c0,31.73,0.029,63.458-0.016,95.188
			c-0.015,10.499-0.22,20.998-0.337,31.496c-0.027,2.476-0.026,2.465-2.593,2.549c-12.794,0.418-25.592,0.451-38.39,0.524
			c-15.021,0.086-30.041,0.229-45.062,0.297c-28.433,0.129-56.865,0.063-85.298-0.118c-8.276-0.052-16.552-0.237-24.827-0.361
			c-0.46-0.007-0.921,0.004-1.379-0.026c-1.969-0.132-2.38-0.541-2.581-2.472c-0.301-2.901-0.324-5.811-0.333-8.723
			c-0.01-3.219-0.094-6.437-0.132-9.655c-0.029-2.451-0.198-2.3,2.398-2.342c1.608-0.026,3.222-0.014,4.821-0.157
			c4.142-0.371,6.257-3.385,5.259-7.392c-0.632-2.536-2.136-3.8-4.901-4.026c-1.908-0.156-3.825-0.207-5.732-0.363
			c-1.561-0.128-1.604-0.166-1.625-1.79c-0.086-6.668-0.152-13.335-0.199-20.003c-0.012-1.659,0.033-1.67,1.631-1.714
			c1.915-0.052,3.846,0.057,5.741-0.153c4.008-0.443,6.049-3.473,5.109-7.354c-0.598-2.471-2.044-3.777-4.645-4.035
			c-2.058-0.205-4.125-0.344-6.191-0.405c-1.094-0.033-1.459-0.469-1.465-1.526c-0.04-6.898-0.109-13.796-0.199-20.692
			c-0.014-1.019,0.419-1.32,1.378-1.311c1.914,0.019,3.837,0.046,5.742-0.105c4.128-0.329,6.324-3.374,5.398-7.34
			c-0.582-2.491-2.083-3.824-4.625-4.049c-1.602-0.142-3.211-0.2-4.813-0.343c-3.036-0.271-2.836,0.386-2.889-2.932
			c-0.056-3.525-0.08-7.05-0.112-10.575c-0.025-2.836-0.002-5.673-0.081-8.507c-0.033-1.174,0.333-1.634,1.558-1.595
			c1.913,0.061,3.848,0.116,5.741-0.107c4.561-0.537,6.713-4.51,4.78-8.586c-0.787-1.66-2.027-2.649-3.893-2.786
			c-2.062-0.15-4.123-0.321-6.187-0.451c-1.69-0.106-1.76-0.084-1.78-1.625c-0.089-6.82-0.117-13.641-0.215-20.461
			c-0.017-1.144,0.447-1.455,1.5-1.418c1.454,0.051,2.912-0.024,4.368-0.021c0.849,0.002,1.672-0.102,2.495-0.325
			c4.399-1.197,5.879-6.548,2.726-9.851c-0.791-0.828-1.752-1.201-2.857-1.282c-2.063-0.151-4.125-0.301-6.189-0.44
			c-1.75-0.118-1.803-0.109-1.83-1.844c-0.08-5.134-0.116-10.268-0.166-15.402c-0.016-1.609,0.033-3.222-0.047-4.828
			c-0.055-1.11,0.364-1.456,1.452-1.46c2.139-0.008,4.277,0.121,6.419-0.243c5.542-0.941,5.76-6.632,3.551-9.571
			c-0.781-1.04-1.838-1.569-3.146-1.647c-2.063-0.123-4.123-0.297-6.185-0.428c-1.788-0.114-1.848-0.1-1.871-1.799
			c-0.09-6.743-0.124-13.487-0.221-20.23c-0.016-1.059,0.267-1.565,1.411-1.489c1.068,0.071,2.145,0.019,3.218,0.004
			c1.072-0.014,2.133-0.095,3.2-0.267c4.589-0.737,5.947-5.017,4.12-8.776c-0.712-1.464-1.905-2.365-3.61-2.47
			c-2.063-0.127-4.126-0.272-6.188-0.429c-1.76-0.133-1.828-0.173-1.833-1.869c-0.007-2.298-0.009-4.601,0.11-6.895
			c0.108-2.095,0.576-2.53,2.675-2.587c3.83-0.105,7.662-0.149,11.494-0.2c31.037-0.411,62.075-0.392,93.114-0.334
			c10.269,0.019,20.537,0.056,30.806,0.129c16.323,0.117,32.646,0.257,48.97,0.419c3.601,0.036,7.2,0.19,10.799,0.315
			c2.277,0.079,2.272,0.101,2.31,2.35c0.394,24.216,0.401,48.434,0.412,72.652c0.008,18.087,0.001,36.174,0.001,54.262
			C363.672,250.122,363.651,250.122,363.631,250.122z"/>
		<path fill-rule="evenodd" clip-rule="evenodd" fill="#273445" d="M336.492,339.221c-0.921,0.955-2.123,1.487-3.239,2.116
			c-9.211,5.18-19.083,8.646-29.298,11.205c-0.658,0.165-1.365,0.165-2.052,0.179c-1.302,0.027-2.61-0.07-3.906,0.021
			c-9.228,0.659-17.513-2.314-25.41-6.651c-9.563-5.252-17.703-12.322-25.236-20.131c-9.605-9.957-17.921-20.944-25.698-32.354
			c-3.751-5.503-7.606-10.94-10.54-16.961c-5.2-10.668-8.613-21.924-11.14-33.474c-2.293-10.483-3.779-21.085-4.71-31.777
			c-0.665-7.638-1.043-15.287-1.151-22.945c-0.079-5.556,0.81-10.984,2.949-16.161c3.171-7.674,8.595-13.305,15.742-17.372
			c5.039-2.867,10.467-4.68,16.114-5.888c0.374-0.08,0.759-0.106,1.137-0.167c0.697-0.113,0.993,0.234,1.021,0.883
			c0.03,0.689,0.056,1.378,0.071,2.067c0.228,10.265,0.435,20.529,0.686,30.793c0.228,9.344,0.491,18.688,0.767,28.03
			c0.042,1.414-0.267,2.608-1.002,3.879c-3.602,6.222-3.314,12.732-0.316,18.953c5.851,12.139,12.145,24.06,18.477,35.958
			c4.424,8.314,8.879,16.613,13.792,24.654c0.878,1.438,1.782,2.863,2.746,4.243c4.329,6.193,10.137,8.273,17.445,6.283
			c1.481-0.403,2.977-0.843,4.277-1.639c1.286-0.786,2.145-0.441,3.223,0.414c8.942,7.094,17.929,14.133,26.901,21.188
			c5.48,4.309,10.965,8.612,16.437,12.932C335.227,338.011,335.981,338.414,336.492,339.221z"/>
		<path fill-rule="evenodd" clip-rule="evenodd" fill="#273445" d="M341.77,336.039c-15.94-12.656-31.918-25.341-48.141-38.22
			c2.048-1.108,3.825-2.082,5.614-3.035c1.892-1.007,3.842-1.912,5.677-3.014c1.589-0.953,3.156-0.94,4.843-0.46
			c2.249,0.642,4.195,1.838,6.058,3.197c8.039,5.871,15.81,12.09,23.647,18.224c1.205,0.943,2.446,1.851,3.585,2.869
			c2.809,2.516,3.984,5.487,2.653,9.261c-1.17,3.315-2.153,6.698-3.215,10.053C342.375,335.283,342.255,335.642,341.77,336.039z"/>
		<path fill-rule="evenodd" clip-rule="evenodd" fill="#273445" d="M260.155,176.759c0.12,5.969,0.161,11.942,0.405,17.906
			c0.078,1.923-0.546,3.301-1.719,4.749c-2.545,3.141-5.685,5.299-9.513,6.501c-0.51,0.16-1.034,0.298-1.562,0.37
			c-1.709,0.232-2.46-0.294-2.636-2.018c-0.217-2.13-0.377-4.271-0.439-6.411c-0.242-8.264-0.461-16.528-0.638-24.793
			c-0.165-7.729-0.274-15.46-0.39-23.19c-0.032-2.144,0.276-2.491,2.333-2.199c4.85,0.689,9.026,2.793,12.47,6.291
			c1.005,1.021,1.433,2.255,1.448,3.734c0.067,6.353,0.222,12.705,0.345,19.057C260.225,176.758,260.189,176.759,260.155,176.759z"
			/>
		<path fill-rule="evenodd" clip-rule="evenodd" fill="#534E4F" d="M238.216,147.899c0.606,3.226,1.953,57.797,1.513,59.345
			c-0.76-0.186-0.548-0.826-0.56-1.298c-0.067-2.604-0.079-5.209-0.14-7.813c-0.334-14.321-0.674-28.641-1.025-42.961
			c-0.041-1.684-0.193-3.364-0.236-5.048C237.75,149.485,237.562,148.792,238.216,147.899z"/>
	</g>
</g>
</svg>
