<?xml version="1.0" encoding="utf-8"?>
<!-- Generator: Adobe Illustrator 16.0.0, SVG Export Plug-In . SVG Version: 6.00 Build 0)  -->
<!DOCTYPE svg PUBLIC "-//W3C//DTD SVG 1.1//EN" "http://www.w3.org/Graphics/SVG/1.1/DTD/svg11.dtd">
<svg version="1.1" id="Layer_1" xmlns="http://www.w3.org/2000/svg" xmlns:xlink="http://www.w3.org/1999/xlink" x="0px" y="0px"
	 width="500px" height="500px" viewBox="0 0 500 500" enable-background="new 0 0 500 500" xml:space="preserve">
<g>
	<g>
		<path fill-rule="evenodd" clip-rule="evenodd" fill="#FFFFFF" d="M1.578,1.585c166.269,0,332.538,0,498.842,0
			c0,166.242,0,332.492,0,498.806c-166.257,0-332.55,0-498.842,0C1.578,334.141,1.578,167.867,1.578,1.585z"/>
		<path fill-rule="evenodd" clip-rule="evenodd" fill="#DCDBDB" d="M244.543,483.726c-57.859-1.001-113.55-23.57-158.875-69.704
			C40.963,368.52,19.358,313.18,18.909,249.487c1.358-63.022,24.071-117.111,67.917-162.36
			c46.643-45.285,102.446-68.079,167.478-68.219C318.68,20.7,374.028,43.903,418.689,90.381
			c43.972,45.761,65.433,100.979,64.879,164.556c-0.318,36.671-9.139,71.307-26.086,103.752
			c-19.264,36.881-46.585,66.59-81.718,88.901C337.814,471.693,296.209,483.509,244.543,483.726z"/>
		<path fill-rule="evenodd" clip-rule="evenodd" fill="#273445" d="M251.271,127.504c45.218,0,90.436,0,135.653-0.001
			c1.213,0,2.418-0.025,3.604,0.346c1.877,0.588,2.896,1.895,3.152,3.776c0.152,1.123,0.146,2.272,0.147,3.41
			c0.006,53.046,0.006,106.091,0.003,159.137c0,0.759,0.018,1.522-0.055,2.276c-0.277,2.879-1.996,4.503-4.91,4.664
			c-0.605,0.033-1.215,0.007-1.823,0.007c-16.644,0-33.286-0.002-49.93,0.002c-2.99,0.001-2.431-0.175-2.584,2.572
			c-1.506,26.912-12.615,48.7-34.442,64.854c-10.88,8.052-23.108,12.781-36.369,14.682c-24.912,3.571-47.2-2.809-66.382-19.06
			c-13.658-11.571-22.648-26.202-26.571-43.816c-1.291-5.798-2.33-11.606-2.382-17.564c-0.014-1.637-0.064-1.663-1.858-1.665
			c-10.868-0.009-21.735-0.005-32.603-0.005c-6.384,0-12.768,0.009-19.151-0.003c-4.204-0.008-5.965-1.769-5.965-5.943
			c-0.001-53.806-0.001-107.611,0.006-161.417c0-0.827-0.05-1.647,0.188-2.481c0.609-2.136,2.156-3.545,4.34-3.753
			c0.678-0.065,1.367-0.016,2.051-0.016C160.683,127.504,205.977,127.504,251.271,127.504z"/>
		<path fill-rule="evenodd" clip-rule="evenodd" fill="#DCDBDB" d="M251.293,198.536c43.543,0,87.086-0.004,130.629,0.008
			c3.187,0.001,2.742-0.47,2.743,2.776c0.014,29.332,0.013,58.664,0.001,87.996c-0.001,3.238,0.404,2.754-2.771,2.758
			c-15.046,0.019-30.092,0.008-45.138,0.008c-0.456,0-0.921-0.059-1.366,0.011c-1.12,0.174-1.381-0.391-1.542-1.389
			c-0.892-5.55-2.063-11.047-3.87-16.374c-5.452-16.078-15.146-29.061-28.607-39.369c-12.296-9.417-26.328-14.275-41.487-16.223
			c-8.983-1.154-17.848-0.163-26.69,1.734c-14.165,3.04-26.59,9.463-37.254,19.106c-12.775,11.553-21.454,25.665-25.162,42.648
			c-0.631,2.893-1.285,5.778-1.731,8.705c-0.124,0.813-0.376,1.263-1.269,1.156c-0.375-0.045-0.759-0.006-1.139-0.006
			c-15.426,0-30.853,0.004-46.278-0.003c-2.814-0.001-2.522,0.254-2.522-2.604c-0.006-29.484-0.007-58.969,0.002-88.453
			c0.001-2.813-0.395-2.479,2.595-2.48C164.056,198.533,207.675,198.536,251.293,198.536z"/>
		<path fill-rule="evenodd" clip-rule="evenodd" fill="#FDBD68" d="M251.413,375.098c-40.684,0.155-73.941-33.202-73.905-73.924
			c0.035-39.392,31.874-73.81,74.138-73.715c42.199,0.095,73.938,34.599,73.791,74.062
			C325.287,342.099,292.063,375.313,251.413,375.098z"/>
		<path fill-rule="evenodd" clip-rule="evenodd" fill="#DCDBDB" d="M251.474,155.787c-43.549,0-87.098,0.002-130.647-0.004
			c-3.318,0-2.836,0.372-2.853-2.947c-0.025-4.788-0.019-9.576,0-14.364c0.007-1.757,0.04-1.76,1.762-1.803
			c0.532-0.013,1.064-0.002,1.596-0.002c86.718,0,173.436-0.002,260.153,0.008c3.622,0,3.14-0.518,3.161,3.107
			c0.028,4.788,0.018,9.576,0.003,14.364c-0.005,1.595-0.032,1.6-1.618,1.638c-0.683,0.017-1.367,0.004-2.052,0.004
			C337.811,155.787,294.643,155.787,251.474,155.787z"/>
		<path fill-rule="evenodd" clip-rule="evenodd" fill="#283445" d="M220.547,314.675c0.202-2.179,0.792-4.213,1.19-6.282
			c0.154-0.798,0.616-0.935,1.288-0.929c1.216,0.01,2.432-0.012,3.647-0.008c0.651,0.002,0.978-0.291,0.967-0.957
			c-0.029-1.747-0.065-3.495-0.064-5.243c0-0.802-0.401-1.044-1.134-1.036c-1.892,0.02-3.785,0.006-5.854,0.006
			c0.103-2.416,0.807-4.559,1.248-6.742c0.119-0.589,0.61-0.597,1.065-0.602c1.292-0.013,2.591-0.091,3.874,0.011
			c1.169,0.094,1.626-0.418,1.836-1.479c0.622-3.141,1.629-6.161,3.031-9.042c5.175-10.637,13.935-16.59,25.253-18.996
			c7.185-1.527,14.347-1.295,21.301,1.358c1.131,0.432,2.189,1.046,3.295,1.548c0.814,0.369,1.105,0.922,0.898,1.819
			c-0.664,2.872-1.284,5.754-1.917,8.615c-0.788,0.148-1.186-0.414-1.64-0.757c-9.462-7.153-28.398-6.201-36.191,8.197
			c-1.05,1.94-2.053,3.891-2.641,6.033c-0.734,2.676-0.747,2.678,1.952,2.679c10.639,0.002,21.279,0,31.918,0
			c0.826,0,1.651,0,2.66,0c0.003,2.441-0.729,4.582-1.168,6.764c-0.083,0.409-0.443,0.578-0.865,0.578
			c-0.531-0.001-1.063,0.011-1.596,0.011c-10.411,0.001-20.822,0-31.234,0c-0.456,0-0.912-0.009-1.368,0.002
			c-1.693,0.04-1.713,0.042-1.741,1.796c-0.022,1.443,0.014,2.888,0.016,4.331c0,0.737,0.318,1.13,1.091,1.107
			c0.532-0.016,1.064,0.004,1.596,0.004c9.956,0,19.911-0.005,29.867,0.009c0.821,0.001,1.669-0.169,2.626,0.271
			c-0.427,2.034-0.876,4.09-1.281,6.153c-0.123,0.628-0.42,0.932-1.063,0.919c-0.684-0.014-1.368,0.001-2.052,0.001
			c-8.968,0-17.935,0-26.903,0c-0.825,0-1.651,0-2.675,0c1.738,9.525,6.235,16.692,15.495,19.908
			c8.727,3.03,17.149,2.301,25.082-3.503c0,3.617-0.016,6.935,0.009,10.251c0.008,1.013-0.735,1.227-1.43,1.513
			c-2.825,1.165-5.764,1.978-8.792,2.271c-6.956,0.672-13.819,0.206-20.416-2.313c-8.178-3.122-13.759-8.966-17.386-16.814
			c-1.375-2.976-2.305-6.102-3.108-9.27c-0.516-2.033-0.51-2.015-2.69-2.049C224.58,314.778,222.608,314.946,220.547,314.675z"/>
	</g>
</g>
</svg>
