<?xml version="1.0" encoding="utf-8"?>
<!-- Generator: Adobe Illustrator 16.0.0, SVG Export Plug-In . SVG Version: 6.00 Build 0)  -->
<!DOCTYPE svg PUBLIC "-//W3C//DTD SVG 1.1//EN" "http://www.w3.org/Graphics/SVG/1.1/DTD/svg11.dtd">
<svg version="1.1" id="Layer_1" xmlns="http://www.w3.org/2000/svg" xmlns:xlink="http://www.w3.org/1999/xlink" x="0px" y="0px"
	 width="500px" height="500px" viewBox="0 0 500 500" enable-background="new 0 0 500 500" xml:space="preserve">
<g>
	<g>
		<path fill-rule="evenodd" clip-rule="evenodd" fill="#FFFFFF" d="M500.437,500.437c-166.967,0-333.912,0-500.836,0
			c0-166.967,0-333.912,0-500.836c166.967,0,333.913,0,500.836,0C500.437,166.567,500.437,333.513,500.437,500.437z"/>
		<path fill-rule="evenodd" clip-rule="evenodd" fill="#DBDBDB" d="M242.892,483.652c-56.869-0.94-112.404-23.251-157.785-68.869
			c-45.118-45.354-67.232-100.683-68.125-164.57c0.923-64.178,23.86-119.208,68.624-165.171
			C131.728,40.461,186.808,17.649,251,16.981c64.937,1.144,120.897,24.063,166.253,70.637
			c45.218,46.434,67.074,102.688,66.235,167.565c-0.471,36.416-9.364,70.824-26.235,103.038
			c-19.389,37.022-46.818,66.866-82.14,89.25C337.043,471.598,295.347,483.472,242.892,483.652z"/>
		<path fill-rule="evenodd" clip-rule="evenodd" fill="#273445" d="M191.899,335.565c-18.158-0.001-36.315-0.002-54.473-0.003
			c-0.305,0-0.61,0.001-0.916-0.001c-2.319-0.008-2.299-0.006-1.979-2.383c6.29-46.79,41.208-86.119,88.034-97.541
			c13.307-3.246,26.763-4.09,40.412-2.685c39.493,4.066,75.225,28.711,93.056,65.67c5.479,11.356,8.938,23.312,10.611,35.795
			c0.039,0.291-0.022,0.596-0.048,1.112c-18.258,0-36.473,0-54.688,0c-0.969-0.829-0.687-1.974-0.66-2.993
			c0.085-3.225-0.281-6.382-1.004-9.523c-0.368-1.606-1.178-2.498-2.809-2.87c-3.196-0.729-6.338-1.68-9.516-2.488
			c-3.278-0.833-4.918-4.929-3.155-7.833c1.781-2.934,3.491-5.91,5.332-8.805c0.992-1.56,0.874-2.911-0.071-4.452
			c-3.181-5.178-7.445-9.224-12.556-12.448c-1.455-0.918-2.768-0.953-4.245-0.005c-2.63,1.689-5.383,3.18-8.085,4.751
			c-3.267,1.899-7.08,0.262-8.063-3.412c-0.867-3.24-1.692-6.495-2.434-9.767c-0.411-1.816-1.441-2.676-3.214-3.058
			c-5.834-1.258-11.638-1.236-17.466,0.035c-1.766,0.385-2.827,1.246-3.205,3.071c-0.634,3.062-1.55,6.057-2.369,9.073
			c-0.958,3.527-4.698,5.214-7.927,3.421c-2.997-1.664-5.897-3.509-8.8-5.336c-1.577-0.992-2.89-0.89-4.432,0.066
			c-5.166,3.202-9.171,7.503-12.42,12.591c-0.93,1.456-1.041,2.709-0.056,4.202c1.804,2.737,3.371,5.624,4.997,8.471
			c1.613,2.823-0.04,6.798-3.184,7.637c-3.463,0.924-6.939,1.802-10.433,2.6c-1.538,0.352-2.293,1.179-2.679,2.697
			c-0.931,3.666-1.051,7.379-1.004,11.125C192.467,333.389,192.761,334.588,191.899,335.565z"/>
		<path fill-rule="evenodd" clip-rule="evenodd" fill="#273445" d="M250.575,223.075c-31.413,0.232-57.01-25.697-56.992-57.031
			c0.017-30.023,24.1-56.92,56.909-56.912c32.795,0.008,56.876,26.907,56.877,56.943
			C307.369,197.354,281.862,223.203,250.575,223.075z"/>
		<path fill-rule="evenodd" clip-rule="evenodd" fill="#FEBD69" d="M191.899,335.565c0.005-2.973-0.312-5.941-0.031-8.917
			c0.222-2.361,0.687-4.667,1.325-6.949c0.258-0.922,0.723-1.363,1.673-1.582c3.937-0.907,7.844-1.94,11.782-2.841
			c1.157-0.265,1.703-0.866,2.282-1.899c1.268-2.263,1.111-4.104-0.412-6.234c-1.812-2.533-3.182-5.379-4.835-8.032
			c-0.597-0.957-0.673-1.69-0.083-2.696c3.501-5.977,8.114-10.825,14.067-14.417c1.446-0.873,2.54-0.787,3.928,0.121
			c3.061,2.005,6.258,3.799,9.358,5.746c1.054,0.662,1.939,0.688,3.18,0.356c2.477-0.66,3.564-2.104,4.019-4.548
			c0.571-3.066,1.557-6.053,2.253-9.099c0.296-1.295,0.961-1.882,2.231-2.201c6.636-1.674,13.245-1.793,19.907-0.108
			c1.572,0.398,2.239,1.183,2.573,2.693c0.821,3.721,1.831,7.399,2.67,11.116c0.248,1.099,0.771,1.67,1.796,2.104
			c3.227,1.365,3.206,1.408,6.208-0.368c2.69-1.593,5.408-3.144,8.066-4.787c1.041-0.644,1.874-0.632,2.937,0
			c6.024,3.58,10.915,8.255,14.42,14.368c0.662,1.155,0.634,2.007-0.081,3.121c-2.015,3.146-3.847,6.41-5.871,9.55
			c-0.786,1.22-0.802,2.226-0.381,3.604c0.68,2.226,1.925,3.305,4.219,3.727c2.991,0.549,5.887,1.611,8.874,2.197
			c1.817,0.357,2.479,1.325,2.867,2.987c0.999,4.275,1.229,8.594,1.069,12.954c-0.351,2.252-0.688,4.502-1.275,6.715
			c-0.32,1.208-0.991,1.792-2.133,2.063c-3.847,0.912-7.677,1.893-11.535,2.752c-0.913,0.204-1.469,0.568-1.9,1.393
			c-1.772,3.389-1.79,3.374,0.223,6.779c1.551,2.624,3.05,5.28,4.652,7.873c0.682,1.104,0.701,2.027,0.013,3.137
			c-3.638,5.863-8.226,10.748-14.219,14.269c-1.216,0.715-2.189,0.654-3.342-0.082c-3.083-1.968-6.203-3.877-9.34-5.758
			c-0.757-0.454-1.542-1.289-2.485-0.888c-1.32,0.563-2.804,0.801-3.935,1.767c-0.424,0.36-0.476,0.923-0.608,1.446
			c-0.896,3.537-1.877,7.056-2.714,10.607c-0.317,1.347-0.936,2.033-2.321,2.367c-6.851,1.65-13.654,1.846-20.486-0.135
			c-1.07-0.311-1.446-0.809-1.682-1.795c-0.919-3.845-2-7.652-2.835-11.515c-0.282-1.305-0.96-1.854-2.014-2.472
			c-2.188-1.284-4.033-0.972-6.072,0.4c-2.651,1.784-5.499,3.272-8.222,4.953c-0.891,0.549-1.658,0.62-2.521,0.036
			c-1.766-1.195-3.677-2.213-5.293-3.582c-3.558-3.015-6.757-6.376-9.164-10.438c-0.794-1.34-0.896-2.438-0.034-3.784
			c1.931-3.015,3.684-6.144,5.629-9.148c0.87-1.343,1.299-2.558,0.36-4.003c-0.202-0.31-0.324-0.7-0.383-1.07
			c-0.216-1.347-1.155-1.82-2.336-2.119c-3.539-0.894-7.051-1.9-10.609-2.711c-1.32-0.301-1.921-0.941-2.271-2.186
			C192.607,338.802,192.64,337.091,191.899,335.565z"/>
		<path fill-rule="evenodd" clip-rule="evenodd" fill="#DBDBDB" d="M251.911,309.471c10.614-0.512,21.827,8.219,21.798,21.875
			c-0.026,12.635-10.36,21.716-21.915,21.68c-11.438-0.036-21.822-8.979-21.801-21.788
			C230.015,318.072,240.756,308.959,251.911,309.471z"/>
	</g>
</g>
</svg>
